<svg xmlns="http://www.w3.org/2000/svg" viewBox="0 0 200 200"><defs><style>.cls-1{fill:#878787;}.cls-2{fill:#ffed00;}.cls-3{fill:#e94e1b;}.cls-4{fill:#3c3c3b;}</style></defs><g id="color"><path class="cls-1" d="M156.65,180.2a42,42,0,0,0-3.18-7.56l-.69-1.45a2.09,2.09,0,0,0,0-.25c-.14-1.5-.24-3-.32-4.5a1.82,1.82,0,0,0,.15-.41,14.52,14.52,0,0,0,.43-3.53,2.9,2.9,0,0,0,0-.66,1.86,1.86,0,0,0,.28-1.18c-.26-2.32-.62-4.62-1-6.91a2.31,2.31,0,0,0,.1-1.68q-1.41-4.68-2.48-9.45a3.45,3.45,0,0,0,0-1,100.18,100.18,0,0,1-1.56-14.11,2.81,2.81,0,0,0-.48-1.43c-.09-.4-.19-.79-.3-1.19a97.48,97.48,0,0,1-1.39-13.1l.06-.54a2.46,2.46,0,0,0,.32-1.23v-2.85a2.41,2.41,0,0,0-.14-.83c0-.17.09-.34.12-.51a1.85,1.85,0,0,0,0-1,1.79,1.79,0,0,0-.29-.93,2.54,2.54,0,0,0-1.5-1.15,2.42,2.42,0,0,0-.47-.07,7.31,7.31,0,0,0,.56-.81c.06-.12.12-.23.17-.35s.07-.18.11-.26a2.65,2.65,0,0,0,.44-.85l.57-2.15a1.89,1.89,0,0,0,0-1,.93.93,0,0,0,0-.23,37.9,37.9,0,0,0,1.48-10.63c0-.35.1-.69.14-1a17.27,17.27,0,0,0,.5-9,2.1,2.1,0,0,0-.7-1.15c0-.17-.06-.33-.08-.5-.13-1-.22-2-.25-3.08a2.77,2.77,0,0,0-.94-1.94,75.83,75.83,0,0,0-3.4-13.17,3,3,0,0,0-.91-1.28,20,20,0,0,0-2.36-4.42.13.13,0,0,0,0-.06,13.69,13.69,0,0,0-1-2.14,14.9,14.9,0,0,0-1.45-1.9,12.14,12.14,0,0,0-3.19-2.47,8,8,0,0,0-.93-.82,2.46,2.46,0,0,0-.35-1.07v0h0l-.4-.51,0,0A2.6,2.6,0,0,0,131,41.1h0l-.34-.05c.37.05-.23,0-.34,0h0a3.63,3.63,0,0,0-.68.09l1.69-4.88a29.33,29.33,0,0,0,4.61-6,2.58,2.58,0,0,0,.26-.72,2.29,2.29,0,0,0,.22-1A12.65,12.65,0,0,0,135,23a2.43,2.43,0,0,0-.66-.74s0,0,0,0a10.92,10.92,0,0,0-1.51-3.06c-.07-.32-.14-.63-.2-1a2.53,2.53,0,0,0-2.65-1.83h0a17.14,17.14,0,0,0-7.06-.07h0a5.9,5.9,0,0,0-3.6.21,2.89,2.89,0,0,0-1.59,1.35c-3.49,1.36-6.71,3.23-8.9,6.47a2.22,2.22,0,0,0,.69,3.19l-1,4.81a2.69,2.69,0,0,0,0,3,2.63,2.63,0,0,0,1,.84,2.42,2.42,0,0,0,1.16,1.9l.52,1.72a2.41,2.41,0,0,0,1.17,1.49,5.09,5.09,0,0,0,1.09,1.32,4.39,4.39,0,0,0,1.7,1c.1,0,.73.15,1.25.22,0,.51,0,1,0,1.52a2.22,2.22,0,0,0,0,.45c0,.21,0,.43,0,.64a21.55,21.55,0,0,0-3,.36c-.84.07-1.69.13-2.53.17-.38,0-.76,0-1.14,0a15.73,15.73,0,0,1-1.55-.63,2.77,2.77,0,0,0-2-.19l-.48-.43a1.3,1.3,0,0,0-.89-.37,1.35,1.35,0,0,0-.6.16,1.23,1.23,0,0,0-.88-.09,1.34,1.34,0,0,0-.75.57l-.12.3a1.27,1.27,0,0,0,0,.67,6.13,6.13,0,0,0,.63,1.91,1.72,1.72,0,0,0-.06.55,2.61,2.61,0,0,0,.61,1.61,63.46,63.46,0,0,0,2.35,6.71,2.75,2.75,0,0,0,1.15,1.49,2.24,2.24,0,0,0,.27.13c.48,1,1,2,1.45,3.05q.78,3.3,1.29,6.66c-.06.34-.14.68-.23,1l-.25.32a2.38,2.38,0,0,0-.29.85,2.86,2.86,0,0,1-.07.28l-.07.11a1.89,1.89,0,0,0-.42.69,1.93,1.93,0,0,0-.21,1v0a2.16,2.16,0,0,0-.26,1.9c.34,1,.66,1.94,1,2.92l1.09,7.55a24.6,24.6,0,0,0-2.93,1.63,3.17,3.17,0,0,0-.81.78l-.47.29a2.73,2.73,0,0,0-1,1.16c-1.36,1-2.69,2.11-4,3.24a2.06,2.06,0,0,0-.61,1l-.11.08-.39.51a2.53,2.53,0,0,0-.34,1.26c0,.09,0,.17,0,.25,0,.3.07.59.13.89a66.54,66.54,0,0,1-9.11,2.45l-.12,0c-.21-.18-.42-.35-.64-.51a2.41,2.41,0,0,0-2.23-.12,2.27,2.27,0,0,0-.55.32l-.33.07a5.43,5.43,0,0,0-1.51.48,3.82,3.82,0,0,0-1.15.85,3.6,3.6,0,0,0-.88,1.75,4.44,4.44,0,0,0-.67.62,2.66,2.66,0,0,0-.73,1.77,2.6,2.6,0,0,0,.54,1.52,2.38,2.38,0,0,0,1.3.89,2.78,2.78,0,0,0,1.92-.25,11.8,11.8,0,0,0,1.47-.83,2.43,2.43,0,0,0,.55.09,6.47,6.47,0,0,0,.88,0,2.18,2.18,0,0,0,.32,1,2.56,2.56,0,0,0,3.42.89,8.54,8.54,0,0,0,2.17-1.8,18,18,0,0,1,1.61-1.42c.15-.12.32-.23.48-.34a2.66,2.66,0,0,0,2.56.06l2-.91a4.53,4.53,0,0,0,.34.55,12.22,12.22,0,0,0,2.18,2.47,5.77,5.77,0,0,0,.54.37,13.66,13.66,0,0,0,4.77,2.58,2.29,2.29,0,0,0,1.12.68,2.43,2.43,0,0,0,1.92-.25c.73-.53,1.44-1.09,2.12-1.68a2.76,2.76,0,0,0,1.47-.68l.3-.29.48.59c.53.7,1,1.42,1.51,2.16a2.26,2.26,0,0,0,.23.31q1.34,4.81,2.55,9.67l-.06.18a88.47,88.47,0,0,0-1.68,10.09c-1,3.64-1.94,7.29-2.82,11a2.6,2.6,0,0,0-.05.39,2.06,2.06,0,0,0-.08.66,32.06,32.06,0,0,0,1.87,8.66,4.43,4.43,0,0,0,.3.62c.17,1.28.34,2.56.52,3.83a1.8,1.8,0,0,0,.36.77q.49,5.33,1,10.65a3,3,0,0,0,.28,1c.06.73.12,1.47.17,2.2a3.08,3.08,0,0,0,.26,1,2.08,2.08,0,0,0-.42,1.36,40.28,40.28,0,0,0,1.59,9,2.53,2.53,0,0,0,.31.64,2.66,2.66,0,0,0,.08.78,3.77,3.77,0,0,0,3.46,2.74,5.6,5.6,0,0,0,1.47-.09,2,2,0,0,0,.89.15l1.3-.07a2.55,2.55,0,0,0,1.39-.49c.1,0,.2,0,.31,0,.39,0,.78-.08,1.17-.11a6.22,6.22,0,0,0,1.36.09,2.75,2.75,0,0,0,1.6.64l3,.24.24.08a25,25,0,0,0,5.12,4.45,6.38,6.38,0,0,0,3.5,2.44,3.62,3.62,0,0,0,2.51-.53l.09-.06a2.4,2.4,0,0,0,1.45,0C156.28,190.6,157.85,184.91,156.65,180.2Z"/></g><g id="destacado"><path class="cls-2" d="M45.21,56.12c.43,3.88.66,7.82,2.16,11.47,2.1,5.13,4.57,10,8.44,14.17A88.05,88.05,0,0,0,67.1,91.45,28.64,28.64,0,0,0,71,94.28c.29.15.68.44.46.79s-.59.07-.88-.11c-7.79-4.9-14.86-10.62-20-18.38a35.49,35.49,0,0,1-5.21-12.16,38.14,38.14,0,0,1-.86-7.5,14.21,14.21,0,0,0-.16-1.6c-.1-.77-.5-.81-1-.33a6.32,6.32,0,0,1-1.19,1.06c-.16.09-.32.27-.51.13s-.13-.33-.08-.52A5.82,5.82,0,0,1,44,52.32a1.19,1.19,0,0,1,1.31.09l1.68,1a.6.6,0,0,1,.36.75c-.09.32-.38.29-.65.34-.52.11-1.08-.84-1.46,0A4.16,4.16,0,0,0,45.21,56.12Z"/><ellipse class="cls-2" cx="67.84" cy="175.21" rx="10.73" ry="2.76"/><ellipse class="cls-2" cx="111.47" cy="185.66" rx="10.73" ry="2.76"/></g><g id="destacado_color" data-name="destacado color"><path class="cls-3" d="M63.43,25.23c.07-1.93-1.88-2-3.9-1-2.36,1.48.82,3.88-3.07,4.48,2.22,4.49.48,8.27.63,13.5,0,0,5.78-1.83,5.14-3.08C60.93,34.15,62.79,30.12,63.43,25.23Z"/></g><g id="Capa_3" data-name="Capa 3"><path class="cls-4" d="M159,175.22c.55.19.44.77.71,1.13v4.37c-.3-1.83-.27-3.7-.7-5.51Z"/><path class="cls-4" d="M79.94,103.49a17.7,17.7,0,0,1,2.83-3.28c.23-.26.87-.65-.16-.84-.57-.1-.54-.88-.6-1.38-.32-2.43-.62-4.86-.86-7.3-.21-2.09-.19-4.22-.56-6.28-.46-2.59-.52-5.24-1.15-7.78a21.61,21.61,0,0,0-.82-3.75c-.56-1.27-.12-2.65-.43-4-1.08-4.51-1.74-9.08-2.45-13.65a14.26,14.26,0,0,1-.14-2.06c0-.45.11-.93.69-.8s1,.49.71,1.05a2.31,2.31,0,0,0-.09,1.87c.66,3,.67,6.17,1.44,9.18,1.53,5.94,2.15,12,3,18.07.57,4.13,1.48,8.21,1.45,12.42a10.58,10.58,0,0,0,.76,3.22c.07.25.17.59.47.58s.3-.39.26-.63c-.25-1.85-.07-3.7-.47-5.57a55.27,55.27,0,0,1-.62-7.07c-.33-4-.51-8-1.6-11.81s-1.23-7.46-2.16-11.13a10.78,10.78,0,0,1-.29-5.33,3.32,3.32,0,0,0-.23-1.81,23.47,23.47,0,0,1-.79-5.65c0-.22-.08-.52.24-.55s.34.26.48.43c1.23,1.51,1.48,3.43,2,5.19.84,2.78,2,5.52,2.13,8.43.32,5.55,1.2,11,1.69,16.55.35,4,.64,8.08.73,12.13,0,1.83-.32,3.66,0,5.5.1.61.24.68.78.48,1.59-.6,1.71-2.1,2-3.39a26.48,26.48,0,0,0,.32-9.52,47.16,47.16,0,0,1,0-7.23c0-2.57-.25-5.12-.22-7.68,0-1.11.09-2.22.13-3.32,0-.26.08-.48.38-.46a.59.59,0,0,1,.54.52c.41,2.07,1.36,4,1.76,6.05a33.62,33.62,0,0,1-.32,12c-.56,3.34-1,6.72-1.43,10.08,0,.29-.18.77.14.82.47.07.34-.45.43-.75.93-3.17,2-6.33,2.82-9.52.94-3.46,2.27-6.84,2.47-10.46.09-1.73.12-3.47,0-5.23-.11-2.32-.23-4.64-.41-6.95,0-.29-.14-.69.29-.75s.46.33.54.62.08.37.13.56.1.27.15.41a1.34,1.34,0,0,0,.16-.37c.15-.84.12-2.13,1.24-2s.65,1.44.62,2.28c0,1.5.92,3,.19,4.48-1,1.94-1,4.06-1.33,6.12-.74,5.2-2.9,10-3.62,15.26-.19,1.35-.78,2.65-1.07,4a7.47,7.47,0,0,1-1.8,3.19c-.42.45-1,.26-1.52.17-.29,0-.61-.09-.67.24-.1.48.34.31.54.32a5.39,5.39,0,0,1,2.67.93,1.41,1.41,0,0,0,1.42,0c1.94-.7,3.88-1.42,5.8-2.17a1.11,1.11,0,0,0,.27-1.82c-.19-.2-.41-.26-.06-.39,1.69-.65,2.5-2.31,3.83-3.38,2-1.65,4-3.49,6.14-5a1.5,1.5,0,0,0,.73-1.73,40.05,40.05,0,0,0-1-4.83c-.24-.74-.64-.85-1.17-.43-1.73,1.37-4,1.58-5.83,2.57-1.56.83-3.2,1.88-3.68,3.88a4.38,4.38,0,0,1-2.28,1.53.46.46,0,0,1-.31-.78,29.13,29.13,0,0,1,3.15-3.58c.39-.36,1-.6,1.41-1,1.15-1.26,2.86-1.26,4.32-1.66,1.3-.35,2.15-1.24,3.23-1.82a1,1,0,0,0,.39-1.14c-.62-1.87.21-3.46.87-5.08a9.16,9.16,0,0,0-.1-8.15A96.6,96.6,0,0,1,103.75,52a31.15,31.15,0,0,0-8.68-12.7c-2.28-2-4.21-4.57-7.29-5.6a2.65,2.65,0,0,0-2.17.09c-2.15,1-4,2.51-6.06,3.71a1.77,1.77,0,0,0-1,1.43,9.27,9.27,0,0,1-1.15,4c-.13.21-.39.49-.19.73s.49,0,.72-.13A7.57,7.57,0,0,1,79.79,43a3.73,3.73,0,0,1,3.64,1.17c.62.68,1.32,1.27,2,1.91.38.36.57.8.14,1.2s-.77,0-1-.35a9.4,9.4,0,0,0-1.71-1.85,3.76,3.76,0,0,0-5.08-.26,7.63,7.63,0,0,0-3.17,4.08,2.35,2.35,0,0,0,.15,2.27c.34.46.39,1-.34,1.28a1.14,1.14,0,0,0-.67,1,25.39,25.39,0,0,0-.56,3.62c0,3.16-.69,6.36-.06,9.45.33,1.59-.42,2.86-.34,4.35.28,5.16.61,10.31,1.35,15.43.38,2.69.36,5.43,1,8.08a2.35,2.35,0,0,0,.51,1.35c0-.48,0-1-.09-1.45-.1-.84-.24-1.67-.36-2.5,0-.18-.14-.48,0-.51s.31.28.31.48c0,1.55.54,3,.65,4.54a4.31,4.31,0,0,0,4,4.34c.3,0,.82-.07.71.49s-.54.41-.86.34c-2.25-.54-3-.78-4-2.47-2.68-4.36-2.14-9.31-3-14-.6-3.35-.8-6.76-1.1-10.15a54.56,54.56,0,0,1,.07-8.48c.08-1.19-.6-1.08-1.32-1.35a51,51,0,0,0-8.61-2.28A14,14,0,0,1,57,61c-1.79-1.15-3.67-4.66-3.35-6.79a1.46,1.46,0,0,0-.71-1.62c-2.32-1.66-2.34-3.59-.13-5.42,1.29-1.08,2.54-2.21,3.79-3.32a1.45,1.45,0,0,0,.53-1.6c-.38-1.64-.77-3.51-.11-5,.56-1.25-.13-1.71-.5-2.49-.69-1.44-.16-2.84.2-4.24.2-.75.53-1.34-.8-.85-1,.37-1.39-.89-2-1.45s.08-1.09.5-1.45a10.42,10.42,0,0,1,1.75-1.08c1.25-.68,2.75-.9,3.68-2.18A1.58,1.58,0,0,1,61.41,23a4.44,4.44,0,0,0,2.79-.26c.13-.06.38-.08.44,0,1.08,1.38,1-.13,1.18-.53a21.31,21.31,0,0,1,9.23-9.84,1.91,1.91,0,0,1,1.75-.16c1.22.51,2.6,0,3.83.64A4.51,4.51,0,0,1,83,14.66a11.23,11.23,0,0,0,1.79,2.23c1.24,1.34,1.6,3.09,2.22,4.7.36.91.29,2,.56,2.92C88.9,29,86.3,32.72,81.34,33c-3.11.15-4.92-1.67-6.85-3.52-1.09-1.05-1.4-2.51-2.07-3.78a12.63,12.63,0,0,0-.7-1.18c-.48-.73-.92-.76-1.29.09l0,.05A1.59,1.59,0,0,0,70,26.19a1.22,1.22,0,0,1-.71,1.43c-.66.34-.78-.4-1-.78s-.66-1.08-1-1.62a4.36,4.36,0,0,0,.08,2,24.48,24.48,0,0,0,.53,3c.1.49.29.86,1,.66s.92.12.84.86A8.56,8.56,0,0,0,70.39,35a.63.63,0,0,0,.69.49,19.81,19.81,0,0,1,8,1c.19.05.33.05.38-.08.31-.73,1.18-.73,1.6-1.18,1.09-1.21,2.7-1.37,4-2.2a3,3,0,0,1,2.74-.3,7.87,7.87,0,0,1,3.83,2.14c1.49,1.76,3.47,3,5.2,4.47s2.35,3.29,3.76,4.75a2.1,2.1,0,0,0,1.85.83,11.07,11.07,0,0,1,2.05.18c.14,0,.33,0,.34.2s-.14.15-.23.19l-.51.18c.17.2.42.14.62.11.49-.08,1-.24,1.44-.34.32-.06,1-.78.71.4-.1.44.49.28.8.24a3.41,3.41,0,0,1,3.09,1c.11.1.29.2.17.35a.46.46,0,0,1-.42,0c-2-.7-4.18-.33-6.25-.68-1.39-.23-1.71.15-1.11,1.36,2.32,4.7,3.49,9.87,6.09,14.46a9,9,0,0,1,.15,9.18,5.21,5.21,0,0,0-.59,4.52c.88,2.22,1,4.62,1.57,6.93.15.69.37.8,1,.39A34.38,34.38,0,0,0,115,81.1a15,15,0,0,0,4.12-5.68,26.74,26.74,0,0,1,3.77-6.64,8.48,8.48,0,0,0,1-1.93c1-2.48,3.06-4.16,4.51-6.29a23.68,23.68,0,0,1,4.45-4.87,4.68,4.68,0,0,1,3.19-1c.42,0,1,.27.89.72-.09.62-.58.2-.92.14a3.53,3.53,0,0,0-2.62.9c-2.25,1.46-3.72,3.64-5.22,5.73a112,112,0,0,0-7.07,11.39,4.28,4.28,0,0,0-.48,1.29A7,7,0,0,1,119,78.38c-.55.6-.61,1,.4,1.2a11.43,11.43,0,0,0,2.86.1,2.12,2.12,0,0,1,2.46,1.4c.2.53.59,1,.81,1.51a2,2,0,0,1-.2,2.34c-1,1.56-1,.09-1.22-.21-2.18-2.53-5.06-2.92-8.08-2.5-2,.28-3.48,1.85-5.11,3-.24.16-.16.49-.17.75s-.14.66-.43.54c-1.8-.71-2.49.91-3.44,1.73a26.43,26.43,0,0,1-2.13,2c-1.56,1.06-2.73,2.56-4.24,3.68-.32.23-.72.61-.57,1s.67.19,1,.27c2.43.55,4.67,1.39,6.27,3.47,1.39,1.82,3.06,3.4,4.15,5.47a4.17,4.17,0,0,1,.21,4.11,1,1,0,0,1-1.24.54,7.39,7.39,0,0,1-2.85-1.4c-1.27-.92-2.67-1.63-4-2.53-.28-.19-.71-.37-.78-.64-.38-1.39-1.28-.89-2.11-.64a26.93,26.93,0,0,0-10.06,6.33c-.17.16-.35.28-.28.57.48,1.9-.41,3.9.37,5.8a.76.76,0,0,1-.06.55c-1.24,2.13-1.69,4.6-2.88,6.75a1.29,1.29,0,0,1-1.16.79c-.55,0-.69-.39-.7-.86,0-.09-.1-.17-.14-.26a1.51,1.51,0,0,0-.25.37c-.24.68-.41,1.39-.7,2.06-.18.43-.44,1-1.09.42-.3-.26-.49,0-.61.23s-.13.36-.2.53c-.19.44-.2,1.17-.81,1.07s-.79-.7-.9-1.2-.11-.77-.44-.84-.26.46-.46.66c-.48.49-1,1-1.47,1.44a.88.88,0,0,1-1,.16c-.41-.19-.45-.59-.43-1a14.43,14.43,0,0,1,.84-3.92c.77-2.26.94-4.65,1.65-6.92.19-.58.4-1.14.63-1.7a5.94,5.94,0,0,0,0-4.9,6.53,6.53,0,0,1-.68-4.64,5.93,5.93,0,0,0,.09-1.59ZM71.88,44.56a4.44,4.44,0,0,1-.31.94,54.82,54.82,0,0,1-5.87,8.62c-.34.4-.75.57-1.19.2s0-.7.19-1c1.21-1.63,2.43-3.25,3.69-4.83.58-.72.55-1.16-.41-1.32-.41-.07-.48-.32-.49-.64,0-.87-.66-1.53-.76-2.39-.07-.61-.52-.34-.69,0a25.49,25.49,0,0,1-2.29,3c-1.48,2-2.82,4.08-4.11,6.2-.17.28-.31.72-.75.52s-.4-.64-.3-1a6.71,6.71,0,0,1,.34-.84,19.79,19.79,0,0,1,2.68-3.85c.1-.13.33-.29.12-.47,0,0-.28.06-.39.15-1.42,1.24-3,2.31-3.74,4.19a1.05,1.05,0,0,1-1.48.48c-.52-.28-.18-.83.06-1.21a8.09,8.09,0,0,1,1-1.39,58.94,58.94,0,0,1,7.63-7.1c.39-.29,1-.56.62-1.28a2.28,2.28,0,0,0-2.57-1.08,8.61,8.61,0,0,0-3.08,1.69q-3.23,2.84-6.53,5.59c-1.62,1.35-1.79,2.45-.18,3.71a3.82,3.82,0,0,1,1.44,3.15c.26,3.61,1.52,5.59,4.63,6.47,4,1.12,8.14,1.44,12,3.11.65.28,1,0,1-.74a40.06,40.06,0,0,1,.09-4.24c.37-3,1.14-6,.87-9.06a1.62,1.62,0,0,1,.11-.79c1.07-2.24,1.73-4.66,3.18-6.73a8.28,8.28,0,0,0,1-2.06c.1-.29.11-1-.42-.74s-1.41.13-2,.43a17.23,17.23,0,0,0-6.2,5.49c-.36.55.21.72.5,1s.62,0,.76-.32.62-.72-.26-.67c-.34,0-.27-.31-.1-.49.42-.45.85-.88,1.3-1.3a.59.59,0,0,1,.63-.18C71.89,43.84,71.87,44.14,71.88,44.56ZM86.81,26.33c-.35-2.5-.63-5.44-2.37-7.88s-3.1-5.4-6.91-4.93a.34.34,0,0,1-.22,0c-1.61-1-2.88,0-3.89.93a52.55,52.55,0,0,0-5.63,6.46,1.81,1.81,0,0,0,0,2.47,5.31,5.31,0,0,1,1,2.06c0,.23,0,.65.41.52s0-.41-.08-.61a1.75,1.75,0,0,1,1.09-2.45c1.13-.51,1.74,0,2.37.71A4,4,0,0,1,73.37,25a9.18,9.18,0,0,0,2.33,3.89c1.78,1.76,3.51,3.33,6.41,2.88A5.36,5.36,0,0,0,86.81,26.33Zm24.1,79.6a2.16,2.16,0,0,0-.53-1.75c-1.08-1.67-2.48-3.11-3.65-4.7a5.43,5.43,0,0,0-2.62-2.26c-.9-.27-1.55-1.39-2.92-.62-.59.33-1.7-.18-2,1,0,.1-.24.17-.39.2-2.54.57-4.9,1.7-7.39,2.42-.51.14-1.09.23-1.22-.43-.26-1.3-1.21-1.2-2.13-1.12a5.43,5.43,0,0,0-3.09,1.38c-.25.22-.77.44-.65.7s.59,0,.91,0,.9-.11,1,.43-.19.64-.54.76-.72.06-.71.44.48.38.8.41.56.08.58.41-.26.51-.6.53-.78,0-1,.35a3.5,3.5,0,0,0-.25.47,2.28,2.28,0,0,0,.44,0c.48,0,1.17-.58,1.35.22s-.68.64-1.14.83l-.22.07c-.26.12-.72.19-.59.56s.5.09.77,0a27.69,27.69,0,0,1,3.34-1.21c1.19-.21,1.8.28,1.91,1.5,0,.26-.29.74.09.75s.87.34,1.31-.19a8.5,8.5,0,0,1,1.72-1.5c1.13-.78,2.23-1.87,3.48-2.14a12.85,12.85,0,0,0,5.44-2.47,10.14,10.14,0,0,1,1.81-1c.13-.07.47-.17.36.15-.3.92.34.27.48.27s.62-.22.85.09-.16.51-.25.76a1.58,1.58,0,0,1-1.7,1.21c-.34,0-.88.15-1,.51s.43.62.74.76a18.41,18.41,0,0,1,2.88,1.86,13.52,13.52,0,0,0,2.63,1.61C110.66,107.76,110.91,107.63,110.91,105.93ZM62.43,34.4a20.41,20.41,0,0,1,.37,2.93c0,1.39,1.34,1.6,1.89,2.49.06.11.28.14.33-.1.17-.85.48-.16.53,0,.51,1.63,2.12,2.71,2.22,4.55,0,.58.32.73.77.2.7-.82,1.4-1.63,2.17-2.37a15.93,15.93,0,0,1,6.09-3.77c.42-.15,1-.33.86-.91s-.59-.51-1-.57A38.73,38.73,0,0,0,71,36.39a1.39,1.39,0,0,1-1.42-1c-.21-.57-.36-1.17-.53-1.75s-.24-.78-.91-.73c-.84.06-1.29-.55-1.43-1.36s-.24-1.66-.42-2.48c-.12-.53-.16-1.26-1-1.2S63.76,28,63.47,29A28.11,28.11,0,0,0,62.43,34.4Zm22.1,82.78c.06.23-.28.58,0,.67s.31-.37.4-.61a5.84,5.84,0,0,1,1-2.06c.21-.22.43-.47.79-.32a.61.61,0,0,1,.43.72c-.11.42.07.61.41.82a1.24,1.24,0,0,1,.33,2,3.54,3.54,0,0,0-.72,1.66,1.77,1.77,0,0,0,.2.63,4.5,4.5,0,0,1,.2-.51c1.43-2.63,1.37-5.53,1.52-8.39,0-.81-.11-1.31-1.09-1.3a1.24,1.24,0,0,1-1.19-1.07,1.22,1.22,0,0,1,.47-1.51,5,5,0,0,0,.75-.71c.16-.16.43-.34.31-.56s-.46-.15-.71,0a23.78,23.78,0,0,0-4,2.24,1.21,1.21,0,0,0-.5,1.67,2.31,2.31,0,0,1-.13,2.19c-1.44,2.6-2,5.5-2.84,8.32a1.89,1.89,0,0,0-.06.42c.26.07.29-.19.35-.32.68-1.58,1.58-3,2.39-4.55.25-.46.5-.77,1-.62S84.64,116.62,84.53,117.18ZM62.69,26.72a2.45,2.45,0,0,0-1.48-2.21c-.84-.28-1,.75-1.41,1.24a1.68,1.68,0,0,0-.37.83,19.13,19.13,0,0,1-1.29,4.14c-.2.62-.51,1.32-.11,1.89a12.78,12.78,0,0,1,1,2.76c.29.68.72,1.7-.69,1.87-.35,0-.21.27-.12.41a3.31,3.31,0,0,1,.35,1.54c.25,2.33.23,2.29,2.15,1.08a1.42,1.42,0,0,0,.82-1.73,18,18,0,0,1,.65-9.79C62.45,28.09,62.34,27.32,62.69,26.72Zm20.1,43.53c-.17-1.68-.48-3.61-.54-5.55-.09-3.16-1.64-5.94-2.16-9,0-.13-.07-.34-.26-.3s-.09.27-.08.41C80,59.25,80,62.71,81.27,66a2.74,2.74,0,0,1,.15,2.41c-.2.37-.14,1.16.19,1.27,1,.34.55,1,.63,1.61s-.08,1,.35,1.37c.23-.39,0-.82.09-1.23S82.74,70.82,82.79,70.25Zm6.62,9.42c0,1.52,0,2.89,0,4.27a1.86,1.86,0,0,0,.08.41,2.71,2.71,0,0,0,.17-.39,25.48,25.48,0,0,0,0-13.37c-.07-.26,0-.66-.4-.68a3,3,0,0,0-.11.74C89,73.71,89.63,76.75,89.41,79.67ZM84,82.53h.12l-.75-8.32c0-.13.05-.35-.16-.34s-.19.24-.18.37c0,1.1.08,2.21.19,3.31.24,2.43.51,4.85.78,7.28,0,.14,0,.37.21.42a2.28,2.28,0,0,0,0-.44C84.19,84,84.1,83.28,84,82.53Zm-.38,36.2c0-.17.21-.38,0-.48-.08,0-.27.11-.37.21a4,4,0,0,0-.95,3.41c0,.09.1.17.15.25.07-.09.14-.17.2-.26A6.25,6.25,0,0,0,83.63,118.73Zm-17.86-93c-.07-.55-.26-.94-.85-.87s-1.05.1-1,.8c0,.4.08.92.66.84S65.67,26.39,65.77,25.74Zm55.14,54.75c-.49,0-1,.07-1.47.13a1.06,1.06,0,0,0-.35.18c.09,0,.2.14.28.12,1.46-.22,2.73.43,4.06.82a.81.81,0,0,0,.31,0,2.33,2.33,0,0,0-.17-.26A2.78,2.78,0,0,0,120.91,80.49Zm-36.65,41a.93.93,0,0,0,.21.32c.24.17.31-.06.41-.22a21,21,0,0,0,1.27-3.51.78.78,0,0,0,0-.22c-.06,0-.15,0-.17,0A24.64,24.64,0,0,0,84.26,121.52Z"/><path class="cls-4" d="M80,103.47c-.92-.38-1,.33-1.12.9a65.08,65.08,0,0,1-3.24,10.38,52.35,52.35,0,0,1-4.84,10.85,4,4,0,0,0-.56,2.73c.06.52.1,1-.65,1.21a1,1,0,0,0-.44,1.44.91.91,0,0,1,.17,1.28c-.22.42,0,.71.16,1.07,1,2.53,2.68,4.8,3.11,7.59a5,5,0,0,0,.61,1.48,60.09,60.09,0,0,1,3.17,7.54c.89,2.43,1.25,5,2,7.43,1.17,4,1.62,8.25,2.69,12.32.76,2.88.84,5.88,1.68,8.75.54,1.87,1,3.78,1.5,5.65a11.33,11.33,0,0,1,.65,3.12c0,1.7,2.34,3.83,4,3.86a7.57,7.57,0,0,1,2.67.64,2.15,2.15,0,0,0,2.42-.44c1.69-1.39,3.74-1.85,5.82-2.44,2.57-.73,3.69.73,5,2.32a5.2,5.2,0,0,0,6.35,1.69,1.64,1.64,0,0,0,.51-.26c2.07-2.28,5.11-3,7.55-4.7a4.22,4.22,0,0,1,1-.46c1.29-.41,1.92-1.18,1.61-2.48-.58-2.35-.49-4.76-.86-7.13a7.27,7.27,0,0,0-1.24-3.24,19,19,0,0,1-1.72-4.1c-.22-.57-.39-1.16-.59-1.74-.1-.29-.5-.63,0-.88s.68.12.89.37a9.33,9.33,0,0,1,1.67,2.73,1.41,1.41,0,0,0,.13.29c.21-.06.12-.24.11-.35-.68-5.4-.69-10.86-1.62-16.22-.42-2.4-1.24-4.74-1.85-7.11a10.39,10.39,0,0,1-.24-1.58c0-.26,0-.62.31-.66s.35.32.41.57a31.62,31.62,0,0,0,1,3.89c1.82,4.63,1.63,9.54,2.06,14.36.22,2.52.53,5,1,7.51a14.43,14.43,0,0,1,0,2.28,85.54,85.54,0,0,0,1.18,8.75,2.16,2.16,0,0,0,1.61,1.65,9.29,9.29,0,0,0,5.82.69,16,16,0,0,1,7.6.22,5.63,5.63,0,0,1,2.3,1.25c2,1.59,3.92,3.15,5.9,4.71a1.84,1.84,0,0,1,.6.67,1.31,1.31,0,0,0,1.84.68,7.89,7.89,0,0,1,3.24-.63c1.58-.06,2.36-1.06,3.18-2.14,2.2-2.92,2.32-6.22,1.78-9.64a18.08,18.08,0,0,0-2.33-6.19,10,10,0,0,1-1.41-6.7,41.66,41.66,0,0,0-.12-10.64c-.7-7-2.81-13.65-3.55-20.58-.6-5.55-1.84-11-2.53-16.54a43.4,43.4,0,0,1,0-8.14,21,21,0,0,0,0-5.25.59.59,0,0,1,.53-.72c.54,0,.37.44.38.75a86.66,86.66,0,0,1-.43,8.82c-.2,3.57.65,7,1.26,10.47.91,5,1.37,10.16,2.28,15.19.64,3.53,1.61,7,2.25,10.54a68.81,68.81,0,0,1,1,8c.13,2.33.33,4.56,1.66,6.55a1.32,1.32,0,0,1,.16.49c-.29.15-.35-.16-.51-.29s0-.07-.06-.1c-.31-.53-.46-1.5-1-1.41-.42.06-.14,1.09-.25,1.68a11.56,11.56,0,0,0,1.58,8.34,18.33,18.33,0,0,1,2.12,11.76c-.29,2.45-2,4-3.31,5.71-.62.8-1.91.64-2.92.81a14.48,14.48,0,0,0-2.36.46,3.09,3.09,0,0,1-3.29-.76,7.21,7.21,0,0,0-2.49-1.78c-.53-.17.13-.72-.46-1-1.56-.82-2.82-2.11-4.28-3.07-.84-.55-1.93-1.25-3-.17-.16.16-.37.05-.53,0a5.27,5.27,0,0,0-4.12-.48,11.75,11.75,0,0,1-7.08-.61c-.36-.13-.69-.39-.59.27.16,1.11-.55,1.63-1.38,2a31.69,31.69,0,0,0-3.75,2.16c-2,1.22-4,2.44-5.92,3.86a4.55,4.55,0,0,1-5.39.07,12.74,12.74,0,0,1-3.61-3,2.37,2.37,0,0,0-2.58-.8c-2.26.45-4.46,1-6.24,2.63a2.62,2.62,0,0,1-2.84.27,4.22,4.22,0,0,0-2-.56c-2.69.24-3.94-1.57-4.91-3.57a26,26,0,0,1-1.77-5.81c-.6-2.76-1.07-5.55-1.67-8.32-.35-1.59-.6-3.22-.86-4.84,0-.22,0-.23-.43-.28s-.13-.23-.14-.34a114.66,114.66,0,0,0-3.61-18.16c-.57-1.93-1.6-3.71-2.36-5.59-.69-1.72-1.74-3.31-1.92-5.22-.14-1.54-1.1-2.74-1.8-4a9.09,9.09,0,0,1-.91-7.24c.84-3,2.57-5.45,3.7-8.24,2.1-5.21,4.55-10.28,5.86-15.79a7,7,0,0,1,.53-1.27c.18-.35.23-1,.74-.88s.3.69.42,1.06Zm39.5,69a.4.4,0,0,0,.23-.45c-.08-.44-.15-.93-.65-1.1-.17-.06-.19.2-.14.33C119.05,171.65,118.94,172.17,119.46,172.46Z"/><path class="cls-4" d="M110.77,110.65a14,14,0,0,1-6.12-2.67,5,5,0,0,1-1.94-2.3c-.07-.2-.25-.45,0-.61.09,0,.35.11.48.23.59.55,1.17,1.1,1.73,1.67a10.9,10.9,0,0,0,5.27,2.64,3.45,3.45,0,0,0,3.1-1.2c.81-.77,1.76-1.3,2.55-2a71.23,71.23,0,0,0,6.74-6.38,21.79,21.79,0,0,1,2.82-2.51c1.53-1.29,2.56-3,4-4.37.46-.42.34-1.06.5-1.6.91-3.24,1.65-6.55,2.81-9.7,1.22-3.31,2.26-6.66,3.2-10a2.24,2.24,0,0,1,.87-1.55.31.31,0,0,0,.16-.39c-.49-1.59.61-2.86.87-4.29.06-.33.18-.88.69-.71s.21.6.14.92c-.48,2-.89,4.11-1.49,6.12a44.32,44.32,0,0,0-.8,5c0,.1,0,.3,0,.31.27.09.28-.17.36-.32A52.85,52.85,0,0,1,140,71.52c.3-.45.55-1.29,1.17-1s.28,1.13.14,1.62A24.74,24.74,0,0,1,139,76.72c-1.65,3-3.57,5.9-4.65,9.2-.09.26-.46.56-.13.79s.45-.21.65-.37a55.51,55.51,0,0,0,6.42-6.5c.26-.28.45-.54.84-.34s.39.65.22,1A5.78,5.78,0,0,1,141,82.12c-2.64,2.47-5.52,4.72-7.31,8a5.78,5.78,0,0,1-1.4,1.67c-2.93,2.37-5.21,5.37-7.9,8-2.49,2.42-5,4.78-7.55,7.17a17.46,17.46,0,0,1-4.83,3.45A2.24,2.24,0,0,1,110.77,110.65Zm25.26-35-.09-1.06-.37,1c-.12.37-.22.74-.34,1.1q-1.33,3.89-2.66,7.79a2.74,2.74,0,0,0-.08.43c.29,0,.23-.23.29-.37.6-1.23,1.12-2.52,1.81-3.7A12.74,12.74,0,0,0,136,75.61Zm-3.88,14.87-.44-.62c-.29.53-.6,1-.87,1.59-.08.16.09.33.24.2C131.47,91.31,132,91.08,132.15,90.48Z"/><path class="cls-4" d="M112.39,26.72h-.12c-2.82,0-2.83,0-3.25,2.8-.21,1.4-.4,2.81-.56,4.22-.11,1,.27,1.62,1.35,1.65.24,0,.49,0,.49.35s-.2.29-.38.37a1.6,1.6,0,0,1-2.36-1.5c.27-2.11.68-4.21,1.15-6.29.15-.67.38-1.2-.31-1.7a1,1,0,0,1-.41-1c.35-1.24.57-2.6,1.57-3.5a21.7,21.7,0,0,1,6.52-4.39,27.79,27.79,0,0,0,3-1.81,7.22,7.22,0,0,1,4.31-.53c1.76.14,3.48.67,5.31.14s3,.38,4.2,2.53a39.11,39.11,0,0,0,2.19,4,.9.9,0,0,1,.19.53,6.39,6.39,0,0,0,1.07,3.75c.93,1.76.08,3.24-.74,4.69a17.26,17.26,0,0,1-2.72,3.25c-.47.48-1,1-.66,1.8.13.3-.08.5-.25.71a15.58,15.58,0,0,0-2.33,4.06c-.7,1.74-1.74,1.85-3.33.8-1.32-.87-1.81-2.35-2.84-3.41-.25-.26-.09-.66,0-1a48.58,48.58,0,0,1,1.27-4.88c.45-1.24,0-1.91-1.27-2.15-.11,0-.3-.07-.33,0-.66.94-1.93.39-2.7,1.17s-1.73,1.5-1.93,2.75c0,.31-.06.79-.54.74s-.44-.58-.42-.93a9.3,9.3,0,0,0-.66-4C116,27.58,114.85,26.7,112.39,26.72Zm9.66-10.64c-.71.12-1.46-.12-2.13.34-2.51,1.74-5.35,2.93-7.78,4.82a8.45,8.45,0,0,0-3.08,3.84c-.1.27-.33.67,0,.8s.26-.39.41-.58-.1-.53.3-.33a5.61,5.61,0,0,0,3.58.73,2.9,2.9,0,0,1,2.61.84,8.51,8.51,0,0,1,2.26,4.31c.23.74.45.87,1,.36a10.91,10.91,0,0,1,2.7-1.73,2.91,2.91,0,0,1,3.2.61c.85.71.54,1.68.29,2.56s-.63,1.73-.88,2.61c-.74,2.69-.68,2.83,1.68,4.41.57.38,1.17.72,1.75,1.08.32.2.67.37.85-.1.45-1.2,1.45-2.15,1.73-3.35a11.31,11.31,0,0,1,2.83-4.76,8.58,8.58,0,0,0,2.38-4.08c.18-1-.35-1.59-.52-2.37a12.2,12.2,0,0,0-.92-3.5c-.77-1.37-1.46-2.77-2.22-4.13-.92-1.64-1.45-2.86-4.19-2a2.69,2.69,0,0,1-1,0C125.33,16.31,123.69,16.21,122.05,16.08Z"/><path class="cls-4" d="M96.46,168.94c.44.07.44-.79.6-1.23.21-.6-.13-1.75.72-1.45s.4,1.24.25,1.93a.74.74,0,0,1-.07.21c-.36.72-.19,1.73-.84,2.22s-1.33-.57-2-.61a12.34,12.34,0,0,1-4.78-1.51c-.25-.13-.71-.24-.57-.59s.6-.12.88,0A17.11,17.11,0,0,0,94.79,169c.26-.16-.61-1.34-.7-1.54a44.36,44.36,0,0,0-2.78-5c-1.16-2-2.08-3.35-2.49-4.15a57.82,57.82,0,0,0-3.31-5.49c-2.16-3.47-4.27-7-6.21-10.58-.89-1.65-1.93-3.21-2.92-4.8-.16-.26-.39-.51-.34-.83s-.46-.9-.16-1c.47-.19.79.38,1,.74,1.48,2.47,2.92,4.94,4.37,7.42.95,1.62,2,3.25,2.9,4.79,1.57,2.56,2.56,4.46,4,6.56a124,124,0,0,1,6.45,11C94.76,166.29,96,168.87,96.46,168.94Z"/><path class="cls-4" d="M149.08,79.12a36.09,36.09,0,0,1-.91,7.4c-.71,3.61-.68,7.31-1.28,10.93-.12.69-.07,2-.57,1.88-.91-.18-.26-1.23-.19-1.85.64-5.23,1-10.51,1.91-15.71a8.76,8.76,0,0,0-.72-5.7c-1.17-2.25-1.33-4.77-1.8-7.19a63,63,0,0,0-2.62-9.5c-1.71-4.7-3.71-9.29-7.05-13.15a3.84,3.84,0,0,0-1-.76,5.89,5.89,0,0,1-1.1-.81c-.32-.31-.8-.88-.53-1.15.49-.47.69.34,1,.56,1.18.82,2.48,1.46,3.27,2.79,1.76,3,3.88,5.7,5,9.08,1.19,3.54,2.63,7,3.47,10.65a38.28,38.28,0,0,1,1.17,5.61c.14,1.71,1.08,3.18,1.55,4.8A6,6,0,0,1,149.08,79.12Z"/><path class="cls-4" d="M72.87,146.62c-.73,4.8-.45,9.47-1.78,14a41.54,41.54,0,0,0-1.55,9,6.6,6.6,0,0,1-1.63,4.32,2.77,2.77,0,0,0-.65,1.33c-.06.21,0,.55-.32.62a2.88,2.88,0,0,1,0-.78,6.88,6.88,0,0,1,.84-1.75,9.6,9.6,0,0,0,1.58-5.66c0-.19.14-.5-.18-.55-.08,0-.25.25-.31.42-.21.58-.41,1.16-.56,1.75a44.76,44.76,0,0,1-1.8,5.54c-.74,1.86-.14,3.32,1.51,4.46A8.41,8.41,0,0,0,74,181c2-.23,3.34,1.29,4.81,2.36.15.1.12.27,0,.4a.42.42,0,0,1-.53.07c-2.18-1.78-4.84-1.77-7.43-2.21-1.59-.27-3-1.42-4.31-2.33a3.77,3.77,0,0,1-1.08-3.76c1.29-3.68,2.64-7.34,3.88-11a44.69,44.69,0,0,0,1.39-8.14c.38-2.72.86-5.44,1.26-8.16.16-1.11.55-2.24,0-3.36-.1-.21-.12-.53.14-.59s.32.27.37.48C72.64,145.42,72.77,146.14,72.87,146.62Z"/><path class="cls-4" d="M115,58.42c-.57-2.4-.68-4.9-1.41-7.28A14.92,14.92,0,0,0,111.63,47c-.13-.18-.38-.35-.11-.57a.46.46,0,0,1,.62.1A4.7,4.7,0,0,1,113.22,48a17.34,17.34,0,0,1,1.1,3,70.24,70.24,0,0,1,1.7,8.5c.13,1.32,1,2.36,1.43,3.6.21.65.58.26.78-.09a11,11,0,0,0,1-2.91,21.13,21.13,0,0,1,2.32-6.08c1.71-2.79,4.15-5,6.49-7.21,1.19-1.14,2.29-2.35,3.36-3.59.35-.41.11-.7,0-1s-.25-.74.2-.88.6.21.78.53c.45.83.33,1.34-.38,2.14-2.15,2.39-4.51,4.55-6.7,6.89a28,28,0,0,0-4.22,5.94,7,7,0,0,0-1,3.15c-.07,2-1.63,3.4-2.17,5.22-.07.25-.43.18-.53-.08-.7-1.94-2-3.61-2.43-5.67A8.59,8.59,0,0,1,115,58.42Z"/><path class="cls-4" d="M120.36,120c-.71-2.5-1.4-5-2.14-7.5-.35-1.17-.77-2.32-1.16-3.48-.08-.23-.37-.52,0-.65s.57.14.68.46c.55,1.51,1.14,3,1.62,4.53s.9,3.4,1.41,5.09a5.05,5.05,0,0,1,.07,2.59c-.75,3.55-1.58,7.09-2.12,10.69-.44,2.88-1.57,5.6-2.08,8.46-.59,3.36-1.84,6.56-2.3,9.94a6.35,6.35,0,0,1-.19.78c-.06.18-.12.43-.36.36s-.14-.31-.11-.49c.37-1.95.62-3.92,1.11-5.86,1.33-5.26,2.67-10.52,3.71-15.86.46-2.32,1-4.64,1.45-7C120.14,121.45,120.2,120.77,120.36,120Z"/><path class="cls-4" d="M117.24,44c-1.67.81-3.2,0-4.79-.29a1.37,1.37,0,0,1-1.13-1c-.69-1.52-.77-3.19-1.3-4.75-.08-.22-.11-.48.19-.56s.35.1.43.29a4.83,4.83,0,0,1,.38,1A6.94,6.94,0,0,0,114.39,43a3.87,3.87,0,0,0,2,.35,7,7,0,0,1,.92,0c.3.06.83,0,.79.42S117.55,44.07,117.24,44Z"/><path class="cls-4" d="M125,107.12c-.62-.07-1.57.22-2.4-.35-.24-.17-.65-.3-.46-.68s.44,0,.67,0a13.9,13.9,0,0,0,8.42-.89,7.78,7.78,0,0,1,4.71-.41,6.57,6.57,0,0,0,3.17.25c.14,0,.35-.1.39.09s-.16.24-.29.32a1.72,1.72,0,0,1-1.33.15,14.64,14.64,0,0,0-8.64,1A9.71,9.71,0,0,1,125,107.12Z"/><path class="cls-4" d="M122.25,34.43c0,.34,0,.69,0,1,0,.12.1.31.2.34s.26-.11.31-.26,0-.43.23-.41c.06,0,.18.35.13.49A29.75,29.75,0,0,1,122,38.49a.68.68,0,0,1-1,.22c-.37-.32.16-.48.3-.71a1.64,1.64,0,0,0,.21-1c0-.8-.07-1.6-.1-2.4,0-.25.25-.63,0-.73s-.27.31-.4.51-.53.38-.71,0a.91.91,0,0,1,.2-1.07c.36-.37.72-.86,1.33-.74.45.09.5.53.53.91s0,.61,0,.92Z"/><path class="cls-4" d="M114.22,72.19a2.89,2.89,0,0,1-2.75-2.55c0-.64.24-.87.83-.57.85.43,1.68.9,2.54,1.32.56.28.25.68.23,1.07C115,72.15,114.53,72.08,114.22,72.19Z"/><path class="cls-4" d="M70.41,24.61l0-.05a3.49,3.49,0,0,1,2.16,3.1c0,.49,0,1-.06,1.48,0,.27,0,.57-.37.61a.52.52,0,0,1-.59-.44C71.58,27.64,70.2,26.32,70.41,24.61Z"/><path class="cls-4" d="M141.92,104.63c-.27,0-.77.15-.83-.29s.46-.34.75-.43l.12,0c2.17-.38,2.18-.38,2.63-2.52,0-.26.1-.53.16-.79s.11-.67.54-.55.33.44.22.75a3.28,3.28,0,0,0-.19.66C145,104.1,144.55,104.57,141.92,104.63Z"/><path class="cls-4" d="M116.52,45.76a30.58,30.58,0,0,1-.72,5c-.08.33-.13.8-.59.66s-.24-.56-.11-.87c.67-1.54.18-3.26.77-4.82.14-.36-.06-1,.51-.95S116.45,45.44,116.52,45.76Z"/><path class="cls-4" d="M125.56,183.17c0,.27,0,.62-.15.52-.47-.32-.78-.85-1.38-1,.31-.2.61-.59.91-.59C125.7,182.1,125.29,182.89,125.56,183.17Z"/><path class="cls-4" d="M159,175.21c-.6-.75-.42-1.74-.78-2.57a.39.39,0,0,1,.06-.29c.2,0,.22.18.25.32a8.25,8.25,0,0,1,.46,2.55Z"/><path class="cls-4" d="M76.5,181.31c-2.79-.81-5.22-.7-7.51-1.47-1.14-.37-2.26-1-3.42-1.47a13.79,13.79,0,0,0-3.59-1,5.69,5.69,0,0,1-3-1.36,4.73,4.73,0,0,1-1-1.42,12.49,12.49,0,0,1-.51-1.49,16.38,16.38,0,0,1-.26-6c.47-4,1.74-7.57,2.26-11.34a67.47,67.47,0,0,0,1.65-8.86,39.7,39.7,0,0,0,.36-4.57c0-1.54-.11-3-.08-4.45a10.17,10.17,0,0,1,.18-1.94,8,8,0,0,1,.65-1.65,29.83,29.83,0,0,1,2.29-3.51,55.64,55.64,0,0,0,4.9-8.06c.81-1.66,1.49-3.39,2.12-5s1.26-3.2,1.93-4.75a31.09,31.09,0,0,1,4.75-8.3c.26-.31.76-.66.55-.9.25-.22-.08-.5.19-.67.59-.45.14-1.63-.68-1,.72-.56-3.44,5.66-3.46,5.7-1.14,2.12-2.39,4.34-3.34,6.58s-1.83,4.51-2.92,6.76a43.22,43.22,0,0,1-3.22,6.42,54.7,54.7,0,0,0-4.1,6.18,8.3,8.3,0,0,0-.65,1.79,10.4,10.4,0,0,0-.2,1.9c0,1.26,0,2.51.12,3.72a26.43,26.43,0,0,1,0,3.56c-.06,1.21-.14,2.42-.25,3.62-.21,2.39-.79,4.77-1.17,7.13-.18.71-.08,1.42-.26,2.12l-.58,2.05c-.33,1.14-.72,2.41-1.14,4.32a26.34,26.34,0,0,0-.62,4.73c0,1.66-.47,3.43.13,5.19.22.55-.19,1,.16,1.68a5.88,5.88,0,0,0,1.42,1.72,5.69,5.69,0,0,0,1.88,1,11.6,11.6,0,0,0,1.61.39,13.12,13.12,0,0,1,3.29,1,32.71,32.71,0,0,0,3.59,1.58c2.63.83,5.1.65,7.7,1.37C77.35,182.9,77.65,181.69,76.5,181.31Z"/></g></svg>