<svg xmlns="http://www.w3.org/2000/svg" viewBox="0 0 200 200"><defs><style>.cls-1{fill:#878787;}.cls-2{fill:#e94e1b;}.cls-3{fill:#ffed00;}.cls-4{fill:#3c3c3b;}</style></defs><g id="color"><path class="cls-1" d="M92.1,26.75a12.38,12.38,0,0,0-6.41-4.37,6.7,6.7,0,0,0-4.17-.57A3.89,3.89,0,0,0,81,22a2.47,2.47,0,0,0-.38-.05l-1.06,0a1.9,1.9,0,0,0-1,.22,1.82,1.82,0,0,0-.8.52l-.39.5a2.27,2.27,0,0,0-.21.45c-.16.12-.32.22-.48.35-2.4,2.14-2.3,5.79-2.62,8.73-.25,2.29-.52,4.89.88,6.71q-.18,1.47-.3,3a2.16,2.16,0,0,0,.18,1,.54.54,0,0,0-.07.13c-.59,2.63-3.55,3.49-5.37,5.1a8,8,0,0,0-2.1,3.23l-.23-.12a2.52,2.52,0,0,0-1.62-.09l-.16,0a10.64,10.64,0,0,0-5.53,1.43,9.36,9.36,0,0,1-1.79.44,2.87,2.87,0,0,0-1.5,1.15,1.85,1.85,0,0,0-.29.93,1.73,1.73,0,0,0,0,.6,11.27,11.27,0,0,0-2,4.06c-1.91,2.81-2.37,6-2.55,9.38L50.26,94.82,50.14,97a2.58,2.58,0,0,0-1.49,2.21,27.13,27.13,0,0,0-.09,2.85,11,11,0,0,0,1.29,7.81,2.11,2.11,0,0,0,.2.29q1,4.92,2.22,9.79a2.45,2.45,0,0,0-.36,1.2,47.18,47.18,0,0,0,.75,9.49,2.74,2.74,0,0,0,.22.63c.07,1.22.15,2.43.22,3.64a2.41,2.41,0,0,0-.24,1.07c0,2.12,0,4.23,0,6.34,0,1.25,0,2.5,0,3.75a3,3,0,0,0,0,.31,1.52,1.52,0,0,0-.23.44,15.45,15.45,0,0,0-.74,4c-.08.45-.17.9-.25,1.35-2.19,4.51-4.33,9-6.37,13.61-.86,1.91-2.54,4.47-1.72,6.65a3.1,3.1,0,0,0,2.07,1.84c.94.28,2,.08,2.93.51a2.78,2.78,0,0,0,2.93.95,1.26,1.26,0,0,0,.92-1.2,35.89,35.89,0,0,1-.31-4.73,1.16,1.16,0,0,0,.18-.33c.93-3,1.75-5.94,2.5-8.94.38-1,.77-2,1.14-2.93a1.13,1.13,0,0,0,.39-.54l1.17-3.56a39.33,39.33,0,0,0,3.63-7.18,1.18,1.18,0,0,0,.37-.42l2.88-5.52c.72-1.38,2.08-3.25,1-4.8l-.08-.09a21.41,21.41,0,0,0,1.52-3c.5-1,1-1.95,1.42-3a2.12,2.12,0,0,0,.45-1.25A1.25,1.25,0,0,0,67.66,127a1.22,1.22,0,0,0-1.27.71,1.41,1.41,0,0,0-.78.59l-.18.28a10.92,10.92,0,0,0-3.14,1.63,2.49,2.49,0,0,0-1.26.64,4.11,4.11,0,0,1-2.27,1,1,1,0,0,0-.23.06c0-.12,0-.24,0-.36A15.18,15.18,0,0,1,61,124.06l.21-.09h0a28.43,28.43,0,0,1,3.72-1.46,6.37,6.37,0,0,0,3-2.73,4.74,4.74,0,0,0,.52-1.49,5.72,5.72,0,0,0,1.86.54,5.93,5.93,0,0,0,1.46,0l.1.07a2.43,2.43,0,0,0,1.26.34,2.47,2.47,0,0,0,1.27-.34l.61-.26a2.87,2.87,0,0,0,1.15-1.5,1.85,1.85,0,0,0,0-1,1.48,1.48,0,0,0-.07-.42,5.35,5.35,0,0,0,.5-2,2.52,2.52,0,0,0-3.17-2.42c-1.89.7-3.42-.2-4.64-1.58-.06-.71-.08-1.41-.14-2.06a24.84,24.84,0,0,0-1.72-7c-.15-.38-.3-.78-.46-1.17a2,2,0,0,0,.07-.71L65.36,82a70.63,70.63,0,0,0-.6-11.54c.23-1.11.41-2.23.55-3.36a2,2,0,0,0,.33-.51c.09-.2.16-.4.25-.6h0a0,0,0,0,0,0,0A24.29,24.29,0,0,0,67.82,57a16.85,16.85,0,0,1,.72-2.36,2.12,2.12,0,0,0-.25-1.87,11.35,11.35,0,0,1,.56-1.4,7.37,7.37,0,0,1,2.78-2.87,13.46,13.46,0,0,0,3.49-2.84.55.55,0,0,0,.59,0l1.21-.85a2.29,2.29,0,0,0,2-.68,13.49,13.49,0,0,1,2.93-2.37,8.86,8.86,0,0,0,5-2.85,2.58,2.58,0,0,0,2.16-1.11,3.31,3.31,0,0,0,1.19-1.75,6.12,6.12,0,0,0-.37-3.33c-.12-.44-.25-.87-.38-1.3a4.56,4.56,0,0,0,2.58-2.18A2.5,2.5,0,0,0,92.1,26.75Z"/><path class="cls-1" d="M122.91,105.5a2.45,2.45,0,0,0-.18-.64l-.09-.23,0-.26a2.44,2.44,0,0,0-.64-1.11l-.57-.53a2.05,2.05,0,0,0-.81-.52,2.32,2.32,0,0,0-1.93,0,2,2,0,0,0-.8.52l-.39.51a2.43,2.43,0,0,0-.34,1.26l.09.66a2.53,2.53,0,0,0,.64,1.11s0,0,.05,0a1.09,1.09,0,0,1,.08.15.65.65,0,0,1,0,.13c0,.06,0,.13,0,.19a2,2,0,0,0,.21,1,2.05,2.05,0,0,0,.52.81,1.93,1.93,0,0,0,.81.51,1.84,1.84,0,0,0,1,.22l.66-.09a2.63,2.63,0,0,0,1.11-.64l.39-.51a2.53,2.53,0,0,0,.34-1.26A5.59,5.59,0,0,0,122.91,105.5Z"/></g><g id="destacado"><path class="cls-2" d="M74.21,127.73c-.49-1.53-.17-2.11-.65-3.64.15-.12.06-1.17.2-1.3.47-.4.17-1.17.17-1.77a2.51,2.51,0,0,0-2.5-2.5l-.66.09a2.5,2.5,0,0,0-1.11.65l-.71.57A25,25,0,0,1,65.6,122a2.58,2.58,0,0,0-1.15,1.5s0,0,0,0h0a2.41,2.41,0,0,0-1.1.64c-.12.11-.24.2-.36.3a10.19,10.19,0,0,1-2.05,1.18,1.83,1.83,0,0,0-.7.65,1.89,1.89,0,0,0-.45.85,1.86,1.86,0,0,0,0,1,1.9,1.9,0,0,0,.3.93,2.5,2.5,0,0,0,1.5,1.15l.66.09a2.43,2.43,0,0,0,1.26-.34,10.08,10.08,0,0,0,1.56-.82,14.6,14.6,0,0,0,1.87-1.45,1.83,1.83,0,0,0,.51-.8,1.34,1.34,0,0,0,.14-.38,3.47,3.47,0,0,0,.61-.23c.87-.46,1.54.32,2.35-.23.39,1.21.94,1.12,1.33,2.33a1.25,1.25,0,1,0,2.41-.66Z"/><ellipse class="cls-3" cx="84.36" cy="180.2" rx="8.49" ry="2.47"/><path class="cls-3" d="M148.65,184.63h0a3.31,3.31,0,0,0-.22-1.43,4.9,4.9,0,0,0-1-1.66l-.21-.21a2.38,2.38,0,0,0-1.5-2.09,44.21,44.21,0,0,0-11-3.7,34.48,34.48,0,0,0-12.18-1.3,25.38,25.38,0,0,0-4.1-.32c-4.69,0-8.49,1.11-8.49,2.47s3.8,2.47,8.49,2.47h.78c.17,0,.35.07.52.12l.64.15.12,0h0l1.17.32c.78.23,1.54.48,2.29.77.38.14.74.29,1.11.45l.08,0c.19.1.39.19.58.3a10.63,10.63,0,0,1,.93.53l.31.19c.13.09.26.18.38.28a10.42,10.42,0,0,1,.82.67.62.62,0,0,1-.15.18,5.94,5.94,0,0,1-.95.72l-2,1.36c-1.44.58-2.3,1.3-2.3,2.07,0,2,5.47,3.56,12.22,3.56A27.56,27.56,0,0,0,145.2,189l.34.16c.31.12.71.27,1,0A5.05,5.05,0,0,0,148.65,184.63Z"/></g><g id="Capa_3" data-name="Capa 3"><path class="cls-4" d="M95.22,33.58c-1.09,1.92-.63,2.43-1.83,4.56-.76,1.35-1.55,2.68-.55,4.28.23.38.39,1-.24,1.23s-.67-.44-.87-.81a8.87,8.87,0,0,1-1-1.73c-.88-2.89-2.25-1.71-3.66-.48a7.59,7.59,0,0,1-4.76,2c-2,.09-3.07,1.78-4.67,2.56s-3.23,2.12-5,2.8c-3.29,1.25-3.41,4-3.8,6.8-.51,3.5-.68,7-1.93,10.43a25,25,0,0,0-1,13.48,13.23,13.23,0,0,1,.41,3.52c-.42,5.36.57,10.58,1.37,15.83.17,1.12.17,2.28.33,3.4.1.7-.62,1.78,1,1.88.66,0,.3,1,.32,1.63,0,1.59-.67,3.56.91,4.55,1.91,1.19,4.14.74,6.24.06.67-.21,1.73-1.5,1.86.51a1.89,1.89,0,0,0,.69.09c.9-.06,1.81-.43,1.87-1.34.2-2.82,1-5.55,1.17-8.32.43-7,1.77-13.9,2-20.88.19-7.51,2.06-8.69,2.26-16.16,0-.64.44-1.47,1.13-1.39s.45.91.35,1.44c-1.5,7.38-2,8.91-2.71,16.47-.33,3.79-.89,7.59-1.1,11.39-.35,6.38-1.51,12.66-2,19a2.63,2.63,0,0,1-2.53,2.44c-1.57.16-1.62,1.08-1.67,2.13-.1,2.14-.76,4-2.73,5.07-.65.37-.64.93-.57,1.6.33,2.87.64,5.76.88,8.64.1,1.22-.18,2.36-1.66,2.57s-1.36-1.06-1.65-1.92c-1.52-4.46-1.47-4.38-5.62-2.24-2.14,1.1-4,2.8-6.41,3.32-1.4.3-3,.54-2-1.9a.65.65,0,0,0,.06-.38c-.17-.78-1.54-1.46-.55-2.29,1.84-1.53,3.13-3.7,5.39-4.74a13.78,13.78,0,0,0,2.6-1.22c1.43-1.07,3-2.23-.25-3.16-1.34-.38-1.19-2-1.22-3.11-.07-2.68-.49-4.59-3.93-4.78-2.52-.13-4.73-2-7.48-2-1.08,0-1.62-1.66-1.19-2.56,1.38-2.91-1.83-4.43-1.83-6.86,0-.07-.17-.15-.27-.22a4,4,0,0,0-.35.8,19.4,19.4,0,0,0,.89,9.62,46.92,46.92,0,0,1,1.47,4.91c0,.17.1.33.14.49a4.05,4.05,0,0,0,.12-.47c.19-1.43.36-2.86.55-4.29a1.55,1.55,0,0,1,.14-.29,1.66,1.66,0,0,1,.09.37c-.1,2.61-.11,5.23-.33,7.83-.13,1.45.49,2.64.81,4a2.26,2.26,0,0,1,0,.52l-.33-.38c-.07-.09-.16-.17-.24-.26a1.93,1.93,0,0,0-.14.6c.22,2,.42,4,.72,6,.6,3.88.28,7.79.28,11.69,0,3.12-.32,6.24-.16,9.39.07,1.36-1.12,2.78-1.17,4.35a2.24,2.24,0,0,1-.15.9c-.34.7.73,2.07-.43,2.05-.83,0-.56-1.54-.4-2.32a85.62,85.62,0,0,0,1.42-14.89c.11-5.5-.79-11-.94-16.42-.19-6.74-2.74-12.94-3.55-19.51a13.18,13.18,0,0,1,1.09-6.51C50.35,93.11,50.6,89,50.72,85a205.32,205.32,0,0,1,1.65-22.15c1.13-8,6-12.39,14-12,1,.06,1.68-.14,1.91-1.22.35-1.69,1.5-2.42,3.12-2.76s3.84-4.93,3-6.19c-1.58-2.44-.89-5.09-1.07-7.65a26.23,26.23,0,0,1,0-5.46c.38-2.77,2.68-4.42,4.31-6.43a1.89,1.89,0,0,1,1.43-.5c4.6.33,9.2.72,12.76,4.19a6,6,0,0,1,1.64,5c-.11,1.36-1.36,1.56-2.54,1.86s-.22,1.43-.46,2.14c-.16.46.13,1.28-.56,1.29s-.54-.79-.51-1.25c.09-1.32-.45-1.81-1.72-1.45-1.63.46-3.14-.31-4.65-.58-2.77-.49-4.07.65-4.63,3.16a14.11,14.11,0,0,1-.59,1.88c-.14.39-.3,1-.57,1.07-.63.17-.49-.55-.7-.89-.42-.71-1.09-1.44-1.85-1.17-.93.34-.55,1.4-.21,2,1.34,2.23.84,4.5.4,6.8a3.85,3.85,0,0,0,0,.48c.25,0,.55,0,.72-.08A17.75,17.75,0,0,0,78.38,43c1.9-2,4.85-1.1,7-2.69A33.57,33.57,0,0,0,90,36.32c.91-1,1.82-1.41,2.37.29.3.91.48.26.66,0,.83-1.24.13-.88.8-2a1.55,1.55,0,0,1,1.36-1ZM79.57,26.47c.81.81,1.43,1.69.89,2.9-.17.37-.44.94-.07,1a11.77,11.77,0,0,0,2.66.25c.07,0,.23-.42.23-.64,0-1.91-1.2-3.46-1.57-5.26-.09-.4-.74-1,0-1.2s.52.67.7,1.08l1.71,4v0c-.08.9-.48,1.91.54,2.51,1.61,1,3.24.46,4.75-.28,1-.48,1-1.48.75-2.44a5.08,5.08,0,0,1,0-.88c.53.09.25.56.39.82.23.45.45.91.68,1.37.16-.13.48-.33.46-.37-.65-1.41.36-3.26-1.54-4.42a19.12,19.12,0,0,0-9.79-2.81,3.51,3.51,0,0,0-3,1.86c-1.23,2.36-2.61,4.74-2.67,7.54,0,.76,0,1.52-.08,2.27a5,5,0,0,0,.5-1.86c-.2-1.14,1.4-.24,1.2-1.21,1,.13.39.93.53,1.4s.29,1.3.88,1.3.75-.8.6-1.26c-.58-1.78.18-3.59-.24-5.35-.2-.85.17-1.84.77-2s.81,1,.9,1.69c-1.92,1,.33,2.27-.26,3.36,0,0,.18.15.27.23a20.53,20.53,0,0,0,.29-2.19A5.52,5.52,0,0,0,79.57,26.47ZM67.82,54.9V52.67c0-.22-.12-.61-.27-.23-1.47,3.59-.56-.23-.85-.28s-.41-.3-.56-.26c-3.19.78-6.84,0-9.18,3.5a27,27,0,0,0-4,11.42A145.34,145.34,0,0,0,51.89,82c-.2,5-.25,10-1.23,14.87a7.63,7.63,0,0,0,.59,3.72c.37,1.1,1,1.36,2.33.6,1.67-1,3.06-2.49,5.16-2.83s4.08-1,6.12-1.53c.4-.1.75-.24.79-.75.11-1.56,0-3.15,0-4.69a82.41,82.41,0,0,0-.55-9.29,72.48,72.48,0,0,1,0-18.38c.2-1.3.42-2.6.64-3.9,0,1.43,0,2.87.05,4.31,0,.2,0,.41,0,.62.12-.17.25-.33.35-.5C67.81,61.35,67.53,58.06,67.82,54.9Zm4.82,63.57a1.89,1.89,0,0,0,2.18-1.17,15.19,15.19,0,0,0,.7-2.77c.15-.75.81-1.52-.21-2.23a2,2,0,0,0-2.63.09c-1,.77-2.48,1.23-3,.09-.65-1.43-1.9-2.69-1.77-4.49a14,14,0,0,0-.33-3.14c-.14-.8-.74-.84-1.42-.74s-.66.58-.79,1.19a37.5,37.5,0,0,0-.21,4.32C64.54,114.91,67.28,118.32,72.64,118.47ZM73.55,129c-.23-2.79-.43-5.24-.61-7.69,0-.54-.2-1.11-.79-1-1.12.22-2.49-1.29-3.27,0-2,3.33-5.72,4.46-8.49,6.79-.3.26-1,.38-.67.91s.86.28,1.27,0,1.3-1,1.71-.29c.68,1.18,1.34.52,2,.23s1.36-.8,2.08-1.14c5-2.4,4.25-2,6.11,2,.11.24.09.71.54.56C73.57,129.26,73.57,128.86,73.55,129Zm-7.07-27.21c.18-3.55-.74-4.25-3.84-3.06A31,31,0,0,0,58,100.5c-2.19,1.31-5.2,1.88-5.45,5.24a3.71,3.71,0,0,0,.19,1c.29-.14.67-.21.86-.43,3-3.75,7-4.46,11.51-3.65C66.08,102.79,67,103.2,66.48,101.74Zm-3.3,7.13c-.31-.56.14-2.1-.86-1.88-2.45.56-4.64-.06-6.91-.69-.59-.16-.93.4-1.27.79,0,0,.09.38.14.38,2.53-.14,4.47,2.35,7.13,1.62.66-.17.79,0,.6.15-1,.75-.09.61.3.69C63.07,110.08,63.21,109.61,63.18,108.87Zm28.33-71.5c-.52.06-.49.46-.47.79s-.12,1.09.49,1.15c.21,0,.58-.6.7-1C92.4,37.78,91.78,37.69,91.51,37.37ZM76.79,34.23c-.08-.45-.26-.71-.62-.59-.2.06-.51.42-.47.5a3.53,3.53,0,0,0,.62.72Z"/><path class="cls-4" d="M134.82,191.06a90.39,90.39,0,0,0-17.55.9,6.71,6.71,0,0,1-4.59-.76c-1.79-1.12-3.92-1.18-5.87-1.24-3.38-.09-6.38-2.1-9.92-1.45-5.66,1-11.45.6-17.18.78A1.54,1.54,0,0,1,78.06,188c-.52-3.86-3.14-4.91-6.52-5.41-5.64-.84-11-2.85-16.8-3.19-2-.11-2.38-2.58-2.84-4.33a20.71,20.71,0,0,1-.28-3.27c0-.44.47-.91-.09-1.3-.27.39.41-1,1.24-3.88A112.55,112.55,0,0,1,61,146c2.48-4.83,3.64-10.15,6.16-14.93.2-.39.27-1.17.88-.9s.25,1,0,1.41c-2.59,5.42-4,11.29-6.85,16.65a65.06,65.06,0,0,0-5.69,14.4c-.94,3.69-3.27,7-2.91,11.08.27,3.19,1.06,4.18,4.11,4.76,6.64,1.27,13.27,2.6,19.85,4.16,1.62.38,1.53,2.53,2,3.91s1.3,1.72,2.72,1.7c5.83-.06,11.65-.51,17.45-.61,4.58-.08,9.21,1.52,13.78,2.52a20,20,0,0,0,7.78.4,52,52,0,0,1,6.74-.21,6.93,6.93,0,0,0,1.61-.45c-.47,0-.94,0-1.41,0a2.77,2.77,0,0,1-.48-.11,1.33,1.33,0,0,1,.26-.21c.31-.17.92,0,.83-.54,0-.12-.79-.25-1.19-.19-2.61.39-2.5-1.13-2-2.87a2.27,2.27,0,0,1,.42-.62,1.72,1.72,0,0,1,.18.68c-.21,1.47.36,2.08,1.89,2a4.16,4.16,0,0,1,2,.63c5.61,3,11.12,1.49,16.49-.56,2.28-.87,3.52-6.09,2.39-9.22-1.71-4.71-3.6-9.38-4.62-14.28-1.2-5.81-1.89-11.72-3.16-17.5-1.09-5-2.05-10-4.49-14.6-2.11-3.94-3.62-8.24-6.42-11.76-3.18-4-5.79-8.51-10.17-11.45a5.13,5.13,0,0,1-1.43-2.17c-.62-1.15-.63-2.72-2.4-3.1a2,2,0,0,1-1.15-1.47c-.91-5-.65-10.25-2.27-15.2-1.5-4.58.87-8.81,1.53-13.18.49-3.25,1.29-6.44,1.9-9.67.14-.77.26-1.49,1.05-1.81a4.51,4.51,0,0,1,1.11-.16,3.76,3.76,0,0,1,.11,1A46.92,46.92,0,0,1,115.51,72c-2.41,6.71-1.36,13.23-.72,19.88.15,1.58.4,3.11-.4,4.74-.36.74.68,2,.73,3.12.1,1.87-.17,3,2.65,2s5.87-.72,8.85-.89c1.06-.06,1.35-.52,1.4-1.46.24-3.84.11-7.77.88-11.51,1.11-5.46.74-10.89.27-16.26-.68-8-4.54-14.53-10.44-19.94-2-1.83-2.49-4.47-3-7-.08-.38,0-.72.41-.85a.62.62,0,0,1,.85.42c.35.93,1,1.9,1,2.82-.2,2.88,2,4.13,3.58,5.85.11.12.35.1.53.15a2.41,2.41,0,0,0-.18-.47c-.15-.21-.42-.38-.49-.61a9.46,9.46,0,0,1-.29-1.5.81.81,0,0,1,.32-.11,4.48,4.48,0,0,1,.66,1.26c.71,3.54,3.89,5.63,5.15,8.84,1.66,4.21,3.19,8.46,3.36,13.05a118.38,118.38,0,0,1-1.45,24.94,6,6,0,0,0,.34,3.52c.52,1.23-1.45,1.78-2.15,2.79a1.37,1.37,0,0,1-2,.4c-1.33-1.08-1.61-.15-2,.86-1.43,3.9.8,6.67,3.08,9.25A67.87,67.87,0,0,1,138,134.9c1.63,4,2.45,8.34,3.46,12.59,1.8,7.56,2.12,15.35,4.83,22.82,1.59,4.37,4.52,8.94,2.82,14.17-.83,2.56-1.92,4.79-4.88,5.43A35.92,35.92,0,0,1,134.82,191.06Zm-15.35-88c-.71.2-2.21-.13-1.88.73.73,1.87.84,4.66,3.18,5,.78.12.7-2.84.86-4.4C121.81,102.72,120.29,103.4,119.47,103.1Zm-6.83-17.62c.15.56-.34,1.53.32,2.33.08-1,.15-1.9.22-2.85a2.6,2.6,0,0,0,0-.26c-.07-1.07-.13-2.14-.19-3.21C112.31,82.66,112.43,83.91,112.64,85.48Z"/><path class="cls-4" d="M95.23,33.59c-1.51-3.56-2-9.59-.91-12.77,1.86-5.5,7.72-7.4,13.43-7.93,3.39-.32,7.11,2.48,8.78,5.46.93,1.67,1.88,3.34,1.87,5.34,0,.43.21.95-.35,1.13s-.7-.23-.83-.64-.51-.56-.93-.34c-2.42,1.24-5.1,0-7.33,1.62-1.78,1.3-2.58,3.35-3.86,5-.2.26-.34.73-.78.51-.11-.06,0-.55,0-.84a4.67,4.67,0,0,0,0-1.29c-.06-.28-.4-.5-.62-.76a4.29,4.29,0,0,1-.08.73c-.1.4-.15,1-.42,1.13s-.47-.39-.66-.67c-.43-.62-.9-.54-1.39-.09a4.13,4.13,0,0,0-.35,5.87c.11.13.23.42.16.51a.86.86,0,0,1-.55.33,1.56,1.56,0,0,1-1.39-.76c-.41-.5-.37-1.63-1.56-.46-.83.81-1.5-.75-2.3-1.13ZM109.65,15c-2.77-.77-9.7-.78-11.42,3-.59,1.32-1.84,2.21-2.48,3.6-1,2.13.28,4.44,1,7.07a2.1,2.1,0,0,1-.09.77c-.11,0-.27,0-.31-.05-.81-1.18-.69.25-.67.31.23,1.16-.1,2.45.66,3.49.24.33.67.84,1,.25a9,9,0,0,0,1-2.6c.29-1.38,1.63-2.27,1.63-3.75,1.43.58,3.13-.66,4.33.35,1.68,1.38,2.06,0,2.44-1,.55-1.42,1.57-1.79,2.71-2.33,2.06-1,4.34-.11,6.46-1,.57-.23,1-.47.92-1.17C116.67,19.55,112.52,16,109.65,15Z"/><path class="cls-4" d="M115.8,155.4c.47,4.06,2.48,7.8,5.19,11.2,3.38,4.23,4.7,9.33,6.05,14.41a1,1,0,0,1-.38,1.27c-.13-.4-.26-.79-.4-1.18-1.63-4.83-2.53-10-6-14-3.7-4.32-5-9.7-6.42-15-.62-2.26-1.66-4.41-2.41-6.64-1.06-3.19-3.64-4.58-6.48-5.7-.61-.25-1.5-.52-1.19-1.26.19-.46.7.42,1.18.54,7.17,1.8,8,8.31,10,13.82C115.23,153.61,116.17,154.06,115.8,155.4Z"/><path class="cls-4" d="M73.4,64.32l.35-1.51c.68.82,1.84,1.26,2.14,2.36,1.41,5.14,4.32,9.76,5.29,15a4.27,4.27,0,0,0,1.44,2.6c.25.21.67.49.36.85s-.7,0-1-.26c-1.67-1.3-1.92-3.31-2.4-5.14a17.57,17.57,0,0,0-4.53-8.45C73.4,68.22,73.85,66.19,73.4,64.32Zm3,5a9.82,9.82,0,0,1-1.49-3.81s-.2-.06-.31-.1a19,19,0,0,0,.4,3c.13.47.74.81,1.15,1.19C76.16,69.51,76.3,69.37,76.41,69.27Z"/><path class="cls-4" d="M87.84,93.51c-.35,0-1,.09-1.73.19-.35,0-.74.79-1-.07a.73.73,0,0,1,.76-1,41.25,41.25,0,0,1,4.72-.05c5.4.49,10.37,2.48,15.47,4a7,7,0,0,0,5.19-.79c.42-.2,1-.62,1.29-.09s-.41.82-.83,1.08c-3,1.93-6,1-9,0A47.87,47.87,0,0,0,87.84,93.51Z"/><path class="cls-4" d="M92.1,77.89c1-4.43-.27-8.86-.67-13.35,0-.34-.4-.92.16-1s.55.57.63,1c.13.6.19,1.21.29,1.82L92.78,68c.53-.39.12-1,.28-1.43a2.8,2.8,0,0,1,.15-.3,1.53,1.53,0,0,1,.07.51c-.68,3.42.18,6.89-.31,10.32-.06.46-.2,1.17.31,1.28s.83-.61.88-1.1c.13-1.39.14-2.79.26-4.18,0-.24.32-.45.48-.67.15.19.44.38.43.55a45.1,45.1,0,0,1-.5,5.34c-.19,1-.7,2.52-1.91,2.35S92.55,78.9,92.1,77.89Z"/><path class="cls-4" d="M115.05,35.94c-.56,0-1.28-.16-1.33-.63-.07-.68.64-.27,1-.31.84-.09.78-.66.89-1.27.54-3,.43-3.84,1-6.82.08-.41.16-1.14.79-1s.28.81.16,1.23c-.81,2.85-.62,3.64-1,6.57C116.42,34.68,116.4,35.83,115.05,35.94Z"/><path class="cls-4" d="M93.64,86.19,93,85.91c.13-.17.21-.42.38-.5,2.9-1.4,5.24-3.64,7.93-5.36a2.4,2.4,0,0,1,1-.14c0,.21,0,.46-.06.61C100.16,83.68,96.82,84.83,93.64,86.19Z"/><path class="cls-4" d="M106.81,40.39a2.27,2.27,0,0,1,1.6.7c.79.68,1.54,1.46,2.24-.09.07-.15.47-.14.71-.2a1.82,1.82,0,0,1-.07.63c-.6,1.13-1.38,2.25-2.68,1-2-1.94.2-1.46-.77.31-.41.76-.67,2.38-1.38,2-1-.47.2-1.59.49-2.34C107.49,41,105.06,40.47,106.81,40.39Z"/><path class="cls-4" d="M72.09,79.19c.14-1.21-.22-2.34.65-2.77s1.68.5,2.41,1a4.36,4.36,0,0,1,1.92,2.88.5.5,0,0,1-.17.28,1.23,1.23,0,0,1-.54-.29,24.46,24.46,0,0,0-1.57-2.07,4.36,4.36,0,0,0-1.38-.62,6.12,6.12,0,0,0-.22,1.51c.12,1.26.36,2.51.53,3.77,0,.37.19.86-.32,1-.11,0-.48-.47-.55-.77C72.54,81.69,72.29,80.27,72.09,79.19Z"/><path class="cls-4" d="M103.21,138.81c.24,4,.5,7.95,2.1,11.7a2.07,2.07,0,0,1,.06.71c-.17-.17-.4-.31-.5-.52a23.88,23.88,0,0,1-2.35-11.93c0-.41-.13-.94.46-1.1C103.22,137.61,103.26,137.77,103.21,138.81Z"/><path class="cls-4" d="M117.65,188.57c-2.3-.86-4.61-.49-6.93-.29a1.44,1.44,0,0,1-1.57-.74c-.13-.3,0-1,.17-1.06.49-.27.3.34.43.55.41.65,1,.41,1.54.34a14.1,14.1,0,0,1,6.39.44,3.07,3.07,0,0,1,.67.5Z"/><path class="cls-4" d="M106.77,168c1,1.75.9,3.73,1,5.63a32.45,32.45,0,0,0,.58,5.48,5.84,5.84,0,0,1,0,1.11,3.14,3.14,0,0,1-.5-1c-.39-3.75-.75-7.49-1.12-11.24Z"/><path class="cls-4" d="M106.77,168a13.2,13.2,0,0,1-1.31-4.76,3.89,3.89,0,0,1,.18-1.1c.55.1.45.61.5.94.24,1.63.43,3.28.63,4.92Z"/><path class="cls-4" d="M150.61,180c-.11.85,0,1.67-.63,2.27a2,2,0,0,1,0-.48c.11-1,.23-2.09.35-3.13C150.89,179,150.38,179.63,150.61,180Z"/><path class="cls-4" d="M116,80.29c-.27.94-.15,1.92-.88,2.61a1.44,1.44,0,0,1,0-.5c.25-.88.54-1.76.81-2.65Z"/><path class="cls-4" d="M118.67,68.29l-.6,2.09c0-.2-.19-.43-.14-.59.23-.71-.1-1.56.53-2.16Z"/><path class="cls-4" d="M120.7,49.74c-.45,0-.62.13-.68.07-.54-.48-1.06-1-1.59-1.48a2.26,2.26,0,0,1,.22-.2C119.26,48.59,119.85,49.07,120.7,49.74Z"/><path class="cls-4" d="M63.38,74.83c-.27.37-.43.87-.7.93-.63.16-.43-.45-.53-.78-.88-2.74-2.82-4.65-5-6.41-.4-.32-1.2-.75-.86-1.29s1,.18,1.51.25c1.8.23,3,2.11,5,1.78.14,0,.41.41.5.66a.57.57,0,0,1-.4.83c-2.19.41-1.13,1.4-.46,2.37A15.94,15.94,0,0,1,63.38,74.83Z"/><path class="cls-4" d="M64.6,62.17c-.16.87,0,1.76-.77,1.76s-.63-.88-.59-1.38c.15-1.57-1.52-2.33-1.58-3.79,0-.48-.22-1,.4-1.22s.82.34,1,.78C63.61,59.68,64.15,61.05,64.6,62.17Z"/><path class="cls-4" d="M62.68,82.41l-.35.59c-.19-.14-.45-.24-.56-.42a17.88,17.88,0,0,0-3.1-3.72A5.66,5.66,0,0,1,58,78c.5-.1,1.15-.44,1.46-.25A8.5,8.5,0,0,1,62.68,82.41Z"/><path class="cls-4" d="M65.42,90.21l-.25.93c-.21-1-.43-1.89-.62-2.84a1.46,1.46,0,0,1,.09-.49Z"/><path class="cls-4" d="M80.12,24l1.52,3.42-.33.14c-.52-1-1-2.1-1.52-3.16C79.77,24.32,79.91,24.2,80.12,24Z"/><path class="cls-4" d="M87.49,29.56c-.07.51.07,1-.52,1.16,0,0-.24-.32-.24-.48,0-.64.1-1.29.16-1.93C87.52,28.57,87.31,29.19,87.49,29.56Z"/><path class="cls-4" d="M84.07,28.6l.28-1.17a2.33,2.33,0,0,1,.35.63c.1.54.13,1.09.2,1.63l-.84-1.11Z"/><path class="cls-4" d="M64.64,126.51c-.39-.52-.63-.75-.59-.82.29-.51.51-1.14,1.21-1.2.16,0,.51.4.49.44C65.44,125.43,65.08,125.9,64.64,126.51Z"/></g><g id="flechas"><path class="cls-3" d="M105.68,79.66c-1.41,1-5,.86-2.3-.86,17.86-5.81,19.82-3.37,31.08.75,2.38.86-1.09-2.89,1.09-3.83,1-.65,1.58.26,2,1,2.81,4.66,2.8,4.66-1,8.46-.88,1.44-2.55.74-1.68-.84s-.13-2.15-1.47-2.65C123.8,78.06,122.65,76.53,105.68,79.66Z"/></g></svg>