<svg xmlns="http://www.w3.org/2000/svg" viewBox="0 0 200 200"><defs><style>.cls-1{fill:#878787;}.cls-2{fill:#e94e1b;}.cls-3{fill:#ffed00;}.cls-4{fill:#3c3c3b;}</style></defs><g id="color"><path class="cls-1" d="M193.83,185.89a1,1,0,0,0-.15-.47l-.19-.25a1.31,1.31,0,0,0-.56-.32l-.33,0a1.29,1.29,0,0,0-.63.17l-.29.16a.33.33,0,0,0-.1-.06l-.44-.19a1.75,1.75,0,0,0-.6-.06c-.29,0-.58.05-.87.07a1.55,1.55,0,0,0-.4-.41c-.9-.59-1.8-1.21-2.68-1.84l-.89-.65-2.27-1.87a3.73,3.73,0,0,0-.75-1.31,3.86,3.86,0,0,0-1.4-1.29,4,4,0,0,0-.89-.42l-.38-.43s0-.1,0-.16q-2-9-3.4-18.09a.88.88,0,0,0-.07-.23c0-1.4-.05-2.8,0-4.2a2.34,2.34,0,0,0-.54-1.56,122.24,122.24,0,0,0-3-13.49,2.47,2.47,0,0,0-.38-.74q-1-4.63-1.77-9.33c0-.82-.09-1.64-.13-2.46a2.75,2.75,0,0,0-.36-1.26,2.17,2.17,0,0,0-.05-1.07c-.17-.52-.31-1-.47-1.58l-.06-.49a1.86,1.86,0,0,0-.22-1,1.76,1.76,0,0,0-.31-.57c-.45-1.61-.86-3.23-1.21-4.86-.07-.9-.14-1.79-.2-2.69a2.46,2.46,0,0,0,0-1.08c0-.06,0-.12,0-.19,0-.49-.07-1-.09-1.47a2.81,2.81,0,0,0-.79-1.8c-.08-.24-.15-.48-.23-.71a2.8,2.8,0,0,0-1.15-1.49,2.57,2.57,0,0,0-.93-.32,2.67,2.67,0,0,0-.55-.51,19.38,19.38,0,0,0-.54-2.28l0-.1-.36-1.64s0-.1-.05-.15a2.15,2.15,0,0,0,.15-.38,2.6,2.6,0,0,0-.25-1.93,2.77,2.77,0,0,0-.67-.7,2.32,2.32,0,0,0,.07-.38,1.88,1.88,0,0,0,.16-.39,3.44,3.44,0,0,0,.17-1,4.31,4.31,0,0,0-.11-1,4.21,4.21,0,0,0-.35-.9,1.63,1.63,0,0,0-.19-.34,4.48,4.48,0,0,0-.62-.76,4.77,4.77,0,0,0-.77-.59,3.88,3.88,0,0,0-1.94-.51,1.71,1.71,0,0,0-.6.08c-.08-.12-.17-.24-.24-.37a2.4,2.4,0,0,0-.89-.87,39.06,39.06,0,0,0-4.45-5.33,2.72,2.72,0,0,0-.7-1.85q-4.52-5.33-9.43-10.28a2.27,2.27,0,0,0-.66-.45,1.69,1.69,0,0,0-.13-.27A2.48,2.48,0,0,0,140,71.8a2.76,2.76,0,0,0-1.93.25L137,72.6c.08-.32.18-.64.25-1,.14-.13.28-.25.4-.38a6.07,6.07,0,0,0,1.05-1.52,7.31,7.31,0,0,0,.43-1.13,7.81,7.81,0,0,0,.2-1.27,1.9,1.9,0,0,0-.22-1,1.82,1.82,0,0,0-.35-.6,3.08,3.08,0,0,0,.05-1.42l-.42-2.25c-.13-.68-.22-1.38-.39-2.05a5.52,5.52,0,0,0-1.21-2.26,3.36,3.36,0,0,0-2.81-1,6.75,6.75,0,0,0-4.05-.45,8.56,8.56,0,0,0-3.08.72c-.35.08-.7.18-1,.28a2.45,2.45,0,0,0-3,.37,69.12,69.12,0,0,0-7.32,9.79,2.48,2.48,0,0,0,0,2.46,4.44,4.44,0,0,0-.22,1.5,9.36,9.36,0,0,0,.18,1.37,0,0,0,0,0,0,0,12.28,12.28,0,0,0,.3,2.26,10.75,10.75,0,0,0,1.54,3.6,3.16,3.16,0,0,0,.51.58,31.83,31.83,0,0,1-1.67,5.23,2.29,2.29,0,0,0,.09,1.58c-.11.34-.2.69-.29,1s-.15.71-.24,1.07c0,.07-.07.17-.1.27a.28.28,0,0,0-.05.08,2.47,2.47,0,0,0-.19,2.76A2.67,2.67,0,0,0,117,92.45c-.43.24-.87.47-1.32.67a14.85,14.85,0,0,1-1.71.56,2.43,2.43,0,0,0-1.29.87,10,10,0,0,1-1.32-.4l.3.12a3.32,3.32,0,0,0-1.12-.29c-.44-.28-.88-.56-1.31-.87l-.45-.32-.16-.12-.29-.23-.43-.36c-.93-.8-1.77-1.71-2.73-2.47a8.53,8.53,0,0,0-4.46-2,1.9,1.9,0,0,0-1.16.27,17.83,17.83,0,0,0-1.86-3.64l.1-.11a2.52,2.52,0,0,0,.65-1.1,1.89,1.89,0,0,0,0-1,1.85,1.85,0,0,0-.29-.93,2.67,2.67,0,0,0-.9-.9l-.06,0L96.61,80h0a5.27,5.27,0,0,0-.76-.1h-.1l-.35.05L95,80H95a2.42,2.42,0,0,0-.77.34l-.38.29-.51.07a2.5,2.5,0,0,0-1.1.64l-.39.51a2.43,2.43,0,0,0-.34,1.26v.23a1.6,1.6,0,0,0,0,.49,2.48,2.48,0,0,0,1.17,2.55c1.32.77,1.88,2.32,2.41,3.69a21.65,21.65,0,0,0,2.51,5.08,16.73,16.73,0,0,0,6.35,5.28,2.76,2.76,0,0,0,1.29.9l1,.3a1.79,1.79,0,0,0,.59.39,11,11,0,0,0,5.24.94,2.59,2.59,0,0,0,.74.38,19,19,0,0,0,4.39.84l0,.08a3,3,0,0,0,1.1,1.07,2.65,2.65,0,0,0,1.93.26,2,2,0,0,0,.85-.45,2,2,0,0,0,.64-.7c0-.1.09-.2.13-.29a2.13,2.13,0,0,0,.67.59l5,2.66c.7.37,1.41.72,2.07,1.14a1.68,1.68,0,0,1,.45.3q-.41-.31-.09-.06l.14.12.21.2c-.06,0,.13.21.22.34l0,.06a4,4,0,0,0,.32.4c0,.13,0,.26-.07.39-.06.32-.13.64-.19,1-.15.75-.31,1.51-.46,2.26a3,3,0,0,0,0,1.08l-.47,1.91a2.76,2.76,0,0,0,0,1.11c-.82.88-1.68,1.74-2.57,2.57a3,3,0,0,0-.92.55l-6.73,6,0,.06-3.54,2.31a6.94,6.94,0,0,0-1.48,1.1,3.39,3.39,0,0,0-.67,1.13,3.29,3.29,0,0,0-.88,1.26,65.67,65.67,0,0,0-4.15,18.2,1.85,1.85,0,0,0-.46.94q-.84,5.37-1.36,10.78c0,.41-.08.82-.11,1.23l-.12,1.39a1.84,1.84,0,0,0,.08.66,25.44,25.44,0,0,0,.4,4h0v0l.14,1.17a2,2,0,0,0,.21,1,1.85,1.85,0,0,0,.52.8,1.82,1.82,0,0,0,.68.46c.54.48,1.09.94,1.66,1.39a3.4,3.4,0,0,0,.25.31,20.39,20.39,0,0,0,6.42,4.18,1.83,1.83,0,0,0,.23.54,2.44,2.44,0,0,0,1.5,1.15,6.25,6.25,0,0,0,3.21-.13,5.38,5.38,0,0,0,.51-.2h.17l2.39-.5a1.94,1.94,0,0,0,.64.06q2.39-.16,4.77-.24c1,.23,2,.41,3.07.57a2.46,2.46,0,0,0,1.42.47l3.26.1a1.73,1.73,0,0,0,.22.31,6.06,6.06,0,0,1,.35.53,2.08,2.08,0,0,0-.05.36,13.81,13.81,0,0,0,.74,5.77,2.48,2.48,0,0,0,2.3,1.82,1.71,1.71,0,0,0,.39,0,2.64,2.64,0,0,0,1.06-.27,2.38,2.38,0,0,0,1-.2,2.37,2.37,0,0,0,1.82.21l5.48-2.08a2.26,2.26,0,0,0,1.41,0l.6-.15a1,1,0,0,0,.3,0c1.57-.18,3.13-.4,4.69-.64a14,14,0,0,0,4.66-.05c1.82.18,3.64.31,5.47.35a2.09,2.09,0,0,0,.56.06c.44,0,.87,0,1.3,0a37.89,37.89,0,0,0,8.17.33,2.89,2.89,0,0,0,.6.1c.64,0,1.29.11,1.94.19a32.62,32.62,0,0,1,3.24.66,2.17,2.17,0,0,0,1.24.47,23,23,0,0,0,5.37-.17,1.86,1.86,0,0,0,1.08-.8l1-.56a.78.78,0,0,0,.35-.32,1,1,0,0,0,.23-.42A1,1,0,0,0,193.83,185.89Z"/></g><g id="destacado"><path class="cls-2" d="M93.64,87.53A3.13,3.13,0,0,0,92,86.44c-.25-.07-.51-.1-.76-.18a2,2,0,0,0-1-.07,6.14,6.14,0,0,0-.12-.86,2.51,2.51,0,0,0-3.67-1.5A6.59,6.59,0,0,0,84.47,86c-.27.47-.52,1-.81,1.41a2.14,2.14,0,0,0-.71.5,13.4,13.4,0,0,1-1,1l-.17.13-.6.41a2.8,2.8,0,0,0,3.72,4.18A9.26,9.26,0,0,0,86.22,92a8.4,8.4,0,0,0,.78-.8l.25.11c1.78.68,4.1,1.68,5.81.36A2.94,2.94,0,0,0,93.64,87.53Z"/><path class="cls-2" d="M101.24,71.83a1.23,1.23,0,0,0-1.31-.45A8.92,8.92,0,0,0,95.8,74.3c-.58.69-1.11,1.42-1.63,2.15l-.75,1-.13.17-.16.19c-.16.19-.32.38-.49.56a1.25,1.25,0,0,0,1.77,1.77l.33-.3a1.11,1.11,0,0,0,.28-.43l.22-.26a1.39,1.39,0,0,0,1,.18c-.27,0,.06,0,.11,0a1.61,1.61,0,0,1,.22,0h0l.06,0,.15,0c0,.8.68,1.68,1.55,1.34a1.7,1.7,0,0,0,1.19-1.62c0-.08,0-.16,0-.25a1,1,0,0,0,.18-.22c0-.1.07-.21.11-.31h0l0-.14a5.8,5.8,0,0,0,.33-1.27l.13-.51a1.27,1.27,0,0,0,0-.72c.36-.83.71-1.67,1.07-2.51A1.28,1.28,0,0,0,101.24,71.83Z"/><ellipse class="cls-3" cx="70.57" cy="178.8" rx="10.73" ry="2.76"/><ellipse class="cls-3" cx="21.87" cy="175.53" rx="10.73" ry="2.76"/></g><g id="Capa_3" data-name="Capa 3"><path class="cls-4" d="M106.64,64.25c.26.93.59,1.84.91,2.75.73,2.12.53,6.5-1.47,7.43s-4.54-.32-4.41,2.21c0,.93-1.09,2.53-1.67,3.32-1.62,2.22-.6,3-1,5.49-.2,1.33.71,1.51,1.9,1.74,3,.56,5.69,4,8.33,5.39s4,1.53,7-.17c-2.17-1-1.67-2.69-1.46-4.43a15.22,15.22,0,0,1,1.79-5.79,8.44,8.44,0,0,0,.49-2.11c1,1.93-.46,3.45-.67,5.14a15.51,15.51,0,0,1-1,3.67c-.46,1.22,0,1.87.92,2.56s1.49-.08,2-.44a55.32,55.32,0,0,1,8.19-5.25c.32-.15.62-.34.94-.48s.53-.18.68.09A.51.51,0,0,1,128,86a5.93,5.93,0,0,1-1.38.92,22.83,22.83,0,0,0-5.32,3.13,46,46,0,0,1-7.1,4.15c-.13.07-.34.09-.39.19-.48.89-.43.74-1.51.46-2.94-.77-5.5-3.83-8.18-5.13-.89-.43-3-1.74-4.1-1.57-.57.09.08,1.31-.65,1.71,1.88,2.61,4.89,2.44,7.25,6.81-3.28-2.39-7-4-10.26-5.7.6,1.45,2.26,5.2,3.66,5.88,1.94.94,2.67,2,4.12,3.54,5.27,3,3.09.85,10.94,2.84a13.1,13.1,0,0,1,3.76,1.1.92.92,0,0,0,1.36-.15c-.34-.43-1,0-1.3-.46,0-.32.2-.41.41-.38,4.17.46,7.73-1.1,11.16-3.25a48.9,48.9,0,0,1,6.23-3.44c3.54-1.56,4.51-4.21,3.31-8.6a13.32,13.32,0,0,0-1.75-4.47c-.12-.17-.25-.35-.1-.55a.61.61,0,0,1,.7-.13,1.29,1.29,0,0,1,.82,1c.51,1.8,1.07,3.59,1.55,5.4.89,3.31-.06,5.9-3.11,7.41-4,2-7.69,4.51-11.59,6.68-2.41,1.35-5.11,1.13-7.51,2.18-.16.07-.53,0-.57,0-.82-1.76-2.56-.86-3.83-1.31a12.08,12.08,0,0,0-4.51-.23c-.45,0-1,.31-.7-.57.07-.24-.33-.35-.57-.39a12.24,12.24,0,0,1-6.57-3.28c-1.48-1.52-2-1.53-3.47-3a21.45,21.45,0,0,1-1.87-2.61c-.31-.45-.87-.67-1.34-1.42-1,1.79-1.78.11-3.23,1.09-.57.39-1-.14-1.51-.42-2.65-1.62-3.6-1.55-5.93.46-.57.5-1.09,1.06-1.69,1.53a2.66,2.66,0,0,0-1,2.41c.08,2,.08,4.05.07,6.08a6.44,6.44,0,0,1-.91,3.19,2.47,2.47,0,0,0-.56,1.39c.06.86-.47.94-1.17,1a10,10,0,0,1-4.54-1,11.09,11.09,0,0,0-5.77-.88,11.23,11.23,0,0,1-4.67-.46c-1.3-.39-2.58-1-4-.28-.42.21-.9-.07-1.26-.36a7.32,7.32,0,0,1-2.32-2.38c-.67-1.51-1.36-2.28-2.66-.54a.92.92,0,0,1-1,.3c-2.26-.66-4.72-.74-6.56-2.56-1.18-1.16-2.87-1.5-4.31-2.17A38.68,38.68,0,0,0,38.28,97a8,8,0,0,0-2.56-.76,61.56,61.56,0,0,0,.59-7.47A65,65,0,0,1,37.5,77c.34-1.63,1.63-2.39,2.69-3.36A20.4,20.4,0,0,1,42.54,72c.3-.22.69-.42.94,0s-.21.59-.44.81a4.88,4.88,0,0,1-.95.76c-3.2,1.65-4.05,4.58-4.32,7.84-.11,1.31-.25,2.63-.3,3.94-.1,2.84-.13,5.68-.24,8.52A2.11,2.11,0,0,0,38.65,96a69.26,69.26,0,0,1,10.05,5.38c1.5,1.06,3.2,1.19,4.86,1.58a1.49,1.49,0,0,0,1.53-.81,1.24,1.24,0,0,0-.08-1.68c-2.68-2.58-3.56-6.36-6.12-9a14.14,14.14,0,0,1-3-5.44c-.44-1.25-1-2.45-1.49-3.66A6.27,6.27,0,0,1,44,79.4,21.9,21.9,0,0,1,49.36,66a2.69,2.69,0,0,0,.31-.69l0,0a14.66,14.66,0,0,1,7.21-2.5,2,2,0,0,1,1.71.41.78.78,0,0,1,.25.5c0,.23-.27.2-.47.24-2.07.33-4.33,0-6.13,1.22s-3,3.19-4.3,5c-2.2,3.13-2.4,6.75-2.78,10.35C45,82,46,83,46.4,84.21c1,2.9,2,5.87,4.49,8,.51-.71-.28-2.08.58-2.14s.65,1.35,1.08,2c2.24,3.63,3,8,5.4,11.52.89,1.35,1.77,2.54,3.74,2.13a6.35,6.35,0,0,1,3.58.48,8.14,8.14,0,0,0,4,.38A12.51,12.51,0,0,1,76,107.87a11.06,11.06,0,0,0,1.11.5c2.52.73,3.45,0,3.27-2.56s-.38-5.16-.61-7.73a19.71,19.71,0,0,1,0-4.41c.21-1.62-.32-2.07-1.91-1.63a7.31,7.31,0,0,0-2.66,1.43,3.47,3.47,0,0,1-3.16.66,2.73,2.73,0,0,0-3,3.22c.08.29.18.82-.11.77-2.39-.35-1.38,1.72-1.9,2.66a6.93,6.93,0,0,0-.33,1.63c-.11.47-.12,1.16-.79,1.08-.51-.06-.49-.68-.53-1.13-.18-2.42-.19-4.8,1.14-7a2.65,2.65,0,0,0,.35-2,11.2,11.2,0,0,0-2,4.25,8.84,8.84,0,0,1-.66,3c-.22.4-.31,1.13-1,.93s-.28-.79-.22-1.22.2-1.1.32-1.64c.15-.71.59-1.39-.23-2.07-.41-.34-.11-1,.14-1.41,1.35-2.48,2.28-5.17,3.88-7.52.42-.62,0-1-.23-1.54-1.16-3.1-3-5.86-4.47-8.8-.15-.3-.76-.66-.14-1s.63.32.87.64c2.15,2.93,3.43,6.31,4.89,9.59.06.14.18.31.14.43-1.07,3.09,2,3.3,3.3,4.76.15.17.54.16.52.48-.07,1,.56.65.93.44a16.7,16.7,0,0,1,5.09-1.84c1.34-.28,1.88-1.78,3-2.43A22.32,22.32,0,0,0,83,87c.58-.41,1-.77.63-1.57s.18-1.07.66-1.36c1.94-1.14,3.74-2.76,6.28-1.88.27.09.6,0,.63-.23.08-.9,1.06-1,1.38-1.72.35-.85,1.35-.31,1.78-.79.92-1.07,1.6-1,2.56,0,1.3,1.43,2.12,1.2,2.65-.69.46-1.65.82-3.34,1.13-5,.44-2.39.44-2.39-1.5-1.64a7,7,0,0,0-3,1.87,17.88,17.88,0,0,0-3.59,6.26,1.31,1.31,0,0,1-.42-2A31.4,31.4,0,0,1,94,75.05c-2.4,1.16-4.48,0-6.62-.62-1.5-.43-3-.83-4.5-1.24l0,0c-.21-.42-1.15-.52-.76-1.11s.92.14,1.39.29a31.26,31.26,0,0,1,5.07,1.5c2.57,1.28,4.67.58,6.78-.89,1.64-1.14,2.25-1,4-1.87.59-.31,3-.89,3.62-1.19,1.68-.84,3.49.12,4-1,.72-1.56-3.25-9.32-5.25-10.25-.22-.11-.58-.09-.7-.26-1.52-2-3.69-1.74-5.81-1.74-.4,0-1,.16-1-.56,0-.55.48-.73.91-.89a1.16,1.16,0,0,1,.45-.08c3.76.13,8,2.39,9.7,5.92M82.34,94.2c1.07-1,2.11-1.89,3-2.88a2.07,2.07,0,0,1,2.15-.73,23,23,0,0,1,3.74,1.22c.48.19,1,.4,1.44,0s0-.81-.08-1.11c-.32-.89-.49-1.63.39-2.33.3-.25.34-.75-.28-.9-1.13-.28-2.24-.68-3.39-.85-2.44-.36-2.44-.31-1.31-2.65-1.06.47-2.47.64-2.56,1.72-.13,1.42-1,2-1.89,2.68s-1.68,1.31-2.49,2c-.6.5-.76,1.31-.15,1.71A4.42,4.42,0,0,1,82.34,94.2Zm19.47-23.13a11.77,11.77,0,0,1-.14,2.88c2.51.3,5.12.25,5.29-2.65.08-1.24-1.18-1.33-2.42-1S103.25,70.64,101.81,71.07ZM94.32,86.79l2.51-2c-.08-.58,1.27-2.6,1.06-3S96.61,80,95.83,80s-1.76.87-2.15,1a3.83,3.83,0,0,0-2.15,3C91.63,84.94,93.31,85.85,94.32,86.79Z"/><path class="cls-4" d="M133.76,163.71c.38-1.09.63-.08.73.09a26.26,26.26,0,0,1,2.67,6.61,34.47,34.47,0,0,0,5.18,11.74,2.16,2.16,0,0,1,.26,1.31,7.82,7.82,0,0,0,0,1.37c.57,3.16,1.05,4.16,4.56,3.35A61.35,61.35,0,0,1,167,186.75c4.38.42,8.82.15,13.21.68,2.56.31,5.1.82,7.7.95a13,13,0,0,0,3.46-.38,2.3,2.3,0,0,0,1.55-1.35c.23-.47.13-.91-.41-.88-3.14.21-4.82-2.31-7.06-3.74a41.67,41.67,0,0,1-7.34-6.34c-2.77-2.88-5.26-6.26-5-10.72.09-1.37-.54-2.74.14-4.17-.6,5.41,1.22,10,4.64,14a3.33,3.33,0,0,0,1.85,1.21c0-.08.15-.19.13-.24-1.26-2.8-1.62-5.84-2.43-8.76a52.07,52.07,0,0,1-1.33-10.54c-.41-5.8-2-11.31-3.7-16.82.36,1.86.18,3.77.64,5.6a25.41,25.41,0,0,1,.33,6.51c0,.23-.19.46-.29.69h0a81.79,81.79,0,0,0-2.25-17.92c-.85-3.82-2.22-7.58-3.21-11.4-.8-3.08-1.41-6.23-1.94-9.37a62.94,62.94,0,0,0-2.38-10.51,4.28,4.28,0,0,0-.31-.69c-1.05-1.73-1.05-1.73-.53-3.19-1.47.08-2.28,1.05-3.18,2.07-3,3.45-7.11,5.48-11,7.68-1.19.66-2.42,1.27-3.67,1.82-2.65,1.16-5.28.16-7.91-.19a4.44,4.44,0,0,0-1.92,0c-2.38.69-3.76.19-5.27-1.77-1.11-1.45-2.87-2.15-4.16-3.47a8.14,8.14,0,0,1,5.72,3.84c.66,1.12,2,.83,2.93.64a13.92,13.92,0,0,1,5.42.22,9.71,9.71,0,0,0,6.22-.72,46.48,46.48,0,0,0,13.25-8.95,27.68,27.68,0,0,0,2.43-3.6,2.07,2.07,0,0,0-1.14-3c-2.79-1.21-4-3.88-5.87-5.9-.07-.07-.1-.18-.17-.25-2.81-2.43-4.66-5.75-7.79-7.94-1.79-1.24-2.82-3.4-4.13-5.2-.77-1.08-1.37-2.41-3.08-2.39a3,3,0,0,0-3,2.43c-.09.43-.2,1-.75,1s-.58-.44-.73-.82c-.22-.56-.47-1.11-.71-1.67-.5.71.21,1.59-.27,2.47-.7-.75-1.65-1.15-1.73-2.32,0-.36-.25-1-.91-.6-1,.65-.9-.24-1.16-.86-.56.82-1.09,1.46-.68,2.43a.59.59,0,0,1-.22.8c-.34.17-.59-.07-.76-.32a3.21,3.21,0,0,0-2.11-1.11,70.33,70.33,0,0,1-7.36-2.28c-1.32-.47-2.64-.88-3.85.26h0C113.52,72,113,71.28,113,70c0-2,1.14-3.63,2-5.34,1.84-3.88,5.22-6.31,8.58-8.65,1.92-1.32,4.32-.71,6.54-.83a9.89,9.89,0,0,1,6.07,1.32c2.08,1.31,2.3,3.64,2.71,5.71.31,1.56.06,3.24.38,4.84.27,1.34-.88,2.56-.27,3.92,0,0-.36.27-.63.57,2.52-.78,3.54,1,4.77,2.54,2.07,2.61,4.66,4.78,6.74,7.36,1.88,2.33,4,4.38,6,6.66a66,66,0,0,0,5.84,5.48,2.69,2.69,0,0,1,1.09,2.07c0,4.15,1.68,7.79,3.71,11.25a11.44,11.44,0,0,1,1.66,6,18.31,18.31,0,0,0,1.22,6.52,23.19,23.19,0,0,1,1.55,6.77c.14,1.56.31,3.13.36,4.7a14.16,14.16,0,0,0,1.18,4.06c1.91,5.67,2.95,11.58,4.72,17.3a12.54,12.54,0,0,1,.24,3.93c-.12,6.89,1.53,13.46,3.53,20,.42,1.38,1.64,2.14,2.63,3.09,3,2.87,7.24,5.49,8.1,5.31,1-.21,2.44-.6,2.83.58.32,1-.69,2-1.6,2.71a7.47,7.47,0,0,1-5.34,1.3c-4.4-.35-8.75-1.4-13.16-1.34-5.84.08-11.64-.93-17.48-.35A44.68,44.68,0,0,0,145,190a8.09,8.09,0,0,1-4.35.25c-1.47-.25-1.53-1.75-1.72-2.91a32,32,0,0,1-.25-3.8c0-.92-.46-1.24-1.35-1.16a3.49,3.49,0,0,1-1.93-.35c-3.78-1.9-7.6-1.68-11.68-.92a10.93,10.93,0,0,1-10-3.1,22,22,0,0,0-4.2-3.46,2.39,2.39,0,0,1-1.26-2.73,35.61,35.61,0,0,0,.23-10,7.55,7.55,0,0,1,.23-4.48h0a45.18,45.18,0,0,1,.64,8.3,14.72,14.72,0,0,1-.48,4,3.77,3.77,0,0,0,1.69,4.48c2.26,1.53,4.54,3,6.82,4.54a2.26,2.26,0,0,0,1.6.38c1.86-.3,3.75.05,5.6-.4a3.34,3.34,0,0,1,1.66,0c2.32.76,4.81.49,7.14,1.39a16.24,16.24,0,0,0,4.34.59c1,.09.52-.68.44-1a51.14,51.14,0,0,0-3.12-9.51A68.13,68.13,0,0,1,131.4,160a20.54,20.54,0,0,0-3.39-6.47,3,3,0,0,1-.82-1.69,2.26,2.26,0,0,0-1.06-1.78c-1.4-.72-1.47-1.94-1.56-3.2a34.29,34.29,0,0,1,2-15.25,5.17,5.17,0,0,1,.51-1.09c1.89-2.66,4.81-4.22,6.91-6.67a9.38,9.38,0,0,1-2.95,3.77c-3.68,2.54-4.53,6.38-5.24,10.39-.47,2.66-.06,5.35-.36,8-.25,2.23,1.52,3.56,2.65,5.12A30.12,30.12,0,0,1,133,162.22a2.88,2.88,0,0,0,.75,1.47,21.52,21.52,0,0,0,2.62,6.46A17.23,17.23,0,0,0,133.76,163.71Zm-18.21-94a4.41,4.41,0,0,1,2.49.31c2.49.88,5,1.65,7.53,2.41.4.12.92.43,1.26-.32a4.27,4.27,0,0,1,5.56-2.23,3,3,0,0,1,2.31,2.68c0,.32-.09.74.44,1C136.32,71.81,138,70.21,138,68c0-2.8.29-5.65-.87-8.38a5,5,0,0,0-4.88-3.17A16.23,16.23,0,0,0,123,59.6,19.24,19.24,0,0,0,115.55,69.74Zm55,59.85a34.07,34.07,0,0,1-.25-3.76,10.46,10.46,0,0,0-1-4.69,19.43,19.43,0,0,1-1.8-9.09c.11-2-.57-3.48-1.69-4.18A128.93,128.93,0,0,0,170.58,129.59ZM144,189.18c-1.43-1.34-1.54-2.93-1.69-4.46a2.39,2.39,0,0,0-1.37-2.17c-.81-.38-1.13-.16-1.09.71,0,1.17.06,2.33.09,3.5.06,2.27.47,2.65,2.72,2.56C143,189.3,143.34,189.25,144,189.18Zm-25.16-9.46c2.89,1.21,5.64,0,8.43-.38C124.43,178.92,121.65,179.8,118.83,179.72Zm20.24-2.26c-.1,0-.15-.08-.18-.06a.12.12,0,0,0-.07.11c.27,1.07.53,2.14.84,3.19.14.47.36,1,1.06.85C140.61,180,139.48,178.84,139.07,177.46Z"/><path class="cls-4" d="M87.87,133.57a61.3,61.3,0,0,1-.13,10.75c.41-1.79.92-3.56,1.19-5.37a31.3,31.3,0,0,0,.39-6.5,6.43,6.43,0,0,0-.91-3.32c-3.21-4.74-6.08-9.71-9.54-14.28-.68-.88-1.5-1.65-2.17-2.53-.24-.31-.69-.8-.14-1.2s.82.07,1.1.45c3.57,4.85,7,9.78,10.21,14.91,2.92,4.67,2.9,9.28,1.8,14.28C88.52,146,87,151.1,86.74,156.42c-.35,6.76-2.25,13.29-2.71,20a21.31,21.31,0,0,1-1.25,5.33c-.86,2.55-3,3.36-5.43,2.13-3.62-1.85-7.47-2-11.42-1.78a24.37,24.37,0,0,1-9-1.61c-.1,0-.16-.22-.3-.43a3.63,3.63,0,0,1,2.22.08c1.6.21,3.18.58,4.77.88a5.75,5.75,0,0,0,3.73-.07,2.52,2.52,0,0,1,1.33,0,22,22,0,0,0,8.47-.22,8.94,8.94,0,0,1,1.36-.21c2.45-.16,2.45-.16,3-2.49a1.87,1.87,0,0,1,.3-.68,7.58,7.58,0,0,1-.47,2.95c-.24.83-.88.88-1.58.81a9.42,9.42,0,0,0-4.42.77,39.46,39.46,0,0,0,3.92,1.56c1,.29,1.7-.44,2.14-1.32a20,20,0,0,0,1.65-6.6A47.58,47.58,0,0,0,83.4,168l.13,1.68a3.89,3.89,0,0,0,.73-2.3,109.1,109.1,0,0,0,1.53-13.59,30.14,30.14,0,0,1,.58-4.08C87.23,144.37,88.1,139,87.87,133.57Z"/><path class="cls-4" d="M55.6,179.32c-.87-.48-.74-1.15-.74-1.72a63.6,63.6,0,0,1,.94-11.18,197.22,197.22,0,0,1,4.33-20.68,46,46,0,0,0,1-5.51,42.73,42.73,0,0,0-2.66,9.09A232.75,232.75,0,0,1,53,173.19a15.54,15.54,0,0,0-.61,3.43,3.66,3.66,0,0,1-.46,1.59c-.13.21-.19.52-.52.45s-.33-.39-.3-.62c.17-1.4.27-2.83.58-4.21.45-2.08,1-4.14,1.6-6.18,2-6.68,3.07-13.55,4.53-20.34a109.14,109.14,0,0,1,3.69-11.59c.13-.36.3-.91.78-.75s.57.82.47,1.3c-1.16,5.4-1.88,10.89-3.34,16.23-1.17,4.31-1.7,8.75-2.56,13.13a85.26,85.26,0,0,0-1.11,12.83C55.74,178.7,55.67,178.94,55.6,179.32Z"/><path class="cls-4" d="M108.8,157.33c-.6-.54-.46,0-.51.34a42.73,42.73,0,0,0-.74,13c0,.11-.11.25-.23.5a4.25,4.25,0,0,1-1-3.26,52.19,52.19,0,0,1,.56-8.64c.62-4.31,1-8.66,1.41-13a48.74,48.74,0,0,1,4.13-15c.73-1.74,2.45-2.62,4-3.57a41.62,41.62,0,0,0,9.84-7.56,24.45,24.45,0,0,0,4.1-7.08c.16-.37.16-1.1.75-1s.37.8.25,1.19c-.71,2.2-1,4.89-2.65,6.33-2.07,1.84-4,3.9-6.24,5.57s-4.83,3-7.14,4.63a7.93,7.93,0,0,0-2.71,3.69c-2.3,5.56-3,11.45-3.76,17.32a1.66,1.66,0,0,0,.2,1.08l1.17-7,.39.07c-.18,1.49-.56,3-.75,4.45a47.08,47.08,0,0,0-.56,6.05,2.64,2.64,0,0,1-.55,1.86Z"/><path class="cls-4" d="M65.82,57.66c1.22-2.27,2.38-4.58,3.68-6.81a11.24,11.24,0,0,1,6.94-5.75,10.61,10.61,0,0,1,6.3.61c6,2,9.52,6.06,11,12.07a14.41,14.41,0,0,1,.14,4.4A2,2,0,0,1,92.43,64a1.89,1.89,0,0,1-2.09-.47,5.91,5.91,0,0,0-5.87-1.45c-3.16.71-6.23,1.45-8.59,3.86-.25.26-.59.49-.95.25s-.08-.54,0-.82c.13-.54.23-1.09.37-1.63.75-3-.69-4.84-3.79-4.46a10.15,10.15,0,0,0-4.33,1.35c-.5.32-1.11.91-1.75.19a1.69,1.69,0,0,1-.1-2.23c.19-.3.34-.62.51-.93ZM76.56,64c1.8-1.31,4-1.72,6-2.54,2.93-1.18,5.39-.5,7.83,1.1,1.51,1,2.38.51,2.5-1.36A11.27,11.27,0,0,0,92.25,57c-.84-2.61-1.87-5.07-4.12-6.93A20.2,20.2,0,0,0,81,46.27c-2.82-.85-6.47-.05-8.32,2.07-2.73,3.13-4.25,7-6.36,10.5-.15.26-.28.59,0,.84s.45,0,.68-.1c1-.36,1.89-.74,2.85-1a6.47,6.47,0,0,1,5.93,1c1.35,1,.71,2.71.63,4.14C76.37,63.71,76.42,63.75,76.56,64Z"/><path class="cls-4" d="M33.05,99.27c-1.06,2.9-1.83,5.88-2.68,8.83-1.12,3.85-2.42,7.7-2.82,11.67-.46,4.59-.94,9.16-1.56,13.73-.77,5.69-2,11.27-3.37,16.85-1.57,6.57-3.61,13-5.48,19.47-.1.34-.12.72-.59,1-.55-.72-.12-1.46.06-2.1,1.09-3.91,2.32-7.78,3.37-11.7,2-7.55,3.83-15.13,5.11-22.86,1-5.82,1-11.74,2.19-17.5a131.68,131.68,0,0,1,4.38-15.19A5.5,5.5,0,0,1,33.05,99.27Z"/><path class="cls-4" d="M41.93,177.19c-.47-1,.08-1.16.66-1.29a3.91,3.91,0,0,1,3.3.73A5.51,5.51,0,0,0,48,177.77c.91.2.38,1.42,1.17,1.82a.94.94,0,0,1-1.37-.07c-.82-.87-1.65-.68-2.62-.29-3.31,1.34-6,3.7-9.19,5.3-3,1.5-5.73,3.49-9,4.34-2.72.7-4.47,0-6-2.38a11.82,11.82,0,0,1-1.62-3.75c-1.25-5.52-3.24-5.07-7.58-4.75-.19,0-.39.06-.68.1a.85.85,0,0,1,.71-1c2-.38,3.91-.57,5.78.43a3.94,3.94,0,0,1,2,2.58,21.27,21.27,0,0,0,1.4,4.49c2,3.79,3.67,4.44,7.31,2.86A94.36,94.36,0,0,0,41.68,180a14.22,14.22,0,0,1,3.44-1.56c.77-.24.94-.59.13-1C44.2,176.76,43.19,175.72,41.93,177.19Z"/><path class="cls-4" d="M49.67,65.27c-1.83.61-2.83,2.24-4.21,3.4-.48.39-1,1.39-1.55.84s.36-1.22.81-1.61c4.69-4,8.42-9.05,13.8-12.3,2.14-1.3,6.26-1.74,7.87-.49-.11.5-.51.43-.85.4-3.46-.32-6.58.45-9,3.08-1.69,1.83-4,2.94-5.55,4.91-.46.58-1.18,1-1.34,1.79Z"/><path class="cls-4" d="M65.83,57.64a3,3,0,0,0-1.18,4.09c.68,1.52,1.8,2.79,2.47,4.33a17.13,17.13,0,0,1,1,2.51,13.69,13.69,0,0,0,3.67,5.78.54.54,0,0,1-.94.09,12.63,12.63,0,0,1-2.63-3.3,84.88,84.88,0,0,0-4.13-8.6,3.94,3.94,0,0,1-.2-4.17c.48-.88,1-1.25,1.91-.71Z"/><path class="cls-4" d="M82.86,73.19a10.68,10.68,0,0,1,0,2c-.8,3.9-1.14,7.9-2.7,11.62-.27.63-.27.63-1,1.22a2.12,2.12,0,0,1,.23-1.61c1.84-3.61,1.87-7.6,2.51-11.47.13-.74.21-1.4,1-1.7Z"/><path class="cls-4" d="M86.54,63.29c.35.71-.06,1-.31,1.37-1.13,1.49-2.26,3-3.43,4.43a2.3,2.3,0,0,1-3.72-.59.56.56,0,0,1,0-.42.45.45,0,0,1,.66-.11c1.88,1.35,2.71,0,3.73-1.29A12.16,12.16,0,0,1,86.54,63.29Z"/><path class="cls-4" d="M114.88,71.67a1.88,1.88,0,0,1,.77,1.87,7.59,7.59,0,0,0,.38,2.37c.61,2.22.61,2.22,2.92,2.26.29,0,.62,0,.81.27-1.79,1.59-3.57,1.15-4.26-1-.59-1.87-1.3-3.73-.6-5.73Z"/><path class="cls-4" d="M124.77,84.28c-3.07,1.32-5.7-.13-6.17-3.39,0-.24-.14-.53.16-.65s.46.14.61.34a3.33,3.33,0,0,1,.38.66c.78,1.82,1.75,3.32,4.15,2.63A.68.68,0,0,1,124.77,84.28Z"/><path class="cls-4" d="M73.82,62.91c-.63-.17-.59-.64-.74-1-.61-1.5-1.14-1.67-2.49-.69-.61.45-1.15,1-1.73,1.46-.23.2-.48.46-.77.16s-.09-.48.06-.69a5.12,5.12,0,0,1,3.52-2.41C73.06,59.56,74,60.9,73.82,62.91Z"/><path class="cls-4" d="M77.93,69.42c-.6,1.64-2.19,3.09-3.15,2.88-1.32-.28-1.92-1.51-2.66-2.49a.38.38,0,0,1,.07-.54.47.47,0,0,1,.67.09c.32.39.61.8.92,1.19.68.88,1.37,1.3,2.3.26A13.25,13.25,0,0,1,77.93,69.42Z"/><path class="cls-4" d="M128.55,82.93c.2-1.64,1.17-2.58,2.44-3.58-.11,1-1.73,1.66-.34,2.63A4.44,4.44,0,0,1,128.55,82.93Z"/><path class="cls-4" d="M138.06,119.74c-.74.93-1.32,2-2.51,2.52C136.1,121.13,136.68,120,138.06,119.74Z"/><path class="cls-4" d="M128.17,81.86c-.84.9-1.49,1.58-2.12,2.27-.33.36-.51.18-.64-.16s-.49-.67,0-.67C126.55,83.31,126.8,82,128.17,81.86Z"/><path class="cls-4" d="M173.06,152.42V159c-.12-2.2-.64-4.41,0-6.6Z"/></g></svg>