<svg xmlns="http://www.w3.org/2000/svg" viewBox="0 0 200 200"><defs><style>.cls-1{fill:#878787;}.cls-2{fill:#e94e1b;}.cls-3{fill:#3c3c3b;}.cls-4{fill:#ffed00;}</style></defs><g id="color"><path class="cls-1" d="M175.63,176a8.71,8.71,0,0,0-2.28-1.56,11.21,11.21,0,0,0-1.49-.58,9.17,9.17,0,0,0-1.27-.24l-.8-.82c-.42-.46-.87-.89-1.31-1.33-.67-7.48-.48-15.7-.48-23.34.95-5.79-.08-12.88,0-18.92a1.62,1.62,0,0,0,.41-.76c.11-.54.19-1.08.26-1.63a2.1,2.1,0,0,0,.56-1.63,34.86,34.86,0,0,0,1.72-6.64l.22-.19a3,3,0,0,0,.43-.52l.11-.16a7,7,0,0,0,.54-1.33,14.53,14.53,0,0,0,.56-2.13,1.53,1.53,0,0,0,.06-.56c.79-2.43-.26-4.62-1.81-6.6-.71-.91-1.44-1.81-2.17-2.71a7,7,0,0,0-2.58-4.44c-2.6-6.78-5.43-14.2-9-20.32a2.15,2.15,0,0,0-.19-1.31,14.71,14.71,0,0,0-3.76-4.77l-1.11-1.7c-1.07-1.64-2.44-4.56-4.83-4a8.83,8.83,0,0,0-2.21-.67,2.23,2.23,0,0,0-1.14.09,15.16,15.16,0,0,0-1.88-.46c1.58-5,0-13.95-4.94-17-5.7-3.66-14,1.19-14.17,7-3.67,5.64-.81,10.91,2.53,15.7,0,4.71-.22,9.52-.46,14.32a1.59,1.59,0,0,0-.85,1.14,98.4,98.4,0,0,0-1,12.12,1.94,1.94,0,0,0,.31,1l-.63,4.22c-.05.37,2.63,4.32.9,3.7-.13.74-1.25.82-1.36,1.57a140.5,140.5,0,0,0-11.67,9.78h-.47a2,2,0,0,0-1.93,1.47,4,4,0,0,0-.12.88,69.92,69.92,0,0,1-6.23,5.15c-4.16,1-1.37,6.49.4,2.49,7.88-.14,7.32,15.38,3.09,18.37-1.54,12.7-5,19.27,5.58,23.38,6.61,1.1,13.91-.51,20.63,0,2.26,3.33,4.61,4.2,7.5,2.1,3.55,6.62,14.27,2.55,17,9.49,3.83,1.15,7.46-1.14,11.25-2.18,2.39.39,5.91-.05,7-2.1h0a2.8,2.8,0,0,0,.73-.32,2,2,0,0,0,1-1.47A1.92,1.92,0,0,0,175.63,176Z"/></g><g id="destacado"><path class="cls-2" d="M109.55,140.94a12.15,12.15,0,0,0-.27-2.33c-.06-.25-.14-.49-.22-.73l0,0a2.11,2.11,0,0,0,0-1.06l-.37-1a2.2,2.2,0,0,0,0-.44,2.08,2.08,0,0,0-.59-1.42l-3.76-3.39A2.07,2.07,0,0,0,103,130a2,2,0,0,0-2,1.82c-.37.12-.74.25-1.15.42-.52-2.2.08-4.78,2.4-5.23-1.31-2.86-3.83-.58-6.42.29-.71,1.21.26,1.32.77,3.66,1.33,2.45,2.86,4.06,2.89,6.78-1,2.14-1.44,7.34,1.14,3.28-.46,1,.26-.22.32-.29,2.37-2.18,3.81,3,3.5,5.88,2.77,3.55,4-.2,4.33-4.06l.17-.14A2.08,2.08,0,0,0,109.55,140.94Z"/></g><g id="Capa_3" data-name="Capa 3"><path class="cls-3" d="M85.22,75.17a15.38,15.38,0,0,0-5,1.14c-.24.07-.47.19-.7.26s-.48.19-.56,0,.21-.39.42-.47c2.41-.9,4.74-2.14,7.45-1.53.2,0,.43.1.56-.11s0-.42-.14-.58c-.64-.78-1-1.77-2.23-2-.78-.18,0-.23.09-.38s-.06-.37-.21-.48a1.16,1.16,0,0,0-1.29,0,27.18,27.18,0,0,0-8.07,4.84,11.63,11.63,0,0,1-2.76,1.42,48.52,48.52,0,0,0-7,5,13.7,13.7,0,0,1-4.13,2.51,8.7,8.7,0,0,0-2.1,1.47,33.51,33.51,0,0,0-5.91,4.36,14.64,14.64,0,0,0-1.71,2.13c-.61,1-.54,1.7.48,2.17A3.79,3.79,0,0,1,54.63,99a5.8,5.8,0,0,0,1.55,4.08c1.27,1.61,2.61,3.2,3.11,5.31A16.19,16.19,0,0,0,61.63,113c.46.72,1.51.73,1.69,1.63s1.07,1.08,1.62,1.6a8,8,0,0,1,1.22,1c.3.43.64.48,1.15.15,3.24-2.09,6.39-4.32,9.46-6.66A14.52,14.52,0,0,1,81,109a8,8,0,0,0,3.24-2.6c1.62-1.84,3.21-3.7,4.92-5.45,1.1-1.13,2.65-1.54,3.83-2.53.12-.11.31-.19.43,0s0,.31-.13.43A3.61,3.61,0,0,1,91.83,100c-1.73.54-2.78,1.91-3.91,3.16-.92,1-1.76,2.1-2.63,3.16-.13.16-.32.36-.31.52.11,1.22-.81,1.54-1.64,1.9A32.61,32.61,0,0,1,79,110.51a5.56,5.56,0,0,0-1.7,1C74.19,113.75,71.18,116,68,118a2.32,2.32,0,0,1-2.31.14,7.07,7.07,0,0,1-3.08-1.72c-.08-.09-.2-.24-.17-.31.11-.23.27,0,.41,0s.44.08.23-.14c-1-1-1.73-2.25-3-2.91-.1,0-.26-.12-.31,0s.09.22.17.3c.48.52,1,1,1.45,1.54.08.09.16.26.13.33s-.31.1-.43,0a12.24,12.24,0,0,1-.93-.83,18.41,18.41,0,0,0-3.2-2.77c-.21-.13-.48-.23-.37-.55s.39-.26.63-.3a1.14,1.14,0,0,1,.89.38,4.35,4.35,0,0,0,1.28.75c.19.06.41.26.57.1s-.06-.36-.13-.54a35,35,0,0,1-1.47-4,10.39,10.39,0,0,0-2.37-3.62,7.4,7.4,0,0,1-2.1-5.39,2.83,2.83,0,0,0-1.59-2.76A2.45,2.45,0,0,1,51.38,92a19.73,19.73,0,0,1,5.67-5.14,26.81,26.81,0,0,1,5.77-3.41,9.25,9.25,0,0,0,2.11-1.55c2.67-2,5.34-3.92,8.2-5.62,2.46-1.47,4.88-3,7.31-4.52a25.47,25.47,0,0,1,2.41-1.3c1.3-.59,1.94-.41,3,.59,1.35,1.25,2.26,2.88,3.63,4.1.08,1.51,1.26,1.11,2.15,1.29a12.16,12.16,0,0,1,4.6,1.78,3.8,3.8,0,0,0,.65.36c1.17.49,1.31.43,1.86-.75.16-.34.29-.69.46-1,.25-.5.42-.93-.32-1.15-.25-.08-.3-.37-.37-.61-.32-1-.41-1-1.13-.25a9.16,9.16,0,0,1-2,1.46c-.31.19-.61.34-.9,0s-.15-.69.06-1,1-.75.62-1.16-.83.31-1.25.55a2.48,2.48,0,0,1-1.81.18.61.61,0,0,1-.49-.64.46.46,0,0,1,.44-.51,7.76,7.76,0,0,0,2.43-.91,3.25,3.25,0,0,1,1.72-.11,1.59,1.59,0,0,0,1.19-.15,2.26,2.26,0,0,1,2.36.17,1,1,0,0,1,.54,1.34c-.28.67-.75,1.35.41,1.72.29.09.26.49.13.78s-.32.68-.46,1a.39.39,0,0,0,0,.33c.08.13.22,0,.32,0,1.63-1,3.12-.36,4.58.42a14.36,14.36,0,0,0,2.71.9c.69.21,1.29-.37,1.27-1.28a10.87,10.87,0,0,0-.35-3.08c-.84-2.52-1.57-5.11-3.32-7.21a14,14,0,0,0-4.3-3.53,2.48,2.48,0,0,0-1.43-.35c-3.51.43-6.71,1.51-9.18,4.21a4.56,4.56,0,0,0-.84,5,1.27,1.27,0,0,0,.88.79c.25.09.48.24.43.54s-.39.4-.69.41a1.42,1.42,0,0,1-1.5-.68,6,6,0,0,1-1-2.79c.14-1.33.12-2.81,1.28-3.91A21.16,21.16,0,0,1,94,64.12a15.29,15.29,0,0,1,5.86-1.57,2.88,2.88,0,0,1,1.58.19,17.37,17.37,0,0,1,4.48,2.67,7.61,7.61,0,0,1,1.91,2.89c.66,1.7,1.37,3.39,2,5.11a14.49,14.49,0,0,1,.74,5.77c-.08,1.35-1,1.91-2.35,1.62a10.45,10.45,0,0,1-3.78-1.52c-1.38-.91-4.38-.16-5.25,1.23-.34.53-.09,1.06.09,1.55a18.28,18.28,0,0,0,2.22,3.73,17.24,17.24,0,0,0,7,5.6c1.07.52,1.78,1.57,2.9,2.11,2,1,3.68,2.42,5.56,3.52a12.18,12.18,0,0,1,4.38,5.07c.92,1.67,2,3.26,2.86,5a.74.74,0,0,0,1.24.27,12.82,12.82,0,0,0,3.74-3.74c1.07-2,1.77-4.12,2.75-6.15a1.23,1.23,0,0,0,.16-.71,47.87,47.87,0,0,1-1-7.25,39.94,39.94,0,0,1-.07-6.83c0-.29,0-.7.35-.72.5,0,.34.47.39.76a7.67,7.67,0,0,1,.05,1.73,10.65,10.65,0,0,0,.27,3.45,22.32,22.32,0,0,1,.14,3.2,23.16,23.16,0,0,1,.32,3.72c0,.15-.06.38.12.43s.24-.18.31-.31c.61-1.14,1.22-2.27,1.82-3.41a94.51,94.51,0,0,1,5.7-10.21c1.13-1.61,1.94-3.47,3.08-5.11a4.62,4.62,0,0,1,4.31-1.5c.46.13.35.36.12.62a1.73,1.73,0,0,1-1.14.44,4.94,4.94,0,0,0-4,2.81,56.69,56.69,0,0,1-2.79,5c-2,2.65-3.12,5.74-4.59,8.65-.49,1-1.25,1.74-1.66,2.77-.75,1.89-1.63,3.73-2.39,5.62a28.82,28.82,0,0,1-2.5,5c-.58.9-1.65,1.34-2.46,2.05-.36.32-.91.44-.86,1.09,0,.32-.23.43-.49.44a2.59,2.59,0,0,0-1.7.95,81.85,81.85,0,0,1-8.22,6.86c-1.45,1.09-2.81,2.33-4.28,3.41a8.6,8.6,0,0,1-1.34.88,1.77,1.77,0,0,0-.87,2.62,7.81,7.81,0,0,0,2.26,3.07c1.46,1.08,2.4,2.68,3.69,3.94a4.34,4.34,0,0,0,3,1.25,2,2,0,0,1,1.6.51.22.22,0,0,1-.07.33,2.41,2.41,0,0,1-1.8.27,6.52,6.52,0,0,1-3.48-1.83,9.46,9.46,0,0,0-.73-.68,1.66,1.66,0,0,0-2.16-.27q-1.39.81-2.85,1.53c-.47.24-.32.44,0,.59,1.69.85,1.46,2.26,1.2,3.75a17,17,0,0,0,.31,4.71c.18,1.62,0,3.24.1,4.85a1.23,1.23,0,0,1-.5,1c-.5.45-1.22.69-1.45,1.44a.47.47,0,0,1-.54.24,2.94,2.94,0,0,0-1.8.25.74.74,0,0,1-1-.59,12.2,12.2,0,0,1-.67-3.41c.1-1.53-.82-2.68-1.35-4-.21-.49-.61-.41-.88,0a14.5,14.5,0,0,0-1.18,1.75,1.37,1.37,0,0,1-1.17.81c-.85.06-1.27-.36-1.12-1.2.23-1.31.48-2.61.78-3.91a3,3,0,0,0-.17-2.06c-.72-1.5-1.56-2.94-2.14-4.5-.2-.55-.49-.72-.73,0a1,1,0,0,1-1,.7c-.71.06-1.4.18-2.1.25a1.35,1.35,0,0,1-1.42-.57,1.13,1.13,0,0,0-.84-.5c-1.39-.13-2-1.13-2.4-2.25-1.08-2.79-2.47-5.44-3.7-8.17A66.51,66.51,0,0,1,81.08,114c-.13-.41-.67-1,0-1.27s.72.57.84,1a39.77,39.77,0,0,0,3,6.68c1.45,3,2.77,6.14,4.17,9.2.76,1.65,1.78,1.72,2.8.2a3.82,3.82,0,0,1,1.64-1.47,2.4,2.4,0,0,0,.86-.51c1.21-1.32,2.88-1.71,4.48-2.25a28.83,28.83,0,0,1,3-1.11c.78-.18.48-.75.15-1.16-.73-.9-1.51-1.76-2.26-2.65-1.43-1.67-2.61-3.54-3.88-5.33a34.06,34.06,0,0,1-3.08-5.1,59,59,0,0,1-2.48-7.7,1.39,1.39,0,0,1,0-.61.35.35,0,0,1,.21-.26c.12-.05.23,0,.28.17.17.42.36.84.49,1.28.48,1.59.87,3.21,1.42,4.78a20.61,20.61,0,0,0,3.21,6c1.28,1.64,2.17,3.54,3.59,5.09a39.67,39.67,0,0,1,3.89,4.69c.58.86.61.84-.4,1.21a5.59,5.59,0,0,0-.57.22.41.41,0,0,0-.21.53.47.47,0,0,0,.58.34,1.14,1.14,0,0,0,.34-.15,17.84,17.84,0,0,1,3.44-1.43c.48-.16.92-.36.82-1a2.79,2.79,0,0,1,1.64-2.84,29.69,29.69,0,0,0,5-3.87c1-.8,1-1.76,0-2.24-2.16-1-3.59-2.94-5.78-3.84a4.16,4.16,0,0,1-2.1-2.36,6,6,0,0,0-3.76-3.72,1.34,1.34,0,0,1-.77-.59,1,1,0,0,0-.7-.47,6,6,0,0,1-4-2.68,46.67,46.67,0,0,0-6.1-6.39,11.91,11.91,0,0,0-3.31-1.94A8.76,8.76,0,0,1,85,90.82a2.32,2.32,0,0,1-.53-3.1c.08-.14.18-.31.37-.22s0,.22,0,.33,0,.17,0,.25c-.14,1.77.21,2.54,1.91,3.25,1.3.55,2.47,1.34,3.75,1.91,1.49.67,2.39,2,3.5,3.14a37.51,37.51,0,0,1,3.54,4.19c.73,1,1.64,2,3,1.93a4.13,4.13,0,0,0,3.24-1.58,7.84,7.84,0,0,1,1.48-1.51,1.66,1.66,0,0,1,2.19.17.41.41,0,0,1-.14.71,11.84,11.84,0,0,1-2.37,1.36,4.11,4.11,0,0,0-2.17,1.6c-.19.24-.42.56.1.6,1.29.1,1.87,1.11,2.61,1.93s1,.77,1.4-.25c.17-.43.26-.88.73-1.1.21-.1.38-.42.64-.26s.11.44,0,.68a6.9,6.9,0,0,1-1,2.24c-.68.85-.62,1.14.23,1.86,1.39,1.18,3.09,1.94,4.43,3.2.36.35.61.28.84-.2a5.38,5.38,0,0,1,1.9-2.09c.25-.16.58-.47.9-.15a.83.83,0,0,1,.06,1,9.88,9.88,0,0,1-1.29,1.52c-.74.78-.72.84.1,1.47a4.48,4.48,0,0,1,.8.77c.74.92.71.91,1.56.18,1.89-1.63,3.8-3.23,5.7-4.84.28-.24.56-.5.82-.77a1.26,1.26,0,0,0,.16-1.76c-1.63-2.61-3.18-5.26-4.75-7.9a2.31,2.31,0,0,0-.75-.83c-2.61-1.51-5.13-3.19-7.66-4.84s-5.36-3.06-7.61-5.16A16.81,16.81,0,0,1,99,83.48c-.38-.81-1.5-1.27-1.22-2.41,0,0-.1-.13-.17-.17-2.2-1.33-4.24-3.1-7.11-2.71a1.89,1.89,0,0,0-1.25.44c-1.09,1.12-2.62,1.6-3.76,2.64-.09.09-.22.17-.31.06a.35.35,0,0,1,0-.33,6.91,6.91,0,0,1,1.46-1.15c1.27-.56,2-1.93,3.32-2.32.06,0,.14-.12.13-.17s-.17-.15-.28-.16a2.32,2.32,0,0,0-1.57.29A14.26,14.26,0,0,0,84,82.23c-.58,1.07-.14,2.11.08,3.15.11.49.29,1-.08,1.42a.43.43,0,0,1-.42.2.38.38,0,0,1-.29-.36,8.54,8.54,0,0,1,2-7.5,7.65,7.65,0,0,0,1.12-1.49A2.14,2.14,0,0,1,88,76.47c.18,0,.48.13.49-.17,0-.15-.2-.39-.36-.46A6,6,0,0,0,85.22,75.17Zm20.33,63.9c.06,1.63,1.26,2.85,1.55,4.4,0,.08.18.14.27.22a1.08,1.08,0,0,0,0-.35,15.71,15.71,0,0,0-1.86-4.26c0-.46-.54-1,0-1.35.33-.23,1.15.4,1.38,1a1.05,1.05,0,0,1,.06.24,19.54,19.54,0,0,0,1.3,3.22c0,.12.08.29.22.25s.06-.2.06-.31c-.09-2.33-.47-4.63-.38-7a1.06,1.06,0,0,0-.44-1,26.86,26.86,0,0,1-3.22-2.9c-.36-.32-.63-.36-.95,0s-.53.64-.83.93-.82.6-1.23.25-.65-.22-1.06-.05c-1.24.55-2,.07-2.16-1.29a2.4,2.4,0,0,1,.13-1.35,4.9,4.9,0,0,1,2.17-2.63c.36-.17.83-.3.59-.89s-.67-.6-1.22-.44a14.72,14.72,0,0,0-2.91,1.4.84.84,0,0,0-.34,1.27c1.1,2.19,1.79,4.55,2.91,6.74a3.89,3.89,0,0,1,.25,3.59,5.06,5.06,0,0,0-.3,1.46.53.53,0,0,0,.11.45c.16.13.3-.06.42-.16l1.47-1.35c.92-.84,1-.81,1.51.29a6.89,6.89,0,0,0,.34.66,8.43,8.43,0,0,1,1.44,4.31,4.59,4.59,0,0,0,.36,2,.52.52,0,0,0,.22.28c.15.07.21-.07.25-.2.43-1.4.82-2.8-.06-4.2a9.64,9.64,0,0,1-1-2.13C104.35,139.19,104.38,139.14,105.55,139.07Zm2.09-12.57c-.11.37-.45.45-.73.62a39.38,39.38,0,0,0-3.49,1.91c-.36.27-.78.48-.94.95a1.9,1.9,0,0,0,1.33-.46,15.69,15.69,0,0,1,3-1.71c.42-.19.93-.41,1.25.07.6.92,1.08.24,1.48-.12.58-.52-.14-.74-.37-1.06s-.5-.56-.7-.87c-.42-.66-.84-.67-1.56-.35-1.9.84-3.67,1.91-5.57,2.74-.86.37-1.13,1.17-1.48,1.92a.53.53,0,0,0,.1.69c.31.21.58,0,.73-.25a7.44,7.44,0,0,1,1-1.7,17.7,17.7,0,0,1,5.4-2.76A.35.35,0,0,1,107.64,126.5Zm-14,3.82A3.26,3.26,0,0,0,95.43,129a.38.38,0,0,0-.16-.43c-.27-.18-1.57.31-1.9.68s-.16.52-.06.8A.34.34,0,0,0,93.69,130.32Zm1.89-51.94c-.16,0-.27,0-.2.16a11.93,11.93,0,0,0,2,1.45c.07,0,.18,0,.2-.1a.28.28,0,0,0,0-.23A14.31,14.31,0,0,0,95.58,78.38Z"/><path class="cls-3" d="M27.43,163.47c0-2-.28-4.06.16-6.08a1.65,1.65,0,0,0-.59-1.57,29.58,29.58,0,0,1-3.06-3.76,3.51,3.51,0,0,1-.2-3.93,2.41,2.41,0,0,0,.18-1.21,26.32,26.32,0,0,1,2-9.33c1.41-3.37,2.58-6.84,4-10.21a57.6,57.6,0,0,1,3.89-8.07,7.51,7.51,0,0,0,.76-2c.59-2,1.64-3.83,2.19-5.83.69-2.52,1.3-5.06,1.9-7.59.15-.63.41-1.1,1.07-.85,1.45.53,2.58-.11,3.75-.78.32-.19.71-.78,1-.37s-.33.72-.64.9c-1.22.71-2.34,1.85-4,1-.6-.3-.52.24-.62.59-.7,2.6-1.24,5.27-2.19,7.79a72,72,0,0,1-4,9.67,94.76,94.76,0,0,0-5.32,12.75,61.17,61.17,0,0,0-2.23,5.82,30.22,30.22,0,0,0-1.09,6.62,26.81,26.81,0,0,0-.21,3.23,1.74,1.74,0,0,0,.32,1.17c1,1.09,1.82,2.36,2.91,3.39.31.29.4.16.52-.1a4.78,4.78,0,0,0,.23-1.35,100.38,100.38,0,0,1,2.05-10.64,42.28,42.28,0,0,1,2.4-6.28c.35-.81.59-1.63.88-2.45,1.3-3.67,3.07-7.2,4-11S39.94,116,41,112.4c.33-1.12,1.09-2.06,1.47-3.16,1.1-3.18,2.86-6.07,4.08-9.2a7.79,7.79,0,0,1,2.94-3.49,3.1,3.1,0,0,1,.77-.39c.33-.12.78-.37,1,.15s-.33.46-.6.62A7.69,7.69,0,0,0,47,100.74c-1.33,3.46-3,6.77-4.58,10.09a51.28,51.28,0,0,0-2.23,5.82c-2.16,6.29-4,12.68-6.43,18.87-.66,1.66-1.36,3.31-2.07,4.95a35.82,35.82,0,0,0-2,8c-.55,3.06-1,6.15-1.46,9.23a4.57,4.57,0,0,0,.1,2.46,1.67,1.67,0,0,1,.05.86,34.24,34.24,0,0,0,1,13.21,8,8,0,0,0,1.78,3.39c.21.24.47.57.75.62,1.53.26,3,.94,4.62.52a7.39,7.39,0,0,1,2-.23,9.88,9.88,0,0,0,3-.26,4.92,4.92,0,0,1,3.63.39,1.78,1.78,0,0,0,2,0,14.13,14.13,0,0,1,4.46-1.84A9.11,9.11,0,0,0,56,173.68c3.33-4.14,6.59-8.34,9.87-12.53a21.22,21.22,0,0,0,2.31-4.4,15.37,15.37,0,0,1,1.2-2,.65.65,0,0,1,.86-.32c.4.2.23.56.15.88a2.16,2.16,0,0,1-.22.58c-1.82,3-3.43,6.14-5.83,8.79a67.41,67.41,0,0,0-6.19,8c-.14.21-.51.46-.18.73.18.14.45-.13.65-.27,2.2-1.49,4.38-3,6.6-4.48a14.6,14.6,0,0,0,3-3.16,26.18,26.18,0,0,0,4.68-9.38,18.74,18.74,0,0,1,.93-2.16c.11-.23.27-.48.57-.35a.4.4,0,0,1,.12.56c-.72,1.24-.54,2.67-.89,4a15.4,15.4,0,0,1-2.79,5.52c-.72.92-1.49,1.79-2.21,2.7a15.15,15.15,0,0,1-3.68,3.33c-2.92,1.85-5.55,4.1-8.45,6a5.08,5.08,0,0,0-.57.47c-.09.07-.23.17-.14.28s.24,0,.34,0a21.75,21.75,0,0,0,3.31-1.74A26.38,26.38,0,0,1,64,172.14a17.87,17.87,0,0,0,5.71-3.87,2.26,2.26,0,0,1,.64-.38,7.51,7.51,0,0,0,2.8-2.6c1.07-1.63,1.86-3.52,3.33-4.8,2.06-1.79,3-4.33,4.77-6.32.13-.14.15-.45.41-.31s.16.36.13.57c-.33,2.14-.72,4.25-2.39,5.86-1.82,1.77-3.14,4-5.1,5.63a56.56,56.56,0,0,0-4.71,5.1,20.62,20.62,0,0,1-7.83,5.62,37,37,0,0,0-6.12,2.71,5.15,5.15,0,0,1-3.93.79c-.84-.21-1.44.54-2,1.22-.76.85-.79,2.16-2,2.76-.73.38-.61.9.21,1.23A13.94,13.94,0,0,0,54,186.47a8,8,0,0,1,4.28,1,17.36,17.36,0,0,0,6.61,2.11,25.26,25.26,0,0,0,7-.13,13.31,13.31,0,0,0,4.53-1.63c.82-.52.8-.68.13-1.38a2.77,2.77,0,0,0-2.35-.9,2.79,2.79,0,0,1-2-.56c-.2-.14-.48-.23-.29-.56a.52.52,0,0,1,.73-.27c1.51.83,3.3.57,4.84,1.31.57.28,1.17.43,1.42,1.09.09.23.18.54.49.21,1.36-1.44,3.14-2.31,4.71-3.46.53-.4,1-.84,1.56-1.24.31-.24.6-.48.46-.93a1.11,1.11,0,0,0-.9-.77,4.73,4.73,0,0,0-2,.11c-.19,0-.45.07-.49-.22s.18-.23.31-.33a2.61,2.61,0,0,1,2.36-.38c1.36.31,1.85,0,1.58-1.29a10.29,10.29,0,0,1,.19-3.68c.18-1.38-.27-2.72-.25-4.1,0-3-.47-5.93-.51-8.92,0-3.81-.23-7.61-.18-11.43,0-.19-.06-.54.12-.54s.1.35.13.55,0,.17,0,.25c.07.52-.14,1.07.18,1.55.53-.53.17-1.13.16-1.71,0-2.8-.83-5.48-1.26-8.22a20.84,20.84,0,0,1-.19-6.06,3.8,3.8,0,0,0-1.58-3.48c-1.62-1.36-3.13-2.85-4.86-4.09a37,37,0,0,0-3.64-2.15c-1.9-1-3.61-2.35-5.43-3.51a13.25,13.25,0,0,0-2.43-1.48,3,3,0,0,1-1.72-1.72c-.08-.21-.09-.44.12-.55a.69.69,0,0,1,.47,0,1,1,0,0,1,.42.27,22.83,22.83,0,0,0,3.39,2.72,28.56,28.56,0,0,0,4.65,3.11,37.73,37.73,0,0,1,8,5.57,17.36,17.36,0,0,1,2.58,2.49,3.65,3.65,0,0,1,.78,2.79,19.11,19.11,0,0,0,.44,6.9,26.89,26.89,0,0,1,.5,11.94,17.24,17.24,0,0,0,0,5.22,37.14,37.14,0,0,1,.18,4.35,8,8,0,0,0,.54,3.16,3,3,0,0,1,0,2.2,4.13,4.13,0,0,0,0,3.2,7.37,7.37,0,0,1,.08,3.34c-.15,1.52-.06,3-.32,4.57a1.44,1.44,0,0,1-.57,1.11C85,183.39,83,185,80.81,186.33c-1,.6-1.53,1.75-2.67,2.2-.15.06-.3.27-.41.25-2-.37-3.29,1.4-5.16,1.43-.73,0-1.52.36-2.31.31-2.07-.12-4.2.35-6.21-.28-2.32-.74-4.79-1.06-6.9-2.43a4.42,4.42,0,0,0-2.28-.54,41.27,41.27,0,0,1-5.33-.51,6.62,6.62,0,0,1-2.21-.82c-1-.58-1.12-1.18-.43-2.1s.62-.85-.34-1.09c-.6-.15-.64-.49-.57-1,.14-1.15-.34-1.46-1.06-2-1.61-1.24-3.23-.45-4.84-.34a26.9,26.9,0,0,1-7.55-.05c-1.78-.38-2.4-1.76-3.22-3a4.22,4.22,0,0,1-.58-1.5C28,171.06,27,167.35,27.43,163.47Zm25.66,16a5.52,5.52,0,0,0,1.7-.43c1.12-.36,2-1.22,3.09-1.59A33.27,33.27,0,0,0,64,174.77a28.09,28.09,0,0,0,5.61-4.67c.14-.14.4-.32.26-.5s-.38,0-.53.15a23.76,23.76,0,0,1-5.21,3.14,28.74,28.74,0,0,0-2.87,1.47A46.15,46.15,0,0,1,56.5,177c-1.18.56-2.54.79-3.57,1.7-.18.16-.51.26-.45.53S52.89,179.43,53.09,179.48Zm22.46-16.06.79-.82c.93-1,1.71-2.22,2.72-3.22a6.52,6.52,0,0,0,1.28-2c.08-.18.28-.41.06-.55s-.36.13-.46.3a23.07,23.07,0,0,1-2.66,3.42c-.68.77-1.24,1.65-1.85,2.49a.71.71,0,0,0-.15.33C75.27,163.51,75.37,163.53,75.55,163.42Z"/><path class="cls-3" d="M174.44,177.75a3.9,3.9,0,0,0-2.2-2.56c-1.55-.9-2.55-2.37-3.82-3.54a3.78,3.78,0,0,1-.84-3.27c.24-2.06.83-4.1.57-6.19-.38-3-.06-6.07-.46-9.08-.24-1.79.29-3.56.26-5.34a8.26,8.26,0,0,1,.25-3,1.57,1.57,0,0,0,0-.86,25.37,25.37,0,0,1-.26-5.84c0-1.71-.36-3.38-.31-5.1a37,37,0,0,1,2.7-13.08,41.21,41.21,0,0,0,2.25-6.7,5.14,5.14,0,0,0-1-3.77c-.34-.57-.74-1.1-1.12-1.65-.12-.18-.25-.36,0-.55a.5.5,0,0,1,.58,0l.21.13c1.24.82,2.66,4.28,2.3,5.8a47.82,47.82,0,0,1-2.35,7.46A32.27,32.27,0,0,0,168.71,135a2.11,2.11,0,0,0,.49,1.62h0a46.79,46.79,0,0,0-.3,6.81,50,50,0,0,1-.06,7.34,45,45,0,0,0,.18,9.7,18.68,18.68,0,0,1-.37,7.41,3.56,3.56,0,0,0,.93,3.52,15.22,15.22,0,0,0,5.38,3.49c1.45.68,2.36,3.33,1.46,4.54a4.22,4.22,0,0,1-2.74,1.54c-.83.16-1.69.18-2,1.17a.19.19,0,0,1-.28.14c-.13-.06-.12-.2-.08-.32.33-1-.4-.59-.73-.48-3.54,1.16-7.2,1.91-10.76,3a9,9,0,0,1-1.46.32,3.14,3.14,0,0,1-3.23-1.39,22,22,0,0,1-1.3-2.68.4.4,0,0,1,.14-.55.4.4,0,0,1,.54.18,20.91,20.91,0,0,1,1.2,2.17,2,2,0,0,0,2.19,1.25,8,8,0,0,0,2.09-.32,28.72,28.72,0,0,1,4.8-1.25c.27,0,.59,0,.75-.33-.27-.1-.53-.21-.8-.3a.71.71,0,0,0-.36-.09c-1.73.37-3.09-.64-4.6-1.14a25.66,25.66,0,0,0-6.23-1.08c-2.52-.19-5.06,0-7.57-.47a7.41,7.41,0,0,1-2-.64,2.48,2.48,0,0,1-1.45-1.91c-.08-.41-.3-1.07.23-1.2s.46.54.56.9c.4,1.59,1.82,1.71,3,1.95a25.7,25.7,0,0,0,6.07.4,26.09,26.09,0,0,1,8.07,1.27,16.26,16.26,0,0,0,4.13,1,1.75,1.75,0,0,1,.95.24c1.23,1,2.44.32,3.65,0a13,13,0,0,1,2.38-.68c.5,0,.78-.46,1-.84a4.42,4.42,0,0,1,1.3-1.32,1.64,1.64,0,0,1-.45.85c-.22.29-.64.66-.44.93s.82.13,1.24,0a2,2,0,0,0,.45-.21,1.24,1.24,0,0,0,.82-1.12C175.52,177.81,174.91,177.84,174.44,177.75Zm1.39-1.25c0-.05,0-.09,0-.13a8.93,8.93,0,0,0-3-2.07c-.18,0-.18.15-.08.23a19.51,19.51,0,0,0,2.7,2.18C175.61,176.81,175.81,176.8,175.83,176.5Z"/><path class="cls-3" d="M134.25,47.71a5.87,5.87,0,0,1,3.68.92,6.74,6.74,0,0,1,3,3.77c.24.84.45,1.69.73,2.51a57.92,57.92,0,0,1,1.93,9.76,2.18,2.18,0,0,1-1.36,2.6c-.83.46-1.57,1.1-2.65.7-.37-.13-.33.39-.48.61a.71.71,0,0,1-.87.3c-.39-.12-.29-.39-.22-.71a5.26,5.26,0,0,0-.5-2.64c0-.15-.16-.37-.33-.25s-.51.72-.71,0c-.12-.46-.18-.94.36-1.19s.81.11,1,.46a5.75,5.75,0,0,1,.67,1.86c.05.23.06.61.31.57s.07-.45,0-.69a14.51,14.51,0,0,0-.92-3c-.37-1-1.24-1-2-.28s-.76,2-.84,3.16c0,.2.08.41.08.61,0,.47,0,1-.51,1.17s-.79-.25-1-.61c-.65-1.32-1.86-2.1-2.86-3.08a4.12,4.12,0,0,0-2.39-.94,9.24,9.24,0,0,0-4,.17,2.06,2.06,0,0,0-1.24,3.3,7.82,7.82,0,0,1,1.24,3c.18,1,.33,1.06,1.32.66.23-.1.49-.3.65,0s-.15.43-.34.58-.39.31-.6.45c-.8.53-1,.48-1.37-.41-.24-.58-.47-1.16-.67-1.75a10.73,10.73,0,0,0-1.95-3.57,6.54,6.54,0,0,1-1.25-5.28,15.29,15.29,0,0,1,4.36-8.51A12.58,12.58,0,0,1,134.25,47.71Zm-.37,1.3a7.88,7.88,0,0,0-5.74,1.89c-.93.83-1.82,1.7-2.69,2.58a12.18,12.18,0,0,0-3.81,7.22,6.42,6.42,0,0,0,.13,2.47c.14.5.29.63.73.2a5,5,0,0,1,2.82-1.47c2.84-.44,5.45-.08,7.49,2.22.14.15.29.29.44.44.32.32.54.34.67-.18a14,14,0,0,1,.57-1.91,2.44,2.44,0,0,1,4.77.28c.32,1,.65,2,1,3,.26.73.6.8,1.16.25a3.11,3.11,0,0,0,.66-3.14c-.71-3.2-1.61-6.36-2.15-9.6a3,3,0,0,0-.47-1.14C138.09,50,136.23,48.79,133.88,49Z"/><path class="cls-3" d="M116.8,171.68a50.61,50.61,0,0,0,8.79-.42,15,15,0,0,1,4.33.34,3.3,3.3,0,0,0,2.64-.29c.14-.09.32-.2.45-.05s0,.38-.15.53a2.15,2.15,0,0,1-1.27.72c-1.15.18-2.33-.12-3.48.22-1-.91-2.28-.37-3.41-.38a28.89,28.89,0,0,0-3.59.35,2.94,2.94,0,0,1-.49.08c-3.21-.32-6.45.2-9.65-.51a10.26,10.26,0,0,1-7.64-8.71,17.45,17.45,0,0,1,.7-5.67,45.65,45.65,0,0,0,1-6.26,4.94,4.94,0,0,1,.18-.85c.05-.24.06-.61.34-.6.43,0,.24.45.25.7a17.87,17.87,0,0,1-.49,5.2,51.24,51.24,0,0,0-1.19,6.86c-.2,1.71.73,3.1,1.67,4.44a4.91,4.91,0,0,1,.77,1.13,2.8,2.8,0,0,0,1.74,1.62C111.11,171.37,113.94,172.18,116.8,171.68Z"/><path class="cls-3" d="M156,88.48c.13,4.07-1.33,7.62-3.44,11s-4.2,7-6.44,10.37a40.69,40.69,0,0,1-3,4.39,22.57,22.57,0,0,1-6,5.18,24.2,24.2,0,0,0-4,3,7.62,7.62,0,0,1-1.61,1.15,12.15,12.15,0,0,0-3.9,2.63.23.23,0,0,1-.1.07c-1.9.58-2.9,2.29-4.35,3.43-.23.17-.4.42-.69.51s-.33.12-.46-.05a.3.3,0,0,1,.1-.43c1.65-1.28,3-2.89,4.78-4.08,2.06-1.36,4.41-2.34,6.16-4.16,1.38-1.43,3.22-2.21,4.74-3.42a28.92,28.92,0,0,0,6.91-7.26c1.53-2.47,3.26-4.81,4.78-7.29s3.07-5,4.36-7.7c1.71-3.55,1.72-7.31,1-11.11-.07-.41-.18-.81-.27-1.21,0-.21-.4-.47-.05-.6s.42.26.49.48A16.13,16.13,0,0,1,156,88.48Z"/><path class="cls-3" d="M169.27,104c0,.35,0,.47,0,.59,0,.27.18.69-.21.74s-.5-.42-.49-.72a5.7,5.7,0,0,0-1.72-4.13,7.07,7.07,0,0,1-1.23-2.15A108,108,0,0,0,160.4,86a59.8,59.8,0,0,1-3.69-7.85,12.78,12.78,0,0,0-3.49-4.61,27,27,0,0,1-2.66-3.26,6.79,6.79,0,0,0-4.8-2.78c-.21,0-.41,0-.62,0s-.45-.07-.45-.33.24-.35.44-.34a6.24,6.24,0,0,1,4,1,12,12,0,0,1,2.55,2.54c1.13,1.59,2.53,2.95,3.77,4.44a13.94,13.94,0,0,1,3.3,6.33,4.21,4.21,0,0,0,.91,2c1.77,2,2.35,4.65,3.58,7,.9,1.67,1.33,3.57,2.33,5.21.54.9.42,2,.81,3a7,7,0,0,0,1.49,2.55A4.1,4.1,0,0,1,169.27,104Z"/><path class="cls-3" d="M127.76,141.68a40.21,40.21,0,0,1,.25-5.39,5.15,5.15,0,0,1,1.16-3,42.72,42.72,0,0,1,4.4-4.91c2.4-2.42,4.79-4.84,7-7.47a4.21,4.21,0,0,1,1.13-1c.22-.12.41-.57.71-.22s0,.57-.21.78c-1,1.08-2,2.16-3,3.21a18.2,18.2,0,0,0-2.83,3.47,6.74,6.74,0,0,1-1.22,1.4,59.93,59.93,0,0,0-5.72,6.41,3.65,3.65,0,0,0-.62,2.25,66,66,0,0,0,.36,11.67c.24,1.5.16,3.06.53,4.57.07.27.1.66-.23.76-.48.14-.52-.34-.57-.63a51.52,51.52,0,0,1-.88-5.9A38.55,38.55,0,0,1,127.76,141.68Z"/><path class="cls-3" d="M141.48,170.52c.6-.73.4-1.68.7-2.49.07-.18,0-.49.32-.44s.22.32.19.52a7.14,7.14,0,0,1-.25,1.22,14,14,0,0,0-.85,4.87c0,.75-.59.66-1,.51s-.7,0-1.12.25a6.73,6.73,0,0,1-4.65,1,2.93,2.93,0,0,1-2-2.56c0-.2,0-.47.28-.49s.17.24.25.37a12.34,12.34,0,0,0,.71,1,2.13,2.13,0,0,0,2.21.79,8.57,8.57,0,0,0,3.14-1.12c.19-.14.48-.14.45-.49-.13-1.86.62-3.58.91-5.38.39-2.41.89-4.81,1.39-7.21a16.31,16.31,0,0,1,.64-2c.05-.16.14-.33.33-.32a.37.37,0,0,1,.34.43c-.26,1.45.29,2.91-.07,4.33-.21.84.29,1.66-.09,2.46-.07.14,0,.38-.24.36s-.22-.25-.19-.41c.28-1.31,0-2.66.25-4,0-.11,0-.32-.05-.33-.23,0-.23.15-.26.3-.48,2.61-1,5.22-1.44,7.84a1.62,1.62,0,0,0,.13,1,3,3,0,0,0-.79,2.71c0,.11.07.31.13.31.22,0,.19-.2.22-.33C141.2,172.32,141.34,171.42,141.48,170.52Z"/><path class="cls-3" d="M122.82,103.05c.77-4.41.64-9,1.32-13.6a49.26,49.26,0,0,0,.33-5.7,23.27,23.27,0,0,1,.74-6.28,3.88,3.88,0,0,1,.11-.49c.16-.33.46-.84.73-.72.42.19-.08.54-.16.81a28.3,28.3,0,0,0-.56,4.19c-.45,2.92-.11,5.89-.55,8.81-.62,4.06-.39,8.2-1.06,12.26,0,.33-.12.65-.18,1s-.11.57-.39.55S122.8,103.48,122.82,103.05Z"/><path class="cls-3" d="M153,109.36a19.51,19.51,0,0,0,2.34-.12,20.06,20.06,0,0,0,7.13-3,7.77,7.77,0,0,1,2.71-.67c.95-.16,2,.36,2.86-.43.2-.18.34.13.31.35a1,1,0,0,1-1.06.86c-.45,0-.91-.06-1.36-.07a6.79,6.79,0,0,0-3.68.94c-1.57.94-3.3,1.55-4.85,2.53a2.69,2.69,0,0,1-1.55.37c-1.95-.05-3.89.16-5.83.23a5,5,0,0,0-2.82.83,2.78,2.78,0,0,1-.67.33c-.23.07-.53.12-.67-.14s.15-.41.32-.55a9.05,9.05,0,0,1,4.94-1.48C151.72,109.31,152.31,109.36,153,109.36Z"/><path class="cls-3" d="M133.48,78.94a5.2,5.2,0,0,1-3.25-2,15,15,0,0,1-1.55-2.53c-.19-.34-.28-.74.12-1s.73,0,.92.37A12.31,12.31,0,0,0,132,76.57a2.24,2.24,0,0,0,2.79.63,7.05,7.05,0,0,1,1.3-.42.61.61,0,0,1,.82.34.57.57,0,0,1-.3.75A9.81,9.81,0,0,1,133.48,78.94Z"/><path class="cls-3" d="M145,69.85a3.22,3.22,0,0,1-.45,1.46,48.22,48.22,0,0,0-4.25,8.54,4.42,4.42,0,0,1-1.31,1.8c-.13.1-.15.47-.41.28s-.09-.42,0-.59c1.88-3,2.69-6.49,4.79-9.37.66-.91,1.28-2.12.18-3.29-.24-.26-.48-.67.06-.91s.62.13.77.52A3.91,3.91,0,0,1,145,69.85Z"/><path class="cls-3" d="M102.81,85.53a.85.85,0,0,1-.28-.15.32.32,0,0,1,.06-.45c1.24-1,1.66-2.53,2.3-3.91.08-.18.17-.42.43-.35a.29.29,0,0,1,.18.4,15.44,15.44,0,0,1-1.92,4A1.16,1.16,0,0,1,102.81,85.53Z"/><path class="cls-3" d="M65.2,188.31c-.09.17-.21.14-.33.12-.92-.19-1.85-.38-2.78-.59-.11,0-.29-.14-.28-.18s.18-.12.29-.1l2.78.59A1.59,1.59,0,0,1,65.2,188.31Z"/></g><g id="flechas"><path class="cls-4" d="M50.09,56c-1.44.49-2.74,2.57-4.06,1,8.94-8.75,16.91,7.62,21.23,14,1,1.29.8-1.78,2.11-1.13.72.21.55.87.42,1.39-.86,3.38-.87,3.38-4.11,3.19-1,.2-1.38-.9-.33-1.17s1.07-1.1.54-1.86C61.4,65.91,58.11,57,50.09,56Z"/></g></svg>