<svg xmlns="http://www.w3.org/2000/svg" viewBox="0 0 200 200"><defs><style>.cls-1{fill:#878787;}.cls-2{fill:#3c3c3b;}.cls-3{fill:#e94e1b;}.cls-4{fill:#ffed00;}</style></defs><g id="color"><path class="cls-1" d="M172.44,146.62a2.08,2.08,0,0,0-.32-1.37h0a2,2,0,0,0,0-.24s0,0,0-.05a1.61,1.61,0,0,0-.14-.62,2.38,2.38,0,0,0-.05-.26,9.87,9.87,0,0,0-4.65-6.24.83.83,0,0,0-.18-.07,47.67,47.67,0,0,0-3.76-5.2c-.05-.07-.14-.17-.23-.27a12.78,12.78,0,0,0-1.33-4.24,4.29,4.29,0,0,0-1.39-1.75,2.46,2.46,0,0,0-.88-.8,27.45,27.45,0,0,0-1.49-2.64,11.25,11.25,0,0,0-.84-2.22,8.34,8.34,0,0,0-1.89-2.53.5.5,0,0,0-.14-.27,14.44,14.44,0,0,0-3.3-2.66l-.12-.08a3.29,3.29,0,0,0-1.31-1.17,12,12,0,0,0-2.08-1c-.52-.43-1.07-.83-1.62-1.2-2.22-1.47-4.77-3.3-7.52-3.54a6.34,6.34,0,0,0-2.8.39,20.81,20.81,0,0,0-4.22.58l-1,.23a24.62,24.62,0,0,0-3,.65l-.23,0c-2.61-.34-5,.74-7.46,1.86A78.5,78.5,0,0,1,108,113.34l-.18-.38a1.48,1.48,0,0,0-.41-.49l-.09-.61a.73.73,0,0,0-.23-.39c0-.14,0-.27-.07-.41s-.47-.56-1-.93a4.92,4.92,0,0,1,.21-.65c.08-.18-.08-.4-.19-.51a2.42,2.42,0,0,0-1.65-.65c-.17,0-.4.05-.48.24s-.06.2-.1.3a5.34,5.34,0,0,0-1-.47c0,.08,0,.15,0,.22-.17-.07-.67-.27-.66-.21.06.37.1.73.14,1.1a2.13,2.13,0,0,0-1.19-.27,4.89,4.89,0,0,1-1.94,0l-.08,0s0-.13,0-.31a2.55,2.55,0,0,0-3.08-1.57,2.25,2.25,0,0,1-1.78,0c-.3-.58-.58-1.15-.85-1.74a3.32,3.32,0,0,0-.62-.88,13.08,13.08,0,0,1,2.31-1.54,2.16,2.16,0,0,0,.89-3.08,44.47,44.47,0,0,1-3-4.48,2.07,2.07,0,0,0-.17-.24c-.42-1.42-.78-2.86-1.07-4.32a2.49,2.49,0,0,0-2.75-1.61,2.39,2.39,0,0,0-2.16,2.2,2.59,2.59,0,0,1-.33.89l0,0a2.35,2.35,0,0,0-.42-.15c-2.83-.59-4.39,2-4.47,4.5-.12,0-.22-.07-.21-.05.07.25.16.49.23.73s0,.21,0,.32a14.27,14.27,0,0,0,1.38,4.26,5.59,5.59,0,0,0,1.92,2c.48,1,1,2,1.58,3,1,1.73,1.93,3.45,3,5.11a3,3,0,0,0,.87.84h0c-.06,0-.51-.2-.33,0l1.26,1.62a6.23,6.23,0,0,0,1.11,1.42q3,3.77,6.22,7.34a1.29,1.29,0,0,0,.17.16l1,1.37a4.47,4.47,0,0,0,1.26,1.08,114.93,114.93,0,0,0-12.26,13.26,2.51,2.51,0,0,0-1,.46l-1.71,1.28c-1.57.48-3.12,1-4.64,1.62a43.59,43.59,0,0,0-6.75,3.66c-3.67,2.34-7.58,5.31-12.11,5.4-1.4,0-2.76.91-2.43,2.45l.42,1.94a12.39,12.39,0,0,1-1.27.3,10.29,10.29,0,0,0-3.24,1.11,4.76,4.76,0,0,0-.47.31c-1.24,0-2.52.63-2.61,1.91a4.51,4.51,0,0,0,0,.52,3.23,3.23,0,0,0-2.92,1.86l-.16.47-1.84.79a4.41,4.41,0,0,0-.56.3.45.45,0,0,0-.28,0c-.6.24-1.22.45-1.84.64a8.28,8.28,0,0,0-2.76-.3l-.39-.92a1.41,1.41,0,0,0-1.25-.91c-.05-.14-.09-.29-.15-.43-.83-2-4.73-.4-4.71,1.46a25.5,25.5,0,0,0,.37,3.91,6.23,6.23,0,0,0,.87,3.56,25.24,25.24,0,0,0,3.37,6.8,1.22,1.22,0,0,0,0,.33A12.43,12.43,0,0,0,43.22,184a3.37,3.37,0,0,0,.81.87,10.21,10.21,0,0,0,.77.69,2.41,2.41,0,0,0,2.23.37,16.4,16.4,0,0,0,1.81.11,5.2,5.2,0,0,1,2.76.94,4.27,4.27,0,0,0,4.45-.24c.66-.4,1.82-1.86.83-2.57s-2-1.47-3-2.24c.43-.24.73-.57.39-.94a32.31,32.31,0,0,1-4.3-6l-.4-.91a.35.35,0,0,0,0-.11c0-.14-.1-.26-.15-.4a1,1,0,0,0,.22-.14l1.29-1.79a26.74,26.74,0,0,0,4.67-3.28,1.92,1.92,0,0,0,.5-.7,4.41,4.41,0,0,0,.66-.43c.2-.17.42-.32.63-.48.11.05.23.09.34.15.75.37,1.45.83,2.21,1.18a20.47,20.47,0,0,0,5,1.63,22.19,22.19,0,0,0,10.94-.7,19.09,19.09,0,0,0,2.74-1.16c-.58,2.67-.35,5.25,2.78,5.87.92.18,4.26.09,4.52-1.15a35,35,0,0,1,3.26-9L91,161.62l.2-.1c.66-.4,1.37-.89,2.12-1.32.13,0,.25-.1.37-.15l.11,0a7.52,7.52,0,0,1,5.74,6c.57,2.83-.09,6.17,1.62,8.68a5.76,5.76,0,0,0,4.58,2.38c.69.5,1.89,1.28,2.6,1,5.34-2.13,11.08-2.17,16.75-2.58a1.4,1.4,0,0,0,1.05.43,24.54,24.54,0,0,0,6.68-.93l.11.12c.23.2.72.69,1,.63a31.93,31.93,0,0,0,10.07-3.56,2.82,2.82,0,0,0,1.17-.13,30.73,30.73,0,0,0,11-6.66,4.47,4.47,0,0,0,.42-.45,1.65,1.65,0,0,0,.25-.15,4.06,4.06,0,0,0,1.31-3.73c1.36-1.05,1-2.59.34-4.08s-1.34-3-1.95-4.6c-.78-2-1.49-4-2.14-6,0-.31-.11-.61-.16-.92,0-.13,0-.25-.05-.38a3.5,3.5,0,0,0,.38.39,4.91,4.91,0,0,0,3,1l.25.11a3.36,3.36,0,0,0,.45.14c.24.11.48.19.72.28a3.82,3.82,0,0,0,1.48.5l.15.05a4.65,4.65,0,0,0,1.5.73c.5.12,1,.22,1.51.29l.36,0c.48,0,1,0,1.46,0h.18c.34,0,.68-.08,1-.13a8.15,8.15,0,0,0,1-.15l.13,0h0c1,0,2.81.15,3.89-.48.51-.12.91-.43.84-1A1.29,1.29,0,0,0,172.44,146.62Zm-47.31-32.19.55-.12-1.46.79c-.25,0-.5,0-.75.06C124,114.93,124.58,114.69,125.13,114.43Z"/><path class="cls-1" d="M101.88,78.69a1.07,1.07,0,0,0-.6-.19,4.23,4.23,0,0,0-.71,0,2.45,2.45,0,0,0-.29-.35c-.06-.06-.23-.27-.32-.23-.37.19-.74.35-1.12.5a2,2,0,0,0-1.46-.89h-.13a3.32,3.32,0,0,0-.62-.32c-.71-.24-1,.23-1.12.8l-.15,0a.87.87,0,0,0-.38.15,10.85,10.85,0,0,0-3.93,2.55,31.55,31.55,0,0,0-2.47,2.16,1.18,1.18,0,0,0-.3.1,4.61,4.61,0,0,0-1.85,1.22c-.12.06-.14.13-.08.22a.35.35,0,0,0,.26.25,2.7,2.7,0,0,0,.61.25,4.4,4.4,0,0,0,.62.18,4.6,4.6,0,0,0,.77,1.55c.51.65,1.44,1.56,2.2.78.16-.17.33-.33.5-.5a23.73,23.73,0,0,1,2-1.66l3.23-.23a1.68,1.68,0,0,0,1.65.7,1.34,1.34,0,0,0,.8-.75,3.15,3.15,0,0,0,.24-.67l.06-.14a2.47,2.47,0,0,0,.32-2.3,1.08,1.08,0,0,0,.29-.51,2.15,2.15,0,0,0,0-.76,17,17,0,0,0,1.58-.67c.07,0-.12-.39-.11-.37s-.12-.22-.19-.33a1.54,1.54,0,0,0,.66-.27C101.89,78.94,102,78.8,101.88,78.69Z"/></g><g id="destacado"><path class="cls-2" d="M167.94,117.19a6.27,6.27,0,0,0-.56-1.75l0,0a1.24,1.24,0,0,0-.1-.36,2.49,2.49,0,0,0-.71-1.51,2.9,2.9,0,0,0-1.76-.73c-1.54-.17-2.66,1.13-3.15,2.41-.24.63-.35,1.31-.56,1.94-.11.34-.24.68-.37,1h0l-.12.26a2.65,2.65,0,0,0-.53.27c0-.51,0-1,0-1.55v-.39c0-.11,0-.22,0-.34l-.51-.25-.25-.12a.15.15,0,0,1-.05-.07s0-.06,0-.09,0,.09,0,.11,0,.62,0,.65c0,.59,0,1.18,0,1.77v1.2l-.17.14a2.57,2.57,0,0,0,0,3.54l.06,0c.11.17.22.34.32.52l.06.12c0,.18.11.35.16.53a2.38,2.38,0,0,0,1,1.37c0,.19,0,.39,0,.59s0,.34,0,.52h0a.31.31,0,0,0,0,.1.61.61,0,0,0,.12.16c.09.1.2.18.29.28a3.69,3.69,0,0,1,.29.4c.19.23.5.35.73.1a1.72,1.72,0,0,0,.22-.37c.08-.16.15-.32.22-.48.14-.33.26-.68.37-1a3,3,0,0,0,1.31-1.06,22,22,0,0,0,1.55-2.3,16.92,16.92,0,0,0,.76-1.68l.11-.26,0-.1h0a3,3,0,0,1,.16-.31,1.76,1.76,0,0,1,.14-.23s0,0,0,0l.21-.24a4.35,4.35,0,0,0,.32-.43A3.41,3.41,0,0,0,167.94,117.19Z"/><path class="cls-3" d="M85.74,83.85a4.14,4.14,0,0,0-1.55-4.1,2.92,2.92,0,0,0-2.17-.6c-.65.09-1.18.58-1.8.69a1.39,1.39,0,0,0-.56.27,5.77,5.77,0,0,1-.9-.19,5.85,5.85,0,0,1-1.15-.51,5.57,5.57,0,0,1-.84-.67c-1-1-2.09-2.16-3.61-2.12a7.79,7.79,0,0,0-2.1.57L69,77.86c-2,.66-.81,3.81.7,4.42s3,1.32,4.44,2.08a3,3,0,0,0,1.5.66l.17.15.08.06a9.54,9.54,0,0,0,.67,3.56,7.67,7.67,0,0,0,2.4,3.45c2.54,1.91,5.36.74,7.52-1.09,1.05-.9,1.94-1.75,2-3.23A4.32,4.32,0,0,0,85.74,83.85Z"/><path class="cls-3" d="M105.35,98.78a2.28,2.28,0,0,0-.42-1.17c0-.06-.24-.31-.44-.55a3.21,3.21,0,0,0-.56-.94c-.74-.84-2.31-1.79-3.49-1.32a1.16,1.16,0,0,0-.61,1.78c0,.09.12.16.17.25a.62.62,0,0,1,0,.16c-.08.28-.27.67-.4,1-.34.8-.67,1.61-1,2.4-.07.16-.14.32-.22.47s-.17.25-.18.28a3.07,3.07,0,0,1-.67.46,4.73,4.73,0,0,0-1.69,1.35.78.78,0,0,0-.12.4,8.87,8.87,0,0,0-1.49,2.06c-.56,1,.58,2.14,1.36,2.58s2.06.88,2.74.21a5.59,5.59,0,0,0,1.43.82,3.33,3.33,0,0,0,4.78-3.15c0-1.06-.27-2.18-.26-3.14a21.13,21.13,0,0,1,.86-2.87A2.6,2.6,0,0,0,105.35,98.78Z"/></g><g id="Capa_3" data-name="Capa 3"><path class="cls-2" d="M91.72,114.74c-3.83-5.88-8.53-11.23-9.81-18.48-.36-2,.46-3.23,2.56-2.93a1.79,1.79,0,0,0,1.92-.87C87,91.6,88,91,88.66,90.07c.51-.65,1.29-.72,1.92.32a12.43,12.43,0,0,1,2,4.75,6.47,6.47,0,0,0,1.16,3.36c2.4,3,2.37,3-.8,4.91-.45.27-.88.59-1.32.88s-.86.64-.76,1.28a1.21,1.21,0,0,0,1.22,1.05c.63,0,.77.58,1.1.83,1.11.86,1.67,3.51,4,1.66.18-.14,1-1.09,1,.19s.82,1,1.63.92,1.55-1,1.94-.27-.08,1.74-.62,2.53a13.79,13.79,0,0,0-1.88,4.91c1.22-2.1,2.87-4,3.15-6.52.07-.56.34-1.27,1-1.2s.4.79.51,1.23c.16.61.24,1.25.43,2.29.56-1.93-.6-3.73.89-5a2.18,2.18,0,0,0,.14,2.29l4.3,6c.32.46.77.68,1.23.35s.13-1-1.26-2.85c.92.28,4.58-.43,5.31-.51.24-.64-.21-1-.55-1.38-4,.43-8.84,1.31-9-8.29,0-2.81.65-4.33,3.34-3.89a9.85,9.85,0,0,0,2.58.24c2.68-.3,4.68.19,6.55,2.62,2.57,3.34,4,4.43,6.15,8.07a3.47,3.47,0,0,0,.56.59c.19-.19.52-.36.55-.57.22-1.36,2.84.36,3.88-.06a30.36,30.36,0,0,1,7.47-1.6c.56-.07,1.72.42,1.62-.54s-1.29-.64-2-.57c-3.09.32-7.78,1.68-10.51.18a1.94,1.94,0,0,1-2.52-.7c-2.19-2.61-2.48-3.55-5.12-5.79-.63-.53-1.56-1.84-1.43-2,1.18-1.36.85-3.06,1.21-4.57a86.08,86.08,0,0,0,2.7-20.34c0-3.46-.36-7,1-10.32a3.27,3.27,0,0,0-.19-2.83c-1.14-2-1-4.19-1.33-6.32a27.49,27.49,0,0,0-.87-5.27c-1.49-4.13-4.11-7.73-5.85-11.72-2.11-4.85-6.61-4-10.41-5-.12,0-.29.19-.57.38a13,13,0,0,0,5.27,1.33c2.12,0,3.34,1.12,4.29,2.86,1.85,3.38,3.87,6.68,5.63,10.11a19.46,19.46,0,0,1,1.81,8.25l-1.19-1.46a34.42,34.42,0,0,1,2,13.93c-.65,9.66-.92,19.27-3.72,28.61-2.12-2.4-8.36-5.76-12.5-5.17-4.39.62-4.51-1.29-4.19-4.34.15-1.46,0-3.36.78-4.24,1.17-1.23.1-1.58-.34-1.93-.73-.58-1.63,0-2.45.16-.16,0-.43.43-.39.48.28.38.63.7.94,1.06s1.43-.6,1.26.49a1.59,1.59,0,0,1-1.91,1.19c-2.69-1-4.63.2-6.76,1.59-1.53,1-2.07-1.06-3-1.73s.31-1,.65-1.29c2.07-1.7,4.18-3.37,6.34-5,1.48-1.09,3-1.32,4.24.44-.44.17-.82.75-1.37.17a.73.73,0,0,0-.91-.23c-.59.31,0,.68-.06,1,0,.62.21,1.24.86,1,1.43-.59,3.81.72,4.27-1.69A15.69,15.69,0,0,0,101.4,72c-.61,1.53,0,2.69-.07,3.84,0,.69.36,1.65-.39,2-.46.2-1.28-.22-1.86-.52-3.8-1.93-7-.93-9.08,2.85-1.09,2-2.56,2.22-3.74.35-1.51-2.38-3.42-3-5.93-1.85a2.46,2.46,0,0,1-2.58-.31,48.22,48.22,0,0,1-8.81-7.15c-2.86-3.1-3.41-6-1.86-9.82A114.91,114.91,0,0,1,72.78,50c.49-.92.77-2.1-.34-2.52s-1.36.89-1.58,1.63c-1.44,4.84-4,9.2-5.71,13.93-.13.35-.06,1.07-.61,1-.3-.07-.62-.74-.67-1.17-.49-4-1-8-1.31-12.05-.17-2.62.6-5.32-.69-7.84-.26-.52-.39-1.53-1-1.37s-.88,1.18-.77,1.89c.35,2.14.92,4.25,1.21,6.4.51,3.78,1.65,7.51,1.37,11.9a18.76,18.76,0,0,1-1.29-6.05c.17,1.43-.51,2.73-.28,4.22.53,3.45,3.3,5.49,4.89,8.26a25.25,25.25,0,0,0,4.56,6.28c.51.47,1.7.58,1.49,1.34s-1.29.93-2.1,1c-3.44.33-6.88.6-10.32.9a1.63,1.63,0,0,0-1.42.7,3.35,3.35,0,0,1-5.11.18,7.26,7.26,0,0,0-2.17-1.73c-1.94-1-2.19-2.69-2.4-4.46s-.31-3.75-.46-5.62c-.39-4.7-1-9.34.45-14.06,1.86-6.09,5.59-11,9.35-15.88,2.41-3.13,4.49-7.2,9.73-5.4.1,0,.31-.26.47-.4-.2-.2-.36-.52-.6-.58a5.53,5.53,0,0,0-4.46.24c-4,2.3-6.15,6.29-8.84,9.78C48.55,47.71,45.24,55.56,47,65c.29,1.55.13,3.18.27,4.76.26,3.16-.24,6.63,3.21,8.59,1.67,1,3.3,2.09,5.26,2.35a36.78,36.78,0,0,1,7.66,2,3,3,0,0,0,3-.43c0-.86-.8.31-.68-.5.06-.41.42-.62.9-.41a22.46,22.46,0,0,1,2.26,1c3,1.65,6.58,2.68,7.45,6.69.46,2.11,1.43,3.75,3.64,4.42.58.18.62.75.42,1.22-1,2.43-.18,4.66,1.07,6.61,3.88,6,6.39,13,11.32,18.28,2.21,2.38,3.57,6.31,8,5.85A52.13,52.13,0,0,1,91.72,114.74Zm6-7.31c.92-.73,1.68-1.72,3-1.85.07,0,.3.36.26.42C100.14,107.12,98.75,106.88,97.71,107.43Zm3.38.81c.69-.52.49-1.78,1.69-1.3a1.33,1.33,0,0,1,.5.37C102.84,108.08,102.07,108.12,101.09,108.24Zm4.54-12c-1.33.23-1.83-.55-2.67-1.63A4.43,4.43,0,0,1,105.63,96.28Zm-5.39.23a9.1,9.1,0,0,1,.28-1.82c.44,2,2.24,1,3.21,1.86.69.61,1.19,1,.9,2-.63,2.18-1.29,4.36-.5,6.66.12.36.2.91-.52.92-1.12,0-.48-.93-.77-1.42-.67,0-.55,1.09-1.31.75s-.88-1-.81-1.88c-.59.49-1.11.87-1.4.62-.59,2.11-2.8,1.88-4.14,2.79,1-1.11,2.6-1.71,2.89-3.39-.75-.28-1.29,1.37-1.95.2s.76-1.41,1.27-1.56C100.5,101.31,100.47,99,100.24,96.51Zm-6.42-10.1c.78-.78,1.59-.41,2.38,0,.09,0,.18.12.27.11,3.38-.31,2.39,2.11,2.43,4.25.69,1.66-.94,3.6-.21,5.68.18.51,0,1.59-.83,1.61s-2.1.34-2.77-.77c-1.38-2.3-1.7-5-3.1-7.39C91.3,88.76,92.83,87.41,93.82,86.41Zm5.82-7c.52.2.93-1.19,1.47-.11,0,.12-.24.53-.45.63A1.1,1.1,0,0,1,99,79.2ZM61.88,47.85a11.14,11.14,0,0,1-.73-4.63A6.1,6.1,0,0,1,61.88,47.85ZM86.22,90.11a4.82,4.82,0,0,1-3-2.87c0-.12.26-.34.39-.52l3.28,3C86.78,90.08,86.55,90.24,86.22,90.11Zm1.39-3c.34.12.74.44.49.87-.07.12-.63.08-.9,0a3.62,3.62,0,0,1-2.44-2.77A6.58,6.58,0,0,0,87.61,87.06Zm-6.39,1.12a.66.66,0,0,0-1-.32c-.37.2-.9.39-1,.71-.25.65.49.35.74.56.71.62.31,1.18-.07,1.77-.55.85-.89.12-1.21-.18A2,2,0,0,1,78,89.65c-.41-5.05-4.63-6.5-8.13-8.57-1.38-.82-1.47-1.24-.08-2A18.06,18.06,0,0,0,72,77.27a1.55,1.55,0,0,1,2.11.11,40.69,40.69,0,0,1,4.31,3.37c.83.85,1.75-.15,2.52-.61a2.42,2.42,0,0,1,2.83.21,2.76,2.76,0,0,1,1.41,1.51,2.14,2.14,0,0,0-.51.4c-.63.9-1.86,1.5-1.3,3,.23.63-.23,1-.95.66-1.32-.59-1.31.09-1,1a7,7,0,0,0,2.93,3.8c.31.2.81.48.47.88s-.63-.15-.85-.37C83,90.3,81.8,89.53,81.22,88.18Z"/><path class="cls-2" d="M89,139.27c3.08-2.74,5.64-6,8.55-8.83a82.85,82.85,0,0,1,13.59-11c6.81-4.36,19.32-6.19,26.45.66,2.4,2.3,4.34,5.12,7.35,6.89,3.78,2.21,6.67,5.28,7.21,9.94.08.64.43,1,1.07.84s.68-.7.48-1.28-.35-1.17-.68-2.32a8.6,8.6,0,0,1,1.65,3.39c.09.23.34.4.53.6.1-.24.31-.49.3-.72a6.86,6.86,0,0,0-1.58-4.38c-3.14-3.78-7.23-6.52-10.68-10-2.59-2.58-5.19-5.32-8.51-6.83-8.62-3.92-16.88-2.53-24.76,2.37a86,86,0,0,0-9.24,6.71l0,0h0l0,0c-2,2.09-4.14,4.15-6.14,6.28-3,3.16-5.69,6.59-9.57,8.77-2.47,1.39-5.44,1.31-7.89,2.8-2.7,1.63-5,3.89-8.18,4.81a77.61,77.61,0,0,0-8.47,3.35c-1.22.52-2.31,1.61-1.44,2.81,1.39,1.92-.27,1.52-1,1.61-2.58.33-5,.84-6.9,2.89-.55.61-.87,1.19,0,1.63a9.6,9.6,0,0,1,4.37,4.06c.18.36.59.61,1,.28.21-.19.41-.68.31-.87a20.7,20.7,0,0,0-1.89-3.05c-.46-.58-1.51-.89-1.42-1.69s1.21-.71,1.89-1c.31-.13.63-.43.92-.4,2,.23,4.07-2.38,6.15-.07a.63.63,0,0,0,.92-.11.68.68,0,0,0-.1-1,26.42,26.42,0,0,0-2.12-2c-.87-.68-.67-1.14.15-1.63a21.45,21.45,0,0,1,4.61-1.64c2.65-.84,5.54-1.15,7.62-3.29a15.4,15.4,0,0,1,7.25-4.51A19.23,19.23,0,0,0,89,139.27Z"/><path class="cls-2" d="M51,175.94c-1.56-2-.66-4.35,2-5.05-.48,1-1.65,1.38-1.92,3a37.53,37.53,0,0,1,5.32-5.21.75.75,0,0,0,.09-.74c-.28-.42-.67-.18-1,0a12.92,12.92,0,0,0-5.85,4.57c-.38.58-.75,1.37-1.91.78a88.12,88.12,0,0,1,7.59,11.36c.4.67,1,1.36.43,2.1s-1.39.54-2.26.42c-2.6-.37-3.92-2.05-4.81-4.28-.14-.35-.29-.81-.76-.74s.13.61-.27.85c-.19-.2-.37-.42-.56-.63-.36-.38-.51-1.45-1.12-1s.17,1.23.57,1.66c.86.9,2,1.53,2.66,2.76-4.67.23-5.69-.34-7-4a88.09,88.09,0,0,0-4.48-10.2,14.79,14.79,0,0,1-1.47-6.15,3.23,3.23,0,0,1,2.06-3.35c1.3-.47,2.42.44,3.31,1.35,1.18,1.21,2.26,2.5,3.42,3.74.32.34.78.78,1.25.42s0-.79-.18-1.17c-.65-1.51-.63-1.66-.26-1.6,1.33.2,2.27-.67,3.39-1s1.73-.65,1.68-1.77c0-.51-.52-.56-2.09.4-2.75,1.7-5.22,2-7.47-.8a4.42,4.42,0,0,0-1.57-1c-2.14-1-4-.09-4.46,2.23a7.57,7.57,0,0,0-.27,2.44c1,7.46,3.18,14.51,7.91,20.54,1.26,1.61,2.94,2.59,5.08,2a6.77,6.77,0,0,1,4.68.36c1.77.74,3.44.74,4.57-.83s.34-3.24-.81-4.48C54.51,180.68,52.83,178.27,51,175.94Z"/><path class="cls-2" d="M36.7,131c2.12,3.11,4.75,4.4,8.07,3.52.61-.17,1.63-.28,1.37-1.14s-1-.12-1.54,0c-2.37.66-5.86-.39-6.29-2.25a15.8,15.8,0,0,1-.06-5,84.69,84.69,0,0,1,3-17A8.23,8.23,0,0,0,39,113.47a118.5,118.5,0,0,0-2,14.78c0,.36-.12.94-.33,1-.49.17-.7-.38-.94-.71-2.24-3-2.55-6.59-2.09-10.11.7-5.29,3.26-10,5.54-14.72,2-4.23,4.57-8.22,5.67-12.92-.75,1.47-1.4,3-2.26,4.4a107.15,107.15,0,0,0-9.37,19.89,17.67,17.67,0,0,0-.14,10.72c.47,1.76,0,1.59-1.29,1.49-4.28-.34-8.57-.47-12.84-.83-4.8-.41-9.66-.47-14.34-1.83-.4-.12-.94-.34-1.09.27s.39.89,1,1c4.5.53,9,1.19,13.51,1.55,4.13.33,8.28.4,12.42.46A7.25,7.25,0,0,1,36.7,131Z"/><path class="cls-2" d="M198.55,150.87c-4.81-.41-9.62-.85-14.44-1.18-4.21-.28-8.42-.43-12.64-.64,2.05-.88,2.38-2.35,1.89-4.32a8.26,8.26,0,0,0-2.33-4.39,32.91,32.91,0,0,1-8.22-10.62c-.21-.45-.61-1.09-1.21-.71s-.31.93,0,1.42c2,3.24,3.92,6.5,6.81,9.1a10.62,10.62,0,0,1,2.78,3.57c1.23,2.84.92,5.05-1.17,5.2-4,.3-8,.26-11.49-1.5-.45-.27-1.15-.65-1.83-1.11a12.81,12.81,0,0,1-1.37-1.13,2,2,0,0,1-.61-1.36,1.11,1.11,0,0,0-.79-.88c0-.12,0-.14,0,0-2.68,0-1.57,3,.24,3.65.31,5.37,5.6,12.76,2.57,17.93-11.54,10.42-26.22,12.2-40.62,11.7-5.25,1.22-14.14,4.27-15.77-3.33-1.17-4.25,1.56-10.72-3.22-12.18-6.16-1.87-11.39,8-13.76,13.61,0,0,0,0,0,0-10.79-1.55,2.18-22.45,6.78-23.44,3.07-.67,6.17,5,9,.84.82-2,28.37-9.3,19.17-8.69-6.58,1.86-13.21,3.39-19.57,5.9-2.46,1.25-2.22,3.13-5,.38-2.18-1.36-6.52-.08-8.1,2.58-1.75,2.49-2.31,4.5-4.14,7.34-3,4.73-5.48,8.35-4,13.74,2.8,3.86,5.08,3,6.66,2.14,4.73-2.66,5.43-18.53,13.53-11.4,2.2,18.25,4.69,16.15,21,13.32,13.46,1,28-2,38.93-10.89,4.86-5.44-1.46-13.44-2.31-19.19a2.85,2.85,0,0,1,.4,0,2,2,0,0,0,.68.33l1,.27a3.87,3.87,0,0,0,1.21.35h0a50.17,50.17,0,0,0,11.2,2.29c9.64.53,19.25,1.44,28.88,2.18.42,0,1.2.29,1.24-.27S199,150.91,198.55,150.87Z"/><path class="cls-2" d="M45.9,124.73c.11,3.32.12,6.66,1.89,9.69s6.71,4.71,9.77,3.39a1.64,1.64,0,0,0,1-1.35c-6,1.67-9.87-.26-11-5.4-1-4.77-.86-9.6-.64-14.43.3-6.51,1.16-13,.16-19.52C46.36,92.41,46.7,88,49.38,84a10.22,10.22,0,0,0,1-3.15c.11-.42.59-1.14-.29-1.27-.73-.1-.71.62-.84,1.12-.39,1.44-.83,2.87-1.19,4.31-.47,1.86-2.17,3.23-2.06,5.32.15,3,.22,6.07.36,9.11C46.76,107.86,45.61,116.28,45.9,124.73Z"/><path class="cls-2" d="M61.15,137.45c-.36,0-.91-.17-1,.34s.5.49.87.53a20.5,20.5,0,0,0,14.35-3.15,18.32,18.32,0,0,1,15.07-2.7c2.2.57,2.6-.43,2.76-2.28-1,2-2.45,1.25-3.93,1A16.58,16.58,0,0,0,84.7,131a23.51,23.51,0,0,0-10.7,4C70.25,137.6,65.58,137.39,61.15,137.45Z"/><path class="cls-2" d="M63.09,100.75c-2.94-4.82-6.11-9.5-10.46-13.23-.34-.29-.79-1.07-1.25-.55s.32.9.68,1.25a38.91,38.91,0,0,1,3.32,3.22,72.57,72.57,0,0,1,8.27,12.16c2.53,5,6.42,9.39,7.38,15.33a8,8,0,0,0-1.17-6.39C67.52,108.66,65.45,104.62,63.09,100.75Z"/><path class="cls-2" d="M78.64,128.49V95.91A270.34,270.34,0,0,0,78.64,128.49Z"/><path class="cls-2" d="M77.37,125.69A102.76,102.76,0,0,1,76.61,95C74.62,99.94,75.19,122.61,77.37,125.69Z"/><path class="cls-2" d="M40.44,174.26l2.46,5,.47-.24-2.46-4.93Z"/><path class="cls-2" d="M145.18,111.88c3.41,1.05,6.1,3.32,8.62,5.59,3.29,3,5.38,6.93,7.1,11.06.56-1,.59-1,.21-2a29.25,29.25,0,0,0-2.35-4.87.66.66,0,0,0,.09-.29c0-.53.47-1,.58-1.55a11.72,11.72,0,0,0,.11-2c0-.12,0-.24,0-.35a1.55,1.55,0,0,1,0,.21,6.7,6.7,0,0,0,.21,1,.63.63,0,0,0,.92.37,4.4,4.4,0,0,0,1.62-3c.11-.54.21-1.08.33-1.62.05-.24.1-.54.18-.83.07.59.27,1.08,1.11,1,.68-.1.63-.61.85-1.11a1.28,1.28,0,0,1,.11-.2l.32.13a6.14,6.14,0,0,1,.74.3c.12.19,0,.66.08.9a1.65,1.65,0,0,0,.46.7c.47.45,1.11.83,1.06,1.56a9.5,9.5,0,0,1-1.79,4.28.61.61,0,0,0-.05.51,11.63,11.63,0,0,1-.63,1,15.24,15.24,0,0,1-1.32,1.68c-.84,1-1.44,2.14-2.23,3.18-.48.64.61,1.27,1.08.63.66-.88,1.16-1.87,1.86-2.72a24.86,24.86,0,0,0,1.84-2.36,3.77,3.77,0,0,0,.74-1.65,11.85,11.85,0,0,0,1.05-1.84,9.64,9.64,0,0,0,.63-2.17,2.38,2.38,0,0,0-.38-2,5.89,5.89,0,0,0-.72-.78.88.88,0,0,1-.42-.83,1.46,1.46,0,0,0-1.09-1.37c-.55-.23-1.21-.64-1.8-.34a2,2,0,0,0-.36.34A1.76,1.76,0,0,0,164,112a.64.64,0,0,0-.77-.44c-1.28.45-1.52,1.73-1.77,2.92a14.51,14.51,0,0,1-.6,2.65,2.91,2.91,0,0,0-.53-1.55,1,1,0,0,0-1.54.06c-.58.76-.44,1.95-.45,2.84a3.83,3.83,0,0,1-.32,1.74c0,.06-.05.11-.07.16a25.52,25.52,0,0,0-12.2-9.5c-.53-.2-1.24-.67-1.55,0S144.71,111.73,145.18,111.88Z"/><path class="cls-4" d="M54.41,133.05c.36.26.76-.51,1.09-.83s.68-1.61,1.31-1-.21,1.29-.66,1.83a1.21,1.21,0,0,1-.16.16c-.65.48-1,1.45-1.75,1.59-1,.18-.93-1.11-1.55-1.46a12.35,12.35,0,0,1-3.57-3.52c-.17-.22-.53-.53-.24-.78s.58.17.78.4a16.82,16.82,0,0,0,3.23,2.87c.31,0,.06-1.47.07-1.68a43.68,43.68,0,0,0-.22-5.71c-.12-2.32-.33-3.93-.33-4.82a59.09,59.09,0,0,0-.46-6.4c-.36-4.07-.65-8.15-.75-12.25,0-1.86-.26-3.73-.42-5.59a1.28,1.28,0,0,1,.07-.89c.23-.33,0-1,.33-1,.5,0,.53.69.56,1.12.2,2.86.36,5.73.53,8.59.11,1.87.27,3.78.41,5.59.24,3,.26,5.13.63,7.68a119.58,119.58,0,0,1,.78,12.7C54.1,129.92,54.06,132.79,54.41,133.05Z"/></g></svg>