<svg xmlns="http://www.w3.org/2000/svg" viewBox="0 0 200 200"><defs><style>.cls-1{fill:#878787;}.cls-2{fill:#ffed00;}.cls-3{fill:#e94e1b;}</style></defs><g id="color"><path class="cls-1" d="M98.68,65.13l-.82-1a1.52,1.52,0,0,0-.32-.4,1.12,1.12,0,0,0-.11-.26q-2.73-4.76-5.92-9.2c-.68-1.34-1.37-2.68-2.09-4a11.11,11.11,0,0,0-3.8-4.34c-.66-1.06-1.31-2.12-2-3.17a6.36,6.36,0,0,0-1.31-3.47,21.71,21.71,0,0,0-3.88-4.56c-.09-.07-.32-.31-.56-.48a3.53,3.53,0,0,0-.06-.42,6.15,6.15,0,0,0-1.51-2.41c-.36-.4-1-1.2-1.61-1.07-.26.05-.51.12-.76.19a1.51,1.51,0,0,0-.47-.25L73,30.15a3.62,3.62,0,0,0-1.27,0H71.6l-.46.13a23.36,23.36,0,0,0-3-1.91,4.92,4.92,0,0,0-3.38-.78,2.08,2.08,0,0,0-1.64,2,.41.41,0,0,0,0,.34l0,.1s0,0,0,0a5.83,5.83,0,0,1-1.32.69,8.68,8.68,0,0,1-2.28.68c-.9.14,1.75,3.85,2.7,4A10.86,10.86,0,0,1,66.37,37a7,7,0,0,0,2.29,2.34,1.21,1.21,0,0,1,.09.2,12.47,12.47,0,0,0,1,3.46c.09.19.19.38.29.56q.07.72.12,1.44l-.46.47c-.27-.15-.6-.27-.83-.08q-3.66,3-7.06,6.4c-.22-.2-.4-.31-.49-.21C60.1,53,59,54.42,57.83,55.85l-.2.2s0,.06,0,.09c-1.33,1.69-2.62,3.42-3.87,5.17-.65.84-1.29,1.7-1.89,2.58a1.48,1.48,0,0,0-.38.37l-2.67,3.79a2.28,2.28,0,0,0-.32.69.4.4,0,0,0-.33.25l-.51,1.76a4.68,4.68,0,0,0-1.38.41,2.9,2.9,0,0,0-.78.57,3.74,3.74,0,0,0-1.05,3c0,.1.09.16.19.22a6.34,6.34,0,0,0-.2,2.74c0,.14-.1.28-.14.42a1.56,1.56,0,0,0-1,.78L36.19,94.64a1,1,0,0,0,0,.93c-.13.36-.28.72-.4,1.08a1.65,1.65,0,0,0-.67.9c-1.33,3.8-2.57,7.62-3.76,11.46l-3.48-2c-1.6-.94-4.16-3-6-1.44a4.34,4.34,0,0,0-1.07,2.07c-.27.75-.58,1.49-.92,2.22a21.88,21.88,0,0,1-2.48,4.08A2,2,0,0,0,17,115,7.65,7.65,0,0,0,15,120.4a3,3,0,0,0,2.48,2.52,1.69,1.69,0,0,0,2-1.92v-.06l0-.24a3,3,0,0,1,.07-.32l.09-.22a1.53,1.53,0,0,0,1.07-.6,14,14,0,0,1,.92-1.12l.17-.18.12-.12c.17-.16.35-.33.53-.48A13.72,13.72,0,0,1,24.82,116l.64-.34h0l.36-.16a3.82,3.82,0,0,1,.36-.13,2.75,2.75,0,0,0,1,.65,7.41,7.41,0,0,0,2.06.61h.16A31.35,31.35,0,0,0,29,119.8a.79.79,0,0,0-.35.38,1.86,1.86,0,0,0,.23,1.63v0h0A1.88,1.88,0,0,0,29,122c.18.25,1,.21,1.22.2a4.91,4.91,0,0,0,.67-.08,2.27,2.27,0,0,0,.77.08,4.65,4.65,0,0,0,.75-.08l.07.09a2.92,2.92,0,0,0,2.85.69,1.55,1.55,0,0,0,.5.41A3,3,0,0,0,40,120.86l.45-.59,1.2-1.56a15.39,15.39,0,0,0,2.16-1.7,6.75,6.75,0,0,0,.57-.63,1.85,1.85,0,0,0,.61-.17,1.7,1.7,0,0,0,1-1.2,2.38,2.38,0,0,0,.81-1.93,24.59,24.59,0,0,0-.37-3c2.41-4.73,4.72-9.51,7-14.32q.81-1.19,1.59-2.4a.16.16,0,0,0,.13-.07,73.26,73.26,0,0,0,5.59-8.89,34.78,34.78,0,0,0,3.27-2.22s.08,0,.11,0c.88-.61,1.74-1.27,2.57-1.94a3.15,3.15,0,0,0,.59-.33c.48-.35,1-.72,1.4-1.1a1.65,1.65,0,0,0,.66.12,21.14,21.14,0,0,0,3.67-1.55A2.34,2.34,0,0,0,74.2,77c.23-.18.45-.38.66-.57l.41.12a3.57,3.57,0,0,0,2.07-.17,3,3,0,0,0,1.55-1.52c.65-1.3,1.26-2.63,1.89-3.94a1.27,1.27,0,0,0,0-.86.75.75,0,0,0,.21-.25l2.84-5.39,1.21-1a.82.82,0,0,0,.26-.46c.36-.35.71-.7,1.06-1.06a1.37,1.37,0,0,0,.7.08,10.42,10.42,0,0,1,2.34-.3l.2.07c.28.07.56.18.84.26a1.56,1.56,0,0,0,.27.2l2.86,1.44c.5.48,1,.93,1.57,1.37l.09.08h0l.24.19a1.38,1.38,0,0,0,.94.24l.33.36C97.42,66.52,99.58,66.22,98.68,65.13Z"/><path class="cls-1" d="M191,85.77l-.24-2.25a1.28,1.28,0,0,0-.5-.71,1.63,1.63,0,0,0-.93-.29,1,1,0,0,0-.76.3l-.14.22a.84.84,0,0,0,0,.52l0,.18a1.12,1.12,0,0,0-.28.59,3.55,3.55,0,0,0-.36,1.61,1.25,1.25,0,0,0-.09-.12l0-.11c.19-.58-.36-1.13-.87-1.29a1.52,1.52,0,0,0-.92,0,.93.93,0,0,0-.52.41h-.06a4.15,4.15,0,0,0-.93,0,2.46,2.46,0,0,0-.27-.33,1.32,1.32,0,0,0-1.22-.29,1,1,0,0,0-.77.81,6.39,6.39,0,0,0-.09.75l-.13.08a5.19,5.19,0,0,0-1.17,1.26l-.14.19a2,2,0,0,0-1.71.51,1.67,1.67,0,0,0-.31,1.64c-.18.24-.33.59-.45.77l-.22.32A15.7,15.7,0,0,1,176.1,89a2.91,2.91,0,0,0-2.84-.82,1.62,1.62,0,0,0-.94,2.14c.56,1.36,1,2.65,2.33,3.42l.22.15,0,0a5.33,5.33,0,0,1,.42.4s0,.09.12.18a11.91,11.91,0,0,1-2.81,4.25.75.75,0,0,0-.09.15c-.1,0-.17-.06-.18,0a6.82,6.82,0,0,0-3.06-1.39c-2.46-.36-4.67,1.14-6.74,2.24a.94.94,0,0,0-.74.06l-5.44,3-1.27.59a1,1,0,0,0-.67-.08,20.48,20.48,0,0,0-6.21,3,.9.9,0,0,0-.34.52h-.12a2.87,2.87,0,0,0-1.09-.46,1.83,1.83,0,0,0-2.14-.12.61.61,0,0,0-.1.37,3.75,3.75,0,0,0-1.06.12.61.61,0,0,0-.23.11,1.8,1.8,0,0,0-.29.25l-.23.15a6.15,6.15,0,0,0-2.18.58.62.62,0,0,0-.23.18l-.09,0a2,2,0,0,0-.27-.22,44.8,44.8,0,0,0-9.76-4.4l-1.77-.8a1.34,1.34,0,0,0-.46-.11,6.87,6.87,0,0,0-1-.62,4.69,4.69,0,0,0-1.45-.49,3.76,3.76,0,0,0-1-1.08,4.72,4.72,0,0,0-1.67-.92,5,5,0,0,0-1.94-.47l-1.25,0-.24,0a10.48,10.48,0,0,0-2.41-.59l-.63-.3.68-1.74c.05-.13,0-.26-.23-.38a9.94,9.94,0,0,0,0-1.89.47.47,0,0,0-.21-.32,1.7,1.7,0,0,0-.49-1.46,12.71,12.71,0,0,0-1.48-2.61l-.66-2.1a10,10,0,0,0-1.7-3.17c-.24-.29-.52-.6-.82-.9a14.71,14.71,0,0,0-1.69-2.79c-.27-.52-.55-1-.84-1.55-.35-.8-.7-1.6-1-2.4a1.21,1.21,0,0,0-.82-.49c-.39-.55-.79-1.09-1.21-1.61,0-.09,0-.18-.07-.26a.85.85,0,0,0-.53-.48l0,0c0-.06-.24-.29-.36-.24a.14.14,0,0,0-.06.13c-.72-.18-1.56-.1-1.44.38.45,1.87,1,3.72,1.63,5.54l0,.35,0,0c-.08.21-.18.42-.26.63h0v0A28.67,28.67,0,0,1,103,84c-2.22.51-5,.31-6,2.52l-2.75,3c-.12.14-.05.38,0,.53a2.4,2.4,0,0,0,.53.73,2.32,2.32,0,0,0,.75.49c.16.06.39.13.53,0l.53-.56a2.66,2.66,0,0,0,.52.54,1.66,1.66,0,0,0,1.27.41c.11.17.21.34.3.5,1,1.88,1.93,3.81,2.78,5.77l.15.29a46.89,46.89,0,0,0,3,10v0a5.87,5.87,0,0,0,.88,3,1.52,1.52,0,0,0,.41.24l.12,0c.22,1.72.43,3.45.65,5.17a39.64,39.64,0,0,0,.64,5.21l-.22.09a1,1,0,0,0-.49.68V123a2.38,2.38,0,0,0,.4,1l.61,1a1.91,1.91,0,0,0,.24.32l.17,1.78c-.05,0-.08,0-.08,0,0,.19,0,.38,0,.58-.13,0-.22,0-.22,0l-.42,7.51c0,.07.13.16.27.24l-.09.2-.42.88q-.48.94-1,1.86a1.47,1.47,0,0,0-.06.14c-1.12,1.19-2.21,2.4-3.24,3.67a3.45,3.45,0,0,0-.57.18h-1.06c-.58,0-.71.3-.64.68h-.18c-.33,0-1.25,0-1.28.5s.75.61,1.12.64a1.1,1.1,0,0,0,.42.52c0,.22.42.25.71.23l.1,0a1.3,1.3,0,0,0,.37-.06,5.59,5.59,0,0,0,1.51,1c.2.09.4.16.6.24a1.91,1.91,0,0,0,.56.54l.28.14a.28.28,0,0,0,.36-.18l0,0a30.69,30.69,0,0,0,3.39,1,4,4,0,0,0,2,1.15,14.22,14.22,0,0,0,9.21-1.51,16.16,16.16,0,0,0,3.75,3.58,4.39,4.39,0,0,0,.42.58,9.86,9.86,0,0,0,3.19,2.25,17.48,17.48,0,0,0,1.62.87,13.92,13.92,0,0,0,5.09,1.47,2.58,2.58,0,0,0,2.2-.61,5.27,5.27,0,0,0,.89-.09,5,5,0,0,0,2-1,2.58,2.58,0,0,0,1.21-.15,5.27,5.27,0,0,0,3-3.94l0,0c1.52-1,1.69-3,1.8-4.61v-.19c.07-.36.11-.73.15-1.09a.5.5,0,0,0,.2-.31,11.83,11.83,0,0,0-.45-5.33,2.49,2.49,0,0,0,.61,0,21.88,21.88,0,0,0,4.68-1.32,7.12,7.12,0,0,0,.64.48c.17.11.5.4.72.3a11,11,0,0,0,5-4.5,1.66,1.66,0,0,0,.27-.26,31.09,31.09,0,0,0,4.11-7c.62-.85,1.25-1.7,1.88-2.54a1.28,1.28,0,0,0,1-.4c3.19-3.15,6.57-6.16,10.07-9a1.09,1.09,0,0,0,.15-.08,24.22,24.22,0,0,0,5.73-4.69,4.82,4.82,0,0,0,1-.42,4,4,0,0,0,1.88-2.11,1.36,1.36,0,0,0,0-.17c0-.09.12-.18.17-.27a1.33,1.33,0,0,0,.11-1.25l-.08-.09c.05-.36-1.59-1.58-2.18-1.4a3.88,3.88,0,0,0-.36.15s-.09-.15-.22-.28a20.25,20.25,0,0,0,5.19-8.34l2-3.44A3.59,3.59,0,0,0,189,90.45a1.58,1.58,0,0,0,.65-.46,6.32,6.32,0,0,0,1.31-3.61l.06-.09A.84.84,0,0,0,191,85.77Z"/><path class="cls-1" d="M99.79,126.09a2.24,2.24,0,0,0-2.19-.92c-.11,0-.21-.07-.32-.09a8.32,8.32,0,0,1-3.11-1.43,1.1,1.1,0,0,0,0-.27,10.63,10.63,0,0,0-.76-4.17,6.58,6.58,0,0,0-.86-1.52,7.64,7.64,0,0,0-2.93-3.18,2.6,2.6,0,0,0-1.11-.32,9,9,0,0,0-.83-.53,1.87,1.87,0,0,0-.32-.15c-.23-.2-.45-.41-.69-.6a2.45,2.45,0,0,0-1.79-.61c-.48.06-1.19.35-1.29.9a16.72,16.72,0,0,0-.27,3.14,1.24,1.24,0,0,0-1,1.6,8.49,8.49,0,0,0,.85,2.25,9.49,9.49,0,0,0,4.35,5.13,3.41,3.41,0,0,0,.48.18,19.26,19.26,0,0,0,4.36,4,3.59,3.59,0,0,0,3.91.39,9.58,9.58,0,0,0,1.78-1.56,7.82,7.82,0,0,0,1-.27A1.28,1.28,0,0,0,99.79,126.09Z"/><path class="cls-1" d="M100.56,139a1.49,1.49,0,0,0-.58-.77,1.21,1.21,0,0,0-.84-.24.81.81,0,0,0-.65.43l-.43,1a1.88,1.88,0,0,0-.33,0l-.2.08a.27.27,0,0,0-.18.21c0,.08,0,.17,0,.26a2.44,2.44,0,0,0-1-.4l-.72-.11-.12,0-.38-.08-.5-.14-.37-.5a.44.44,0,0,0,.07-.17.54.54,0,0,0-.19-.39,1.29,1.29,0,0,0-.56-.31,2.29,2.29,0,0,0-.08-.28,2.1,2.1,0,0,0-2.24-1.37,1.67,1.67,0,0,0-1.38,1.1,1.59,1.59,0,0,0-1,.16,1.54,1.54,0,0,0-.66.81l-.24.06a5.89,5.89,0,0,0-.83.31s-.37.17-.32.23a4.51,4.51,0,0,0,1.88,1.28,3.3,3.3,0,0,0,2.77,1.12l.39.3a10.89,10.89,0,0,0,4.82,1.5h0s0,.08.06.1a.32.32,0,0,0,.25.1.9.9,0,0,0,.36-.05,1.56,1.56,0,0,0,.41-.15l.06,0,0,0a4.59,4.59,0,0,0,.44.33l.18.09a.18.18,0,0,0,.2,0l.24-.47a.14.14,0,0,0,0-.14.43.43,0,0,1,0-.07.79.79,0,0,0,.61-.42l1.11-2.66A1.19,1.19,0,0,0,100.56,139Z"/></g><g id="destacado"><ellipse class="cls-2" cx="82.97" cy="174.65" rx="10.73" ry="2.76"/><ellipse class="cls-2" cx="36.94" cy="185.83" rx="10.73" ry="2.76"/><path class="cls-3" d="M107.58,129a11.67,11.67,0,0,0-.26-1.69v-2.15a1.88,1.88,0,0,0-1.88-1.88,2.78,2.78,0,0,0-.49.08l0,0-.22-.1-.07,0a12.06,12.06,0,0,0-1.51-.47,6.66,6.66,0,0,0-2-.55h0l-.17,0a.59.59,0,0,0-.54.33l-.19,0a.65.65,0,0,0-1.11.56,11.8,11.8,0,0,0,1,3.05.5.5,0,0,0,.22.21l.07.11c0,.39.07.77.13,1.15l-.56,0c-.31,0-.92,0-1.15.24s-.58.6-.86.92a3.91,3.91,0,0,0-1.12,1.27l-.49.32a.49.49,0,0,0-.43,0,6.23,6.23,0,0,1-4.3.06l-.31-.22a3.17,3.17,0,0,0-.34-.3l-.06,0-.14-.12a.58.58,0,0,0-.55-.16,1.36,1.36,0,0,0-.49,0,1.53,1.53,0,0,0-.76.48.58.58,0,0,0-.59.28l-1.19,1.95a.6.6,0,0,0-.06.43l-.09.06a.63.63,0,0,0,.13,1l.55.29a.64.64,0,0,0,.68-.06h0a.78.78,0,0,0,.43-.09,2.49,2.49,0,0,0,.45.18.53.53,0,0,0,.28,0l.25.17a2.08,2.08,0,0,0,.9.59c.37.24.75.47,1.11.73a9.39,9.39,0,0,0,1.4,1.55,1.82,1.82,0,0,0,.62,1.26,2.06,2.06,0,0,0,.8.22,1.33,1.33,0,0,0,.27.48.55.55,0,0,0,.05.17.65.65,0,0,0,1,.3h0a1.68,1.68,0,0,0,1.19-.6,2.08,2.08,0,0,0,.51-.37,3,3,0,0,0,.31,0c.52-.07,1.27-.17,1.52-.71l.09.09a2.56,2.56,0,0,0,.94.26c-.16.92-.29,1.85-.38,2.78a2.13,2.13,0,0,0-.25,1,.64.64,0,0,0,.9.55.55.55,0,0,0,.62-.15,18.72,18.72,0,0,0,3.24-4.32.6.6,0,0,0,.07-.2,2.31,2.31,0,0,0,.91-1.59.63.63,0,0,0,.39-.22,10.11,10.11,0,0,0,1.39-6.59A1.31,1.31,0,0,0,107.58,129Z"/></g><g id="Capa_3" data-name="Capa 3"><path d="M180.05,102.81a7.12,7.12,0,0,0,.82.57c3.31,1.58,3.43,3.78.41,6.11-5.21,4-10.42,8-15.57,12.1-3.06,2.44-5,5.81-6.64,9.23-2.37,4.93-6.28,7.26-11.51,7.82-.47,0-1.17,0-1.16-.54s.62-.09.95-.13c4.93-.57,8.69-2.69,11-7.39a30.72,30.72,0,0,1,10.22-12.19c4.35-3,8.4-6.38,12.51-9.69,2.39-1.92,2.14-3.55-.68-4.68a34.68,34.68,0,0,1-9.2-5.63c-2.6-2.15-5.1-.52-7.53.67-3.85,1.89-7.24,4.6-11.31,6.08-.55.2-1.6.35-1.44,1.18s1.2,1,2,1.15c1.65.26,3.37.22,4.78,1.34.5.41,1.92.08,1.53,1a2.09,2.09,0,0,1-2.75.88c-2.87-1.13-5.75-2.26-8.63-3.36a9.71,9.71,0,0,0-4.45-.34c-1.85.17-1.85,1.27-1.17,2.49A14.89,14.89,0,0,0,152,116.8a5.87,5.87,0,0,1,1.6.63c.69.43.6,1.06.16,1.63-.7.88-.61-.3-.85-.33a14.4,14.4,0,0,1-3.44-.74,12.15,12.15,0,0,1-7.14-6.19c-1.78-3.78-5.21-5.28-8.84-6.9-5.18-2.31-10.26-4.75-15.73-6.29-1.14-.32-1.89-.23-2.52.87a16.5,16.5,0,0,1-5.24,5.34,6.44,6.44,0,0,0-2.63,3.2c-.18.54-.79,1-1.2.81s.22-.7.37-1.06a10.42,10.42,0,0,1,4-4.32c3-2,4.55-5,6-8.19a3.14,3.14,0,0,0-.43-3.1c-2.41-4.19-4.62-8.49-6.95-12.73a19.81,19.81,0,0,0-2.07-3.14,7,7,0,0,0-2.9-2.48A17.06,17.06,0,0,0,105,78a5.52,5.52,0,0,1-1.64,6.07c-1.18,1-2.27.3-3.26-.47a2.43,2.43,0,0,1-1-2c.08-2-1.15-3.47-2.19-4.94-1.69-2.38-4.74-2.18-6.53.32-1.55,2.16-3.06,4.35-4.61,6.51-.17.24-.56.59-.72.53-.49-.19-.1-.55,0-.84.58-2.1-.26-4-1.11-5.78-.56-1.18-1.57-.25-2.21.19a9.4,9.4,0,0,1-3.83,1.55c-1.76.32-1.55-.39-1.09-1.5.15-.38.42-.82-.06-1.17a1,1,0,0,0-.51-.14,2.58,2.58,0,0,0-.39,1.16,51.6,51.6,0,0,0,4.25,14.69c.2.44.84,1.08.31,1.38s-.77-.6-1-1a53.5,53.5,0,0,1-4.32-14.83c-.15-1.13-.28-3,2-2.08.65.25.67-.52.92-.89,2-3,2.87-6.65,5.15-9.54,3.65-4.61,5.22-4.93,10.16-1.78.93.6,1.82,1.29,2.79,1.83.46.25,1,1.1,1.4.62.29-.32,0-1.31-.21-1.89-1.58-3.56-3.94-6.64-6.17-9.8-3.54-5-6.52-10.43-10.52-15.13-.27-.32-.55-.89-.11-1.15s.47.41.66.66C87.15,46.41,93,54.4,97.71,63c1.62,2.95,3.46,5.74,5,8.68.75,1.39,2.09,1.2,3,2,3.22,2.71,4.52,6.6,6.57,10,1.73,2.9,2.86,6.13,5,8.85.86,1.13.27,2.47-.29,3.58s-.28,1.39.72,1.66c5.64,1.47,10.86,4,16.18,6.32,3.14,1.37,6.15,3.46,10.14,2.22,2.67-.83,5.31.51,8.3-2.24,3.85-3.53,9.53-5.1,14.48-7.39a4.56,4.56,0,0,1,4.3.69c1.15.73,1.71.64,2.47-.36s1.49-2.13.27-3.32A7.41,7.41,0,0,1,172,91a2.45,2.45,0,0,1,1.11-3.22c1.1-.77,2-.43,2.85.35,1.06.94,2.24,2.62,2.79-.44a1.27,1.27,0,0,1,2-1c.84.43.58-.5.79-.82.74-1.13,1.31-2.55,3-1,.52.5.56-.22.67-.48.23-.59.56-1.1,1.22-1.06s.58.76.73,1.23.33,1.21.55,1.23c.63,0,.47-.69.66-1.09s.35-1,.57-1.49c.34-.74,0-2.17,1-2.14,1.27,0,.74,1.54,1.1,2.36,1.35,3,.39,5.53-2,7.47-2.71,2.2-3.27,5.64-5.13,8.32a10.77,10.77,0,0,1-3.9,3.57c1.75-2.06,3.86-3.91,4.73-6.55a13.25,13.25,0,0,1,3.85-5.86c2.15-1.93,2.88-4.15,1.68-6.88l-.35-.87a3.13,3.13,0,0,0-.41.87c-.6,4.11-4.14,5.86-6.73,8.36-.19.18-.61.13-.93.19,0-.16-.06-.42,0-.48,1.52-1.21,1.4-3.23,2.33-4.73a1.31,1.31,0,0,0-.65-1.92c-.84-.32-1.22.52-1.41,1.26-.44,1.74-.9,3.47-1.29,5.21-.23,1-.53,1.16-1.57.67-1.69-.82-2.36-2.66-3.94-3.55-.66-.37-1.19-.6-1.85-.14a1.74,1.74,0,0,0-.93,1.81,3.72,3.72,0,0,0,1.17,2.44c2.23,1.65,1.94,3.29.23,5.07-.52.54-1.07,1.2-.13,1.79C175.83,100.76,177.62,102.4,180.05,102.81ZM104.37,80.26c-.05-.34-.11-.62-.13-.91-.55-8.46-6.34-12.72-13-16.2-3-1.56-4.7-1-6.83,1.69C81.91,67.9,80.88,71.71,78.81,75c-.58.9-1.77,2.34-.88,3.09s2.25-.51,3.26-1.2c2-1.34,3.34-.92,4.1,1.34.22.68.26,1.42.42,2.13a7.71,7.71,0,0,0,.32.92,5.63,5.63,0,0,0,.72-.65c1-1.41,2-2.85,3-4.26a4.72,4.72,0,0,1,7.77-.24,10.3,10.3,0,0,1,2.27,4.82c.2,1.49.87,3,2.34,2.8S104.27,81.81,104.37,80.26Zm82.69,6.17-.84-2.12c-.12.12-.29.23-.35.38-.55,1.34-1.09,2.67-1.6,4-.07.21-.25.91.13.66A5.61,5.61,0,0,0,187.06,86.43ZM179,89.63c-.21.87,0,1.57.59,1.44,1.26-.28,1-1.59,1.23-2.49.15-.5-.07-1.37-.58-1.27C178.85,87.57,179.27,89,179,89.63Z"/><path d="M65.32,127.31c2.12.4,2.31-.67,1.84-2.26-1.1-3.7-1.91-7.53-4.67-10.5-1.39-1.49-3.5-2.09-4.63-3.89-.24-.39-.81-.77-.47-1.25s1-.12,1.44.09c2.45,1.13,3.35,3.78,5.3,5.41a5,5,0,0,0,.52.38,5.2,5.2,0,0,0-.06-.68c-.44-2-2.33-3.27-2.41-5.48a29.85,29.85,0,0,0-1.73-9.58c-.08-.22.17-.57.28-.86a5.76,5.76,0,0,1,.48.77c1.33,3.47,1,7.37,2.36,10.72,2,5,2.62,10.33,4.57,15.29a2.76,2.76,0,0,0,1.24,1.71c5.53,2.49,9.6,7.17,14.94,10,2,1,3.85,1.68,5.5-.53.17-.24.47-.65.8-.26.11.14,0,.66-.22.85-1.42,1.45-3,2.23-5.08,1.27a9,9,0,0,0-1.18-.37,7.54,7.54,0,0,0,.71,1.06c3,3.35,5.77,6.9,8.61,10.38,2.51,3.08,1.84,6.56,1.94,9.87.19,6.57-.06,13.15-.2,19.73,0,2.15-4,4-6.06,2.8-7.17-4.2-13.74-2.54-19.79,2.14-4.76,3.68-9.79,2.53-14.84,1.49-2.57-.52-4.2,0-5.49,2.39-3.29,6.06-5.89,6.9-12.45,5-3.85-1.12-7.48-2.93-11.49-3.55A3.67,3.67,0,0,1,23,188.25c-.54-.55-.82-.69-.16-1.57,1.27-1.69,2.5-3.28,4.55-4.09.59-.23,1.25-1,.85-1.58-.29-.39-.93.42-1.37.74s-.89.73-1.32,1.13c-5.43,5-6.44,5-12.9,1.27-3.13-1.82-5.22-4.72-7.82-7.09a1.16,1.16,0,0,1-.13-1.6c1.82-2.11,2.46-4.86,4.12-7.09a60,60,0,0,1,14-13.55c3.6-2.52,5.22-6.74,6.4-10.95,2.56-9.12,5.68-18,11.93-25.37a7.78,7.78,0,0,1,4-2.78c.43-.11.88-.3.88-.83.09-6.81,3.85-12.23,6.89-17.89,2.26-4.21,4.82-8.27,7.28-12.37A7.06,7.06,0,0,1,64,81.56a13.23,13.23,0,0,0,5.06-3,4.76,4.76,0,0,1,4-1.49c.38.05.8.12.86.61a.69.69,0,0,1-.15.53c-.43.37-.52-.23-.8-.31-1.35-.39-2.38.4-3.24,1.18A15,15,0,0,1,64,82.41c-1.94.6-3.15,2.25-4.15,3.91-3.78,6.3-7.67,12.56-10.69,19.27a50.59,50.59,0,0,0-2.34,6.7,4.27,4.27,0,0,0,.82,4c1.4,1.78,2.65,3.7,4.09,5.45C55.26,126,60.5,126.2,65.32,127.31Zm29,35.92h.4c0-.63,0-1.26,0-1.89-.4-4.42.56-9.05-3.13-12.84-3.16-3.25-5.61-7.17-8.72-10.47-3.52-3.73-7.4-7.14-12.23-9.22-.82-.35-1.73-1.33-2.36-1.15-4.69,1.34-8.85-.62-13-2.16-3.84-1.44-5.83-5.11-8.08-8.3-.72-1-1.46-1.16-2.41-.46a15.87,15.87,0,0,0-2.62,2c-6.45,7.14-9.42,16-12,25-1.31,4.6-3,9.19-7,11.9a52,52,0,0,0-13.66,13.6,25.32,25.32,0,0,0-3.2,6.44c-.56,1.71,1.7,2.17,2.43,3.42,1.8,3.08,4.75,4.71,8.08,5.73,1,.31,1,.33,1-.17a.49.49,0,0,1,.11-.22,2.85,2.85,0,0,1,.76.38c1.48,1.3,2.63.83,3.83-.49a39.25,39.25,0,0,1,3.7-3.48c.9-.77,2.29-1.91,3.11-.78s-.63,2.31-1.53,3.23a3.56,3.56,0,0,1-1,.52,6.71,6.71,0,0,0-2.74,2.72,1.05,1.05,0,0,0,.7,1.7c4.6.88,8.84,2.9,13.34,4.1a9.38,9.38,0,0,0,6.35-.45c2.19-1,3.12-3.29,4.2-5.18,1.39-2.42,3.18-2.63,5.47-2.11,5.63,1.29,10.88,1.73,16.08-2.21,5.83-4.4,12.44-5.26,19.2-1.41,2.19,1.25,4.75-.45,4.81-3.11C94.35,173,94.27,168.11,94.27,163.23Z"/><path d="M83,113.45a34.06,34.06,0,0,1,2.09-12.53,19.3,19.3,0,0,1,1.31-2.56c.12-.21.42-.31.64-.46,0,.26.15.58,0,.77C84,104,84.59,110,83.45,115.75c-1,5,1.5,7.21,4.7,9.65a22.75,22.75,0,0,1,4.14,3.91c1.77,2.21,3.72.62,5.23-1.07.32-.36.79-1,1.28-.39s-.43.69-.69,1c-2.29,3.05-4.91,2.62-7.65.72-.36-.25-.53,0-.73.17a10.84,10.84,0,0,0-3,4.73c-.13.39-.19.85.42.81.34,0,.84-.08.71-.66-.32-1.43.48-.85,1.06-.59a17.86,17.86,0,0,1,6.18,4.72c.4.45.89,1.17,1.55.76a24.85,24.85,0,0,0,2.8-2.25s-.12-.41-.21-.42c-.74-.11-1.32-.47-.94-1.23s1.38-.86,2.17-.8.73,1,.7,1.52a13.43,13.43,0,0,1-1.19,5.2,2.68,2.68,0,0,0-.11.65,2.57,2.57,0,0,0,.49-.5c1-1.79,2.77-3.39,1.71-5.81,0-.12.11-.34.17-.51.19.17.48.3.57.51.8,2,0,3.58-1.08,5.15a4.5,4.5,0,0,0-.38.9c.23-.25.58-.46.68-.75.65-1.87,3.31-3.28,1.37-5.77a.46.46,0,0,1,0-.37c.17,0,.45-.12.52,0a4.09,4.09,0,0,1,1,1.37,6.39,6.39,0,0,1-.08,1.84c.48-1.09,1.41-2.08,1.17-3.35-.14-.71-.94-1.51.62-.77.58.28.58-.36.66-.68a12.21,12.21,0,0,0-.69-8.77c-.7-1.42-5.7-3-6.94-2.27-.43.27-.19.58-.1.89a10.84,10.84,0,0,0,.78,2.79c1.84,3.09-1.61,5.13-1.46,7.86,0,.07-.19.16-.3.24-.1-.19-.3-.42-.27-.59.24-1.08.19-2.49.87-3.15,1.33-1.29.68-2.55.51-3.86-.06-.54-.32-.54-.9-.66-2.14-.44-4.68-.49-4.88-3.72-.3-4.83-3.45-7.41-7.57-9.15-.48-.2-1.45-.25-1.15-1s.91.08,1.35.21a21.77,21.77,0,0,1,2.37,1c-.26-.77-.58-1.52-.77-2.3a15.14,15.14,0,0,1-.6-5c0-.34-.19-.94.33-.94s.36.6.37,1c.06,2.58.17,5.15,1.85,7.31a4,4,0,0,0,.74.61,3.8,3.8,0,0,0,0-1c-.35-1.76.14-3.47.31-5.19a1.94,1.94,0,0,1,.29-.62,2.14,2.14,0,0,1,.21.68c-.06,1.78-.52,3.57,0,5.34.9,3.23,3,6.06,3.26,9.51.07.71.51.39.92.09a6.44,6.44,0,0,1,5-1.2,33.25,33.25,0,0,0,5.47.13c.72,0,.66-.72.7-1.24a17.83,17.83,0,0,0-1.51-7.49c-1.89-5.19-3.55-10.43-5-15.76-.67-2.47-1.44-5.27-4.8-5.67-.19,0-.36-.26-.54-.39.27-.15.54-.42.8-.42,2.39,0,3.6,1.69,4.3,3.55a87,87,0,0,1,3.23,10.21c1.23,5,4,9.56,4.35,14.84.07,1.25.38,2.51-.89,3.44-.47.34-.06.77.11,1.16,1.18,2.69,2.21,5.39,1.26,8.4-.23.73-.08,1,.8,1a21.08,21.08,0,0,1,2.73.29,4.89,4.89,0,0,0,.85-.08c-.2-.15-.39-.31-.6-.45a2.32,2.32,0,0,0-.36-.16,2.05,2.05,0,0,1,.78-.18c1,.15,2.21.07,2.71,1.19.16.36-.49.47-.88.44-1.43-.09-2.89.37-4.3-.28-.44-.2-1.15-.29-1.35.42s.46.77.88.94a8.69,8.69,0,0,1,4.12,3.06,2.14,2.14,0,0,1,.21.73c-.19-.06-.47-.06-.57-.19-1.49-1.8-3.73-2.57-5.46-4,0,0-.23.14-.23.2.27,2.84-1.81,4.55-3.43,6.23-1.26,1.29-3.21,2-5,2.68-.76.3-1.4-.33-1-1.32a6.24,6.24,0,0,1,.45-.73c.62-1.08,1.81-2.45,1-3.35-.56-.66-1.57,1-2.41,1.56a1.56,1.56,0,0,1-2.28-.32c-1-1-2.1-2-3.1-3.06-1.87-1.95-3.67-1.36-5.43.13-.24.2-.47.48-.69.21a1.6,1.6,0,0,1-.34-1,10.29,10.29,0,0,1,4-7.26c.82-.65.58-.84,0-1.31-3-2.32-6.2-4.52-7.77-8.23-.08-.21-.28-.49-.46-.51-3-.32-4.6-2.73-6.61-4.52-.27-.24-.86-.66-.44-1s.69.28,1,.52.41.42.64.58c.89.61,2,1.35,2.88.87.38-.19-1-1-1.3-1.77-.49-1.21-1.8-2-1.64-3.54,1.39.37,1.36,2,2.32,2.69.64.48.68,1.5,1.6,1.71-.12-.75-.21-1.5-.35-2.25-1.13-5.79-2.18-11.62-5.65-16.62a7.27,7.27,0,0,0-11.28-1.34c-.19.17-.42.43-.5.09a1.32,1.32,0,0,1,.27-1,5.86,5.86,0,0,1,6.3-1.86c4.19,1.05,6.57,3.93,8.19,7.75,2,4.82,2.74,10,4,15,.3,1.27.55,3.36,1.53,3.27s.55-2.13.73-3.32A5.65,5.65,0,0,0,83,113.45Zm15,11.47c.44,0,1.11.09.92-.69s-.25-1.59-1.18-1.52c-.62,0-1.47.45-1.41,1.19S97.3,124.87,98.05,124.92Z"/><path d="M27.11,116.33c-2.73,0-4.49.67-5.47,2.7a14,14,0,0,1-3.22,4.07,1.56,1.56,0,0,1-2.6-.29,7.27,7.27,0,0,1,.83-9c2.11-2.11,3.08-4.82,3.83-7.55.66-2.36,2.07-2.57,3.81-1.81a46.31,46.31,0,0,1,5.15,3A2.79,2.79,0,0,1,30,108a6,6,0,0,1-.73.17c-2.08.2-3.3-1.43-4.77-2.41s-2.36-1-2.83.72c-1.1,4.08-4.22,7.08-5.69,10.93-.44,1.15-.62,2.47.84,3.24a.31.31,0,0,1,.11.09c1.1,1.46,1.86,1.51,2.83-.64,1.64-3.66,4.26-5.18,8.14-4.83.86.08,1.3-.29,1.5-1.16C32.19,102,37.26,90.67,42.1,79.27c.39-.91.7-2,2-2,1,0,.42-.7.3-1-1.12-2.76-.25-4.43,2.3-6,1.51-1,2-3.31,3.12-4.93C54.08,59.47,58,53.15,64,49.09c4.78-3.27,7.16-9,12.67-11.21.62-.25,1.14-.76,1.76-1s1.21-1,1.57-.21c.25.55-.8.6-1.25.89-2.87,1.83-6.15,3.16-8,6.32C68.34,48,63.55,49.46,60.58,53c-4.41,5.26-9,10.36-12.34,16.43a3.4,3.4,0,0,0-.32,2.92c.85,2.37,1.74,4.72,2.43,7.14.47,1.64,2.11,2.23,2.81,3.6.21.41.74.93.29,1.28s-.77-.37-1-.69a38.47,38.47,0,0,1-5.86-11.74c-.05-.2-.35-.51-.4-.49a1.92,1.92,0,0,0-.77.56c-1.61,2.64-.24,5,1,7.18,1.34,2.4,3.12,4.56,3.79,7.3a5.42,5.42,0,0,1,0,1.07c-.56,0-.53-.5-.65-.82A26,26,0,0,0,45,78.88c-.83-.94-1.48-.75-1.94.35-4.06,9.63-8.5,19.1-11.22,29.24-.69,2.58-1.31,5.19-2,7.78-.21.85-.4,1.7-.64,2.53-.51,1.77.13,2.59,2,2.84a34.4,34.4,0,0,1,4.61,1.21c.21.06.35.37.52.56a2.18,2.18,0,0,1-.77.13c-2-.44-4-.85-5.92-1.38s-1.81-2-1.35-3.41C28.81,117,28.85,115.89,27.11,116.33Z"/><path d="M130.94,156.3c-3.25-.09-7.19-3.6-10.72-7.64-1.29-1.47.32-4,2.53-4.31a11.75,11.75,0,0,1,8.23,2.17c.71.49,1,.63,1.26-.45.91-3.73,2.7-5.17,6.58-5.6a10.25,10.25,0,0,0,1.94-.5c.41-.13.73-1,1.14-.47s-.37.91-.75,1.23c-.93.79-2.13.54-3.21.71a5.71,5.71,0,0,0-4.89,6.43c0,.39.46.93-.12,1.12-.27.08-.77-.28-1.06-.56a10.45,10.45,0,0,0-8.2-3.32c-1.21.07-2.35.39-2.81,1.65s.35,2,1.12,2.77a29,29,0,0,0,6.48,5.06,10.74,10.74,0,0,0,8.46.61c6-1.8,9.5-9,7.62-15.14a8.55,8.55,0,0,0-.81-1.52c-.21-.37-1.1-.57-.59-1.06s1.05.11,1.46.52a3.46,3.46,0,0,1,.92,2.24,28.23,28.23,0,0,1-.69,8.93C143.55,154.14,140.62,155.9,130.94,156.3Z"/><path d="M117.55,116.45c0-2-2-2.58-2.85-4-.19-.33-.55-.55-.76-.87-.36-.57-1.5-1.16-.87-1.71s1.08.65,1.43,1.15c3,4.41,7.67,5.77,12.51,7.16,6.37,1.82,12.15,4.8,15.37,11.14.21.41.64.82.11,1.25-.08.06-.55-.17-.64-.35-3.48-7.18-10-9.95-17.12-12-2-.56-4-.86-5.74-2a1.13,1.13,0,0,0-1.46.16Z"/><path d="M65.83,36.86c-2.69-.28-4.78-1.77-6.68-3.5-1-1-.27-1.76.75-2a3.49,3.49,0,0,0,2.37-1.83c1.51-2.39,3.49-2.75,6-1.33,2,1.17,4.32,1.32,6.57,1.55s4.29,3.63,3.42,5.6c-.07.15-.25.24-.38.36-.12-.2-.36-.39-.35-.58.21-3.8-2.16-4.62-5.3-4.83a11.7,11.7,0,0,1-4.81-1.53c-2.19-1.21-3.58-.09-4.62,1.73-.32.57-.54,1.06-1.25,1.24s-1.59.1-1.66.86c0,.4.7,1,1.2,1.32,1.56,1,3.17,2,4.77,2.94Z"/><path d="M113.35,148c1.75.6,3.43-.44,5.17-.17a3.12,3.12,0,0,1,.5.14l-.48.25c-6.32,3.35-11.5-.26-16.84-2.8-.15-.07-.34-.45-.28-.55.25-.41.6-.15.89,0l8,3.61a4.3,4.3,0,0,0,1.09.39c.56.07,1.13.05,1.69.07a7.92,7.92,0,0,1-1.38-.2,6.34,6.34,0,0,1-1.11-.61c.32-.53.74-.07,1.11-.1S112.82,148,113.35,148Z"/><path d="M121.27,135.2c0-.64-.1-1.13.45-1.16,1.39-.09,2.15-1.73,3.67-1.45.08,0,.2.33.17.34a2,2,0,0,1-.78.52c-2.39.43-3.13,1.45-2,3.89a25.2,25.2,0,0,1,1.31,5.48c0,.22-.14.49-.21.74-.18-.11-.51-.2-.53-.33A41.76,41.76,0,0,0,121.27,135.2Z"/><path d="M99.4,84.74a36.07,36.07,0,0,1-3.17,3.35,18.89,18.89,0,0,0-2.29,2.36c-.61.72-1.37,1.25-2.2.39-.49-.5-1.64-1-1.1-1.73s.86.57,1.34.87c.77.5,1.14,0,1.58-.45,1.55-1.58,3.1-3.17,4.66-4.73a2.51,2.51,0,0,1,.85-.42C99.12,84.37,99.25,84.57,99.4,84.74Z"/><path d="M81.73,89.42,82,88.7a2.32,2.32,0,0,1,.58.49c.68,1.11,1.35,2.23,2,3.37,1,1.7,2.22,2.19,4,1.12.25-.16.59-.53.85-.11.08.14-.19.65-.42.8-1.58,1.09-3.14,1.35-4.39-.46C83.59,92.45,82.68,90.91,81.73,89.42Z"/><path d="M141.78,136.54c-.07.69.13,1.71-1.22,1.46a3.64,3.64,0,0,1-.86-.38l.68-.35c.84-.41.43-1.11.3-1.65a3.34,3.34,0,0,0-1.88-2.71c-.33-.13-.72.57-1-.07a.67.67,0,0,1,.24-.61,1.24,1.24,0,0,1,1.49,0A5.25,5.25,0,0,1,141.78,136.54Z"/><path d="M95.35,142.91c-2.21-.71-4.52-1.43-6.8-2.19-.21-.07-.33-.42-.49-.64.19-.07.4-.22.56-.18q3.55,1,7.09,2.08c.21.06.36.35.54.53Z"/><path d="M65.82,36.88c1.89.31,4.37,3.88,3.94,5.73,0,.19-.24.35-.37.52-.13-.19-.35-.37-.37-.57a9.22,9.22,0,0,0-3.19-5.7Z"/><path d="M81.16,82c.23-.62.52-1.48.88-2.32a1.22,1.22,0,0,1,1.47-.89c.46.11,1,.35.45.94-.15.15-.77-.16-.91,0a3.39,3.39,0,0,0-1,3c.08.42,1.16.21.63,1a.69.69,0,0,1-.65.09C81.42,83.47,81.13,82.94,81.16,82Z"/><path d="M118.3,129.07a3.55,3.55,0,0,1,.31.42c.64,1.41,1.29,2.81,1.91,4.23.06.15-.09.39-.15.59-.16-.08-.43-.11-.47-.24q-.84-2.23-1.63-4.49A1.6,1.6,0,0,1,118.3,129.07Z"/><path d="M117.53,116.44c0,2.78-.61,5.56,0,8.34,0,.14-.09.31-.15.47a2.76,2.76,0,0,1-.18-.53,19.24,19.24,0,0,1,.32-8.27Z"/><path d="M124.69,127.83a2.65,2.65,0,0,1-.23-.14,4.42,4.42,0,0,1,2.65-2c.14-.05.33,0,.5.06Z"/><path d="M130,125.68c-.41-.15-1.09.38-1.08-.32,0-.53.74-.47,1.2-.52s.94,0,.93.43C131,126.14,130.31,125.49,130,125.68Z"/><path d="M58.92,168.2c-.26-.12-.78-.2-.88-.45-.24-.56.39-.32.62-.47.69-.46,0-.74-.19-1-1.28-1.75-2.6-3.48-3.89-5.23-.21-.29-.58-.67-.16-1s.82,0,1.09.32c1,1.25,2,2.52,2.93,3.78a2.68,2.68,0,0,0,.48.4,2.81,2.81,0,0,0-.2-.66c-2.47-4.17-2-9-3-13.48,0-.15.18-.36.27-.54a2.24,2.24,0,0,1,.41.52c.7,1.65.43,3.44.69,5.15a31.48,31.48,0,0,0,3.22,9.88C61,166.71,60.72,167.79,58.92,168.2Z"/><path d="M61.29,167.05c-.68,3-2.64,5.32-4.45,7.73s-3.78,4.76-5.7,7.11c-.34.41-.44,1.48-1,1.09s-.06-1.3.32-1.78c1.7-2.11,3.55-4.09,5.2-6.22,2-2.61,4.43-5,5.25-8.38a1.72,1.72,0,0,1,.25-.37Z"/></g><g id="flechas"><path class="cls-2" d="M101.87,170.58c-.94-6.44-1.86-12.75-2.77-19.06a10.2,10.2,0,0,1-.19-1.43c0-.58-.42-1.52.33-1.61s.46.9.54,1.42q1.47,10.11,2.91,20.23a11,11,0,0,0,.33,1.22,12.52,12.52,0,0,0,.94-1c.29-.36.49-1.05,1.05-.7s0,.78-.26,1.13a3.62,3.62,0,0,0-.55.85c-1.37,4.35-2.57,1.1-3.66-.14-.44-.5-1.5-1.37-.89-1.85.87-.7,1,.71,1.55,1.15a4,4,0,0,0,.57.33Z"/></g></svg>